<?xml version="1.0" standalone="no"?>
<!DOCTYPE svg PUBLIC "-//W3C//DTD SVG 20010904//EN" "http://www.w3.org/TR/2001/REC-SVG-20010904/DTD/svg10.dtd">
<!-- Created using Krita: https://krita.org -->
<svg xmlns="http://www.w3.org/2000/svg" 
    xmlns:xlink="http://www.w3.org/1999/xlink"
    xmlns:krita="http://krita.org/namespaces/svg/krita"
    xmlns:sodipodi="http://sodipodi.sourceforge.net/DTD/sodipodi-0.dtd"
    width="245.76pt"
    height="245.76pt"
    viewBox="0 0 245.76 245.76">
<defs>
  <radialGradient id="gradient0" gradientUnits="objectBoundingBox" cx="0" cy="0" fx="0" fy="0" r="1.4142135623731" spreadMethod="pad">
   <stop stop-color="#36c2f3" offset="0" stop-opacity="1"/>
   <stop stop-color="#5ba56e" offset="0.665625" stop-opacity="1"/>
   <stop stop-color="#145447" offset="1" stop-opacity="1"/>
  </radialGradient>
 </defs>
<rect id="shape0" transform="matrix(1.00000002235174 0 0 1.00000002235174 3.8400002179126 3.70918849654175)" opacity="0.97" fill="url(#gradient0)" stroke="#000000" stroke-width="7.68" stroke-linecap="square" stroke-linejoin="bevel" width="238.079999735836" height="238.34162317273" rx="50.050809019389" ry="50.050809019389"/><circle id="shape1" transform="matrix(1.00000002235174 0 0 1.00000002235174 152.520003987099 42.4800003799522)" r="23.04" cx="23.04" cy="23.04" fill="none" stroke="#000000" stroke-width="5.76" stroke-linecap="square" stroke-linejoin="bevel" krita:marker-fill-method="auto"/><path id="shape2" transform="matrix(1.00000002235174 0 0 1.00000002235174 7.56000007655875 37.4687947580083)" fill="none" stroke="#000000" stroke-width="5.76" stroke-linecap="square" stroke-linejoin="bevel" d="M0 0.0361503C19.8031 -0.642672 29.9121 8.23859 30.3268 26.6799L30.3692 34.1712L30.7086 83.6492L30.2482 115.69L30.1278 136.783C29.9096 147.04 34.2873 150.587 43.2608 147.422"/><path id="shape3" transform="matrix(1.00000002235174 0 0 1.00000002235174 38.1837658527374 103.096167802391)" fill="none" stroke="#000000" stroke-width="5.76" stroke-linecap="square" stroke-linejoin="miter" stroke-miterlimit="2" d="M201.68 72.4116C172.423 81.8665 150.041 80.7448 134.534 69.0463C130.537 65.2003 109.314 69.1665 70.8654 80.9451C53.1997 85.8328 44.3634 82.9144 44.3566 72.1898L44.6109 29.3566C45.1864 21.0992 41.8821 17.2251 34.6979 17.7342L13.5695 18.6676C4.52318 17.9888 0 11.7663 0 0"/>
</svg>
