<?xml version="1.0" standalone="no"?>
<!DOCTYPE svg PUBLIC "-//W3C//DTD SVG 20010904//EN" "http://www.w3.org/TR/2001/REC-SVG-20010904/DTD/svg10.dtd">
<!-- Created using Krita: https://krita.org -->
<svg xmlns="http://www.w3.org/2000/svg" 
    xmlns:xlink="http://www.w3.org/1999/xlink"
    xmlns:krita="http://krita.org/namespaces/svg/krita"
    xmlns:sodipodi="http://sodipodi.sourceforge.net/DTD/sodipodi-0.dtd"
    width="245.76pt"
    height="245.76pt"
    viewBox="0 0 245.76 245.76">
<defs>
  <radialGradient id="gradient0" gradientUnits="objectBoundingBox" cx="0" cy="0" fx="0" fy="0" r="1.4142135623731" spreadMethod="pad">
   <stop stop-color="#36c2f3" offset="0" stop-opacity="1"/>
   <stop stop-color="#5ba56e" offset="0.665624976158142" stop-opacity="1"/>
   <stop stop-color="#145447" offset="1" stop-opacity="1"/>
  </radialGradient>
 </defs>
<rect id="shape0" transform="matrix(1.00000004470348 0 0 1.00000004470348 6.17025506523549 6.19404059436928)" opacity="0.97" fill="url(#gradient0)" stroke="#ffffff" stroke-width="12" stroke-linecap="square" stroke-linejoin="bevel" width="233.419479434865" height="233.371908378724" rx="49.0710425048826" ry="49.0071883427968"/><circle id="shape1" transform="matrix(1.00000004470348 0 0 1.00000004470348 152.520007396187 42.4800013294542)" r="23.04" cx="23.04" cy="23.04" fill="none" stroke="#ffffff" stroke-width="10.8" stroke-linecap="square" stroke-linejoin="bevel" krita:marker-fill-method="auto"/><path id="shape2" transform="matrix(1.00000004470348 0 0 1.00000004470348 11.3018373179244 37.4475824038509)" opacity="0.99" fill="none" stroke="#ffffff" stroke-width="10.8" stroke-linecap="square" stroke-linejoin="bevel" d="M0 0.0361503C17.6608 -0.642672 26.6762 8.23859 27.046 26.6799L27.0838 34.1712L27.3865 83.6492L26.9759 115.69L26.8685 136.783C26.6739 147.04 30.5781 150.587 38.5808 147.422"/><path id="shape3" transform="matrix(1.00000004470348 0 0 1.00000004470348 38.5200008665745 103.200002321664)" fill="none" stroke="#ffffff" stroke-width="10.8" stroke-linecap="square" stroke-linejoin="miter" stroke-miterlimit="2" d="M199.8 72.3213C170.816 81.7644 148.642 80.6441 133.28 68.9602C129.32 65.119 108.295 69.0802 70.2048 80.8441C52.7038 85.7257 43.9499 82.811 43.9431 72.0998L44.195 29.32C44.7652 21.0729 41.4917 17.2036 34.3745 17.7121L13.443 18.6443C4.48102 17.9664 0 11.7516 0 0"/>
</svg>
