<?xml version="1.0" standalone="no"?>
<!DOCTYPE svg PUBLIC "-//W3C//DTD SVG 20010904//EN" "http://www.w3.org/TR/2001/REC-SVG-20010904/DTD/svg10.dtd">
<!-- Created using Krita: https://krita.org -->
<svg xmlns="http://www.w3.org/2000/svg" 
    xmlns:xlink="http://www.w3.org/1999/xlink"
    xmlns:krita="http://krita.org/namespaces/svg/krita"
    xmlns:sodipodi="http://sodipodi.sourceforge.net/DTD/sodipodi-0.dtd"
    width="245.76pt"
    height="245.76pt"
    viewBox="0 0 245.76 245.76">
<defs>
  <radialGradient id="gradient0" gradientUnits="objectBoundingBox" cx="0" cy="0" fx="0" fy="0" r="1.4142135623731" spreadMethod="repeat">
   <stop stop-color="#36c2f3" offset="0" stop-opacity="1"/>
   <stop stop-color="#5ba56e" offset="0.665624976158142" stop-opacity="1"/>
   <stop stop-color="#145447" offset="1" stop-opacity="1"/>
  </radialGradient>
 </defs>
<rect id="shape0" transform="matrix(1.00000002235174 0 0 1.00000002235174 6.22500013205848 6.16500060564447)" fill="url(#gradient0)" fill-rule="evenodd" stroke="#ffffff" stroke-width="12" stroke-linecap="square" stroke-linejoin="bevel" width="233.303893703408" height="233.385103251013" rx="56.474994017386" ry="56.474994017386"/><circle id="shape1" transform="matrix(1.00000008940696 0 0 1.00000008940696 152.520014214363 42.4800032284583)" r="23.04" cx="23.04" cy="23.04" fill="none" stroke="#ffffff" stroke-width="10.8" stroke-linecap="square" stroke-linejoin="bevel" krita:marker-fill-method="auto"/><path id="shape2" transform="matrix(1.00000008940696 0 0 1.00000008940696 11.0399992672269 43.1999971326268)" opacity="0.99" fill="none" stroke="#ffffff" stroke-width="10.8" stroke-linecap="square" stroke-linejoin="bevel" d="M0 0.0347503C17.7807 -0.617784 26.8572 7.91954 27.2296 25.6467L27.2676 32.8479L27.5724 80.4098L27.159 111.21L27.0508 131.486C26.8549 141.346 30.7856 144.755 38.8426 141.713"/><path id="shape3" transform="matrix(1.00000008940696 0 0 1.00000008940696 38.5200025885527 103.200006935064)" fill="none" stroke="#ffffff" stroke-width="10.8" stroke-linecap="square" stroke-linejoin="miter" stroke-miterlimit="2" d="M199.8 72.3213C170.816 81.7644 148.642 80.6441 133.28 68.9602C129.32 65.119 108.295 69.0802 70.2048 80.8441C52.7038 85.7257 43.9499 82.811 43.9431 72.0998L44.195 29.32C44.7652 21.0729 41.4917 17.2036 34.3745 17.7121L13.443 18.6443C4.48102 17.9664 0 11.7516 0 0"/>
</svg>
