<?xml version="1.0" encoding="UTF-8" standalone="no"?>
<svg xmlns="http://www.w3.org/2000/svg" xmlns:xlink="http://www.w3.org/1999/xlink" contentStyleType="text/css" height="839px" preserveAspectRatio="none" style="width:714px;height:839px;background:#FFFFFF;" version="1.1" viewBox="0 0 714 839" width="714px" zoomAndPan="magnify"><defs/><g><!--MD5=[3fd616f346a44cd59a91eb10b19e157c]
class User--><g id="elem_User"><rect codeLine="4" fill="#FFFFFF" height="125.4844" id="User" rx="2.5" ry="2.5" style="stroke:#000000;stroke-width:1.0;" width="210" x="221" y="198"/><ellipse cx="306.25" cy="212" fill="#FFFFFF" rx="9" ry="9" style="stroke:#000000;stroke-width:1.0;"/><path d="M309.2188,217.6406 Q308.6406,217.9375 308,218.0781 Q307.3594,218.2344 306.6563,218.2344 Q304.1563,218.2344 302.8281,216.5938 Q301.5156,214.9375 301.5156,211.8125 Q301.5156,208.6875 302.8281,207.0313 Q304.1563,205.375 306.6563,205.375 Q307.3594,205.375 308,205.5313 Q308.6563,205.6875 309.2188,205.9844 L309.2188,208.7031 Q308.5938,208.125 308,207.8594 Q307.4063,207.5781 306.7813,207.5781 Q305.4375,207.5781 304.75,208.6563 Q304.0625,209.7188 304.0625,211.8125 Q304.0625,213.9063 304.75,214.9844 Q305.4375,216.0469 306.7813,216.0469 Q307.4063,216.0469 308,215.7813 Q308.5938,215.5 309.2188,214.9219 L309.2188,217.6406 Z " fill="#000000"/><text fill="#000000" font-family="Verdana" font-size="14" lengthAdjust="spacing" textLength="32" x="323.75" y="216.8467">User</text><line style="stroke:#000000;stroke-width:1.0;" x1="222" x2="430" y1="226" y2="226"/><text fill="#000000" font-family="Verdana" font-size="14" lengthAdjust="spacing" textLength="73" x="227" y="242.9951">+ID : UUID</text><text fill="#000000" font-family="Verdana" font-size="14" lengthAdjust="spacing" textLength="198" x="227" y="259.292">+CreationTime : TIMESTAMP</text><line style="stroke:#000000;stroke-width:1.0;" x1="222" x2="430" y1="266.5938" y2="266.5938"/><text fill="#000000" font-family="Verdana" font-size="14" lengthAdjust="spacing" textLength="140" x="227" y="283.5889">+Handle : CHAR(31)</text><text fill="#000000" font-family="Verdana" font-size="14" lengthAdjust="spacing" textLength="160" x="227" y="299.8857">+Name : VARCHAR(63)</text><text fill="#000000" font-family="Verdana" font-size="14" lengthAdjust="spacing" textLength="168" x="227" y="316.1826">+Password : CHAR(128)</text></g><!--MD5=[9bb0bdd047fba1a3c8d48282c35b4537]
class Post--><g id="elem_Post"><rect codeLine="12" fill="#FFFFFF" height="125.4844" id="Post" rx="2.5" ry="2.5" style="stroke:#000000;stroke-width:1.0;" width="232" x="12" y="521"/><ellipse cx="108.75" cy="535" fill="#FFFFFF" rx="9" ry="9" style="stroke:#000000;stroke-width:1.0;"/><path d="M111.7188,540.6406 Q111.1406,540.9375 110.5,541.0781 Q109.8594,541.2344 109.1563,541.2344 Q106.6563,541.2344 105.3281,539.5938 Q104.0156,537.9375 104.0156,534.8125 Q104.0156,531.6875 105.3281,530.0313 Q106.6563,528.375 109.1563,528.375 Q109.8594,528.375 110.5,528.5313 Q111.1563,528.6875 111.7188,528.9844 L111.7188,531.7031 Q111.0938,531.125 110.5,530.8594 Q109.9063,530.5781 109.2813,530.5781 Q107.9375,530.5781 107.25,531.6563 Q106.5625,532.7188 106.5625,534.8125 Q106.5625,536.9063 107.25,537.9844 Q107.9375,539.0469 109.2813,539.0469 Q109.9063,539.0469 110.5,538.7813 Q111.0938,538.5 111.7188,537.9219 L111.7188,540.6406 Z " fill="#000000"/><text fill="#000000" font-family="Verdana" font-size="14" lengthAdjust="spacing" textLength="31" x="126.25" y="539.8467">Post</text><line style="stroke:#000000;stroke-width:1.0;" x1="13" x2="243" y1="549" y2="549"/><text fill="#000000" font-family="Verdana" font-size="14" lengthAdjust="spacing" textLength="73" x="18" y="565.9951">+ID : UUID</text><text fill="#000000" font-family="Verdana" font-size="14" lengthAdjust="spacing" textLength="100" x="18" y="582.292">+Media : UUID</text><text fill="#000000" font-family="Verdana" font-size="14" lengthAdjust="spacing" textLength="198" x="18" y="598.5889">+CreationTime : TIMESTAMP</text><line style="stroke:#000000;stroke-width:1.0;" x1="13" x2="243" y1="605.8906" y2="605.8906"/><text fill="#000000" font-family="Verdana" font-size="14" lengthAdjust="spacing" textLength="220" x="18" y="622.8857">+MediaExtension : VARCHAR(7)</text><text fill="#000000" font-family="Verdana" font-size="14" lengthAdjust="spacing" textLength="194" x="18" y="639.1826">+Content : VARCHAR(1023)</text></g><!--MD5=[ef0783ae408c995dc8855cbad06794c9]
class Sticker--><g id="elem_Sticker"><rect codeLine="24" fill="#FFFFFF" height="109.1875" id="Sticker" rx="2.5" ry="2.5" style="stroke:#000000;stroke-width:1.0;" width="220" x="103" y="723"/><ellipse cx="185.75" cy="737" fill="#FFFFFF" rx="9" ry="9" style="stroke:#000000;stroke-width:1.0;"/><path d="M188.7188,742.6406 Q188.1406,742.9375 187.5,743.0781 Q186.8594,743.2344 186.1563,743.2344 Q183.6563,743.2344 182.3281,741.5938 Q181.0156,739.9375 181.0156,736.8125 Q181.0156,733.6875 182.3281,732.0313 Q183.6563,730.375 186.1563,730.375 Q186.8594,730.375 187.5,730.5313 Q188.1563,730.6875 188.7188,730.9844 L188.7188,733.7031 Q188.0938,733.125 187.5,732.8594 Q186.9063,732.5781 186.2813,732.5781 Q184.9375,732.5781 184.25,733.6563 Q183.5625,734.7188 183.5625,736.8125 Q183.5625,738.9063 184.25,739.9844 Q184.9375,741.0469 186.2813,741.0469 Q186.9063,741.0469 187.5,740.7813 Q188.0938,740.5 188.7188,739.9219 L188.7188,742.6406 Z " fill="#000000"/><text fill="#000000" font-family="Verdana" font-size="14" lengthAdjust="spacing" textLength="47" x="203.25" y="741.8467">Sticker</text><line style="stroke:#000000;stroke-width:1.0;" x1="104" x2="322" y1="751" y2="751"/><text fill="#000000" font-family="Verdana" font-size="14" lengthAdjust="spacing" textLength="73" x="109" y="767.9951">+ID : UUID</text><text fill="#000000" font-family="Verdana" font-size="14" lengthAdjust="spacing" textLength="198" x="109" y="784.292">+CreationTime : TIMESTAMP</text><line style="stroke:#000000;stroke-width:1.0;" x1="104" x2="322" y1="791.5938" y2="791.5938"/><text fill="#000000" font-family="Verdana" font-size="14" lengthAdjust="spacing" textLength="132" x="109" y="808.5889">+Name : CHAR(31)</text><text fill="#000000" font-family="Verdana" font-size="14" lengthAdjust="spacing" textLength="208" x="109" y="824.8857">+Description : VARCHAR(511)</text></g><!--MD5=[31cff31dc4665adce2a62b3f2e8d5ba6]
class Shoot--><g id="elem_Shoot"><rect codeLine="45" fill="#FFFFFF" height="60.2969" id="Shoot" rx="2.5" ry="2.5" style="stroke:#000000;stroke-width:1.0;" width="150" x="350" y="553.5"/><ellipse cx="400.75" cy="567.5" fill="#FFFFFF" rx="9" ry="9" style="stroke:#000000;stroke-width:1.0;"/><path d="M403.7188,573.1406 Q403.1406,573.4375 402.5,573.5781 Q401.8594,573.7344 401.1563,573.7344 Q398.6563,573.7344 397.3281,572.0938 Q396.0156,570.4375 396.0156,567.3125 Q396.0156,564.1875 397.3281,562.5313 Q398.6563,560.875 401.1563,560.875 Q401.8594,560.875 402.5,561.0313 Q403.1563,561.1875 403.7188,561.4844 L403.7188,564.2031 Q403.0938,563.625 402.5,563.3594 Q401.9063,563.0781 401.2813,563.0781 Q399.9375,563.0781 399.25,564.1563 Q398.5625,565.2188 398.5625,567.3125 Q398.5625,569.4063 399.25,570.4844 Q399.9375,571.5469 401.2813,571.5469 Q401.9063,571.5469 402.5,571.2813 Q403.0938,571 403.7188,570.4219 L403.7188,573.1406 Z " fill="#000000"/><text fill="#000000" font-family="Verdana" font-size="14" lengthAdjust="spacing" textLength="41" x="418.25" y="572.3467">Shoot</text><line style="stroke:#000000;stroke-width:1.0;" x1="351" x2="499" y1="581.5" y2="581.5"/><text fill="#000000" font-family="Verdana" font-size="14" lengthAdjust="spacing" textLength="138" x="356" y="598.4951">+Shot : TIMESTAMP</text><line style="stroke:#000000;stroke-width:1.0;" x1="351" x2="499" y1="605.7969" y2="605.7969"/></g><ellipse cx="425" cy="422" fill="#000000" rx="2" ry="2" style="stroke:none;stroke-width:1.0;"/><!--MD5=[2ca1536628238a7dc78c5d90808014f9]
class Session--><g id="elem_Session"><rect codeLine="61" fill="#FFFFFF" height="109.1875" id="Session" rx="2.5" ry="2.5" style="stroke:#000000;stroke-width:1.0;" width="210" x="221" y="12"/><ellipse cx="294.75" cy="26" fill="#FFFFFF" rx="9" ry="9" style="stroke:#000000;stroke-width:1.0;"/><path d="M297.7188,31.6406 Q297.1406,31.9375 296.5,32.0781 Q295.8594,32.2344 295.1563,32.2344 Q292.6563,32.2344 291.3281,30.5938 Q290.0156,28.9375 290.0156,25.8125 Q290.0156,22.6875 291.3281,21.0313 Q292.6563,19.375 295.1563,19.375 Q295.8594,19.375 296.5,19.5313 Q297.1563,19.6875 297.7188,19.9844 L297.7188,22.7031 Q297.0938,22.125 296.5,21.8594 Q295.9063,21.5781 295.2813,21.5781 Q293.9375,21.5781 293.25,22.6563 Q292.5625,23.7188 292.5625,25.8125 Q292.5625,27.9063 293.25,28.9844 Q293.9375,30.0469 295.2813,30.0469 Q295.9063,30.0469 296.5,29.7813 Q297.0938,29.5 297.7188,28.9219 L297.7188,31.6406 Z " fill="#000000"/><text fill="#000000" font-family="Verdana" font-size="14" lengthAdjust="spacing" textLength="55" x="312.25" y="30.8467">Session</text><line style="stroke:#000000;stroke-width:1.0;" x1="222" x2="430" y1="40" y2="40"/><text fill="#000000" font-family="Verdana" font-size="14" lengthAdjust="spacing" textLength="198" x="227" y="56.9951">+CreationTime : TIMESTAMP</text><text fill="#000000" font-family="Verdana" font-size="14" lengthAdjust="spacing" textLength="103" x="227" y="73.292">+Token : UUID</text><text fill="#000000" font-family="Verdana" font-size="14" lengthAdjust="spacing" textLength="163" x="227" y="89.5889">+ExpirationDate : DATE</text><line style="stroke:#000000;stroke-width:1.0;" x1="222" x2="430" y1="96.8906" y2="96.8906"/><text fill="#000000" font-family="Verdana" font-size="14" lengthAdjust="spacing" textLength="169" x="227" y="113.8857">+Name : VARCHAR(127)</text></g><!--MD5=[03da7ad6344b0b2c818a169ad3cc63fd]
class Permission--><g id="elem_Permission"><rect codeLine="71" fill="#FFFFFF" height="44" id="Permission" rx="2.5" ry="2.5" style="stroke:#000000;stroke-width:1.0;" width="104" x="539" y="400"/><ellipse cx="552" cy="414" fill="#FFFFFF" rx="9" ry="9" style="stroke:#000000;stroke-width:1.0;"/><path d="M554.9688,419.6406 Q554.3906,419.9375 553.75,420.0781 Q553.1094,420.2344 552.4063,420.2344 Q549.9063,420.2344 548.5781,418.5938 Q547.2656,416.9375 547.2656,413.8125 Q547.2656,410.6875 548.5781,409.0313 Q549.9063,407.375 552.4063,407.375 Q553.1094,407.375 553.75,407.5313 Q554.4063,407.6875 554.9688,407.9844 L554.9688,410.7031 Q554.3438,410.125 553.75,409.8594 Q553.1563,409.5781 552.5313,409.5781 Q551.1875,409.5781 550.5,410.6563 Q549.8125,411.7188 549.8125,413.8125 Q549.8125,415.9063 550.5,416.9844 Q551.1875,418.0469 552.5313,418.0469 Q553.1563,418.0469 553.75,417.7813 Q554.3438,417.5 554.9688,416.9219 L554.9688,419.6406 Z " fill="#000000"/><text fill="#000000" font-family="Verdana" font-size="14" lengthAdjust="spacing" textLength="76" x="564" y="418.8467">Permission</text><line style="stroke:#000000;stroke-width:1.0;" x1="540" x2="642" y1="428" y2="428"/><line style="stroke:#000000;stroke-width:1.0;" x1="540" x2="642" y1="436" y2="436"/></g><!--MD5=[824f41aef9b4ad21d38e6fc30e97298d]
class PermissionLevel--><g id="elem_PermissionLevel"><rect codeLine="80" fill="#FFFFFF" height="76.5938" id="PermissionLevel" rx="2.5" ry="2.5" style="stroke:#000000;stroke-width:1.0;" width="172" x="535" y="545"/><ellipse cx="562.85" cy="559" fill="#FFFFFF" rx="9" ry="9" style="stroke:#000000;stroke-width:1.0;"/><path d="M565.8188,564.6406 Q565.2406,564.9375 564.6,565.0781 Q563.9594,565.2344 563.2563,565.2344 Q560.7563,565.2344 559.4281,563.5938 Q558.1156,561.9375 558.1156,558.8125 Q558.1156,555.6875 559.4281,554.0313 Q560.7563,552.375 563.2563,552.375 Q563.9594,552.375 564.6,552.5313 Q565.2563,552.6875 565.8188,552.9844 L565.8188,555.7031 Q565.1938,555.125 564.6,554.8594 Q564.0063,554.5781 563.3813,554.5781 Q562.0375,554.5781 561.35,555.6563 Q560.6625,556.7188 560.6625,558.8125 Q560.6625,560.9063 561.35,561.9844 Q562.0375,563.0469 563.3813,563.0469 Q564.0063,563.0469 564.6,562.7813 Q565.1938,562.5 565.8188,561.9219 L565.8188,564.6406 Z " fill="#000000"/><text fill="#000000" font-family="Verdana" font-size="14" lengthAdjust="spacing" textLength="111" x="578.15" y="563.8467">PermissionLevel</text><line style="stroke:#000000;stroke-width:1.0;" x1="536" x2="706" y1="573" y2="573"/><text fill="#000000" font-family="Verdana" font-size="14" lengthAdjust="spacing" textLength="113" x="541" y="589.9951">+Level : TINYINT</text><line style="stroke:#000000;stroke-width:1.0;" x1="536" x2="706" y1="597.2969" y2="597.2969"/><text fill="#000000" font-family="Verdana" font-size="14" lengthAdjust="spacing" textLength="160" x="541" y="614.292">+Name : VARCHAR(15)</text></g><!--MD5=[378e3e2ca7e24a99f4479cd893fbde36]
class Like--><g id="elem_Like"><rect fill="#FFFFFF" height="44" id="Like" rx="2.5" ry="2.5" style="stroke:#000000;stroke-width:1.0;" width="55" x="55.5" y="400"/><ellipse cx="68.5" cy="414" fill="#FFFFFF" rx="9" ry="9" style="stroke:#000000;stroke-width:1.0;"/><path d="M71.4688,419.6406 Q70.8906,419.9375 70.25,420.0781 Q69.6094,420.2344 68.9063,420.2344 Q66.4063,420.2344 65.0781,418.5938 Q63.7656,416.9375 63.7656,413.8125 Q63.7656,410.6875 65.0781,409.0313 Q66.4063,407.375 68.9063,407.375 Q69.6094,407.375 70.25,407.5313 Q70.9063,407.6875 71.4688,407.9844 L71.4688,410.7031 Q70.8438,410.125 70.25,409.8594 Q69.6563,409.5781 69.0313,409.5781 Q67.6875,409.5781 67,410.6563 Q66.3125,411.7188 66.3125,413.8125 Q66.3125,415.9063 67,416.9844 Q67.6875,418.0469 69.0313,418.0469 Q69.6563,418.0469 70.25,417.7813 Q70.8438,417.5 71.4688,416.9219 L71.4688,419.6406 Z " fill="#000000"/><text fill="#000000" font-family="Verdana" font-size="14" lengthAdjust="spacing" textLength="27" x="80.5" y="418.8467">Like</text><line style="stroke:#000000;stroke-width:1.0;" x1="56.5" x2="109.5" y1="428" y2="428"/><line style="stroke:#000000;stroke-width:1.0;" x1="56.5" x2="109.5" y1="436" y2="436"/></g><ellipse cx="18" cy="422" fill="#000000" rx="2" ry="2" style="stroke:none;stroke-width:1.0;"/><!--MD5=[972bde5337b4335dd91fa5354c932445]
class Point--><g id="elem_Point"><rect codeLine="53" fill="#FFFFFF" height="60.2969" id="Point" rx="2.5" ry="2.5" style="stroke:#000000;stroke-width:1.0;" width="152" x="466" y="36.5"/><ellipse cx="520.75" cy="50.5" fill="#FFFFFF" rx="9" ry="9" style="stroke:#000000;stroke-width:1.0;"/><path d="M523.7188,56.1406 Q523.1406,56.4375 522.5,56.5781 Q521.8594,56.7344 521.1563,56.7344 Q518.6563,56.7344 517.3281,55.0938 Q516.0156,53.4375 516.0156,50.3125 Q516.0156,47.1875 517.3281,45.5313 Q518.6563,43.875 521.1563,43.875 Q521.8594,43.875 522.5,44.0313 Q523.1563,44.1875 523.7188,44.4844 L523.7188,47.2031 Q523.0938,46.625 522.5,46.3594 Q521.9063,46.0781 521.2813,46.0781 Q519.9375,46.0781 519.25,47.1563 Q518.5625,48.2188 518.5625,50.3125 Q518.5625,52.4063 519.25,53.4844 Q519.9375,54.5469 521.2813,54.5469 Q521.9063,54.5469 522.5,54.2813 Q523.0938,54 523.7188,53.4219 L523.7188,56.1406 Z " fill="#000000"/><text fill="#000000" font-family="Verdana" font-size="14" lengthAdjust="spacing" textLength="35" x="538.25" y="55.3467">Point</text><line style="stroke:#000000;stroke-width:1.0;" x1="467" x2="617" y1="64.5" y2="64.5"/><text fill="#000000" font-family="Verdana" font-size="14" lengthAdjust="spacing" textLength="140" x="472" y="81.4951">+Time : TIMESTAMP</text><line style="stroke:#000000;stroke-width:1.0;" x1="467" x2="617" y1="88.7969" y2="88.7969"/></g><!--MD5=[5c5e94069c7bfe916bd447c20bf9e8df]
link User to apoint160--><g id="link_User_apoint160"><path d="M332.8224,323.0742 C336.6734,339.3259 342.6711,356.1416 352,370 C371.4638,398.9141 412.7566,417.041 422.7756,421.121 " fill="none" id="User-apoint160" style="stroke:#000000;stroke-width:1.0;"/><polygon fill="#000000" points="360.3802,365.2507,356.431,356.5989,352.0998,360.5725,360.3802,365.2507" style="stroke:#000000;stroke-width:1.0;"/><text fill="#000000" font-family="Verdana" font-size="13" lengthAdjust="spacing" textLength="48" x="366" y="366.0669">aims at</text><text fill="#000000" font-family="Verdana" font-size="13" lengthAdjust="spacing" textLength="24" x="335.1164" y="343.66">0..n</text></g><!--MD5=[864162dddc3396b7173d5474f8b7f77d]
link apoint160 to User--><g id="link_apoint160_User"><path d="M425.309,419.9516 C426.5157,411.312 430.3076,377.1808 419,353 C414.0803,342.4796 407.4299,332.4797 399.9335,323.2105 " fill="none" id="apoint160-User" style="stroke:#000000;stroke-width:1.0;"/><text fill="#000000" font-family="Verdana" font-size="13" lengthAdjust="spacing" textLength="24" x="383.0946" y="343.3752">0..n</text></g><!--MD5=[fc29d2c640eeb870b029260f555c9991]
link apoint160 to Shoot--><g id="link_apoint160_Shoot"><path d="M425,424.042 C425,437.1869 425,510.6804 425,553.1586 " fill="none" id="apoint160-Shoot" style="stroke:#000000;stroke-width:1.0;stroke-dasharray:7.0,7.0;"/></g><!--MD5=[77c575690b0287b9077f2f97ff7c450d]
link User to Post--><g id="link_User_Post"><path codeLine="36" d="M266.3158,323.1152 C246.2133,346.1614 224.6748,373.2018 208,400 C184.3147,438.0647 164.186,484.362 150.0438,520.9294 " fill="none" id="User-Post" style="stroke:#000000;stroke-width:1.0;"/><polygon fill="#000000" points="210.4663,426.3769,217.5834,420.0684,212.5161,417.0899,210.4663,426.3769" style="stroke:#000000;stroke-width:1.0;"/><text fill="#000000" font-family="Verdana" font-size="13" lengthAdjust="spacing" textLength="48" x="222" y="426.5669">creates</text><text fill="#000000" font-family="Verdana" font-size="13" lengthAdjust="spacing" textLength="24" x="233.5793" y="343.706">1..1</text><text fill="#000000" font-family="Verdana" font-size="13" lengthAdjust="spacing" textLength="24" x="127.2051" y="509.8741">0..n</text></g><!--MD5=[ca4e51c2df119844c043e29d8f2dffda]
link User to Sticker--><g id="link_User_Sticker"><path codeLine="37" d="M320.8564,323.1003 C312.5664,408.4569 292.7567,565.3401 251,693 C247.7996,702.7845 243.8244,712.9579 239.6618,722.7144 " fill="none" id="User-Sticker" style="stroke:#000000;stroke-width:1.0;"/><polygon fill="#000000" points="305.0044,487.4663,309.6855,479.1875,303.9254,478.0171,305.0044,487.4663" style="stroke:#000000;stroke-width:1.0;"/><text fill="#000000" font-family="Verdana" font-size="13" lengthAdjust="spacing" textLength="48" x="315" y="487.0669">creates</text><text fill="#000000" font-family="Verdana" font-size="13" lengthAdjust="spacing" textLength="24" x="294.767" y="343.6892">1..1</text><text fill="#000000" font-family="Verdana" font-size="13" lengthAdjust="spacing" textLength="24" x="217.5403" y="711.7974">0..n</text></g><!--MD5=[b5776459882a3c2d26837e1f3ef5d47a]
link Post to Sticker--><g id="link_Post_Sticker"><path codeLine="38" d="M155.4797,646.2183 C166.296,670.9051 178.602,698.9916 189.0481,722.8333 " fill="none" id="Post-Sticker" style="stroke:#000000;stroke-width:1.0;"/><polygon fill="#000000" points="183.0066,689.1461,182.0685,679.6819,176.6848,682.0408,183.0066,689.1461" style="stroke:#000000;stroke-width:1.0;"/><text fill="#000000" font-family="Verdana" font-size="13" lengthAdjust="spacing" textLength="52" x="190" y="689.0669">includes</text><text fill="#000000" font-family="Verdana" font-size="13" lengthAdjust="spacing" textLength="24" x="133.2695" y="666.3839">0..n</text><text fill="#000000" font-family="Verdana" font-size="13" lengthAdjust="spacing" textLength="24" x="160.4418" y="711.9316">1..1</text></g><!--MD5=[f205aee3284cdd9814e4079314e77301]
link Session to User--><g id="link_Session_User"><path codeLine="40" d="M326,121.0561 C326,144.9272 326,173.0702 326,197.7995 " fill="none" id="Session-User" style="stroke:#000000;stroke-width:1.0;"/><polygon fill="#000000" points="331,164.5664,333.9389,155.5213,328.0611,155.5213,331,164.5664" style="stroke:#000000;stroke-width:1.0;"/><text fill="#000000" font-family="Verdana" font-size="13" lengthAdjust="spacing" textLength="88" x="340" y="164.0669">authenticates</text><text fill="#000000" font-family="Verdana" font-size="13" lengthAdjust="spacing" textLength="24" x="300.4625" y="141.0704">1..n</text><text fill="#000000" font-family="Verdana" font-size="13" lengthAdjust="spacing" textLength="24" x="300.6125" y="186.7291">1..1</text></g><!--MD5=[89a62da2735d54243defda06c2c07ac3]
link User to Permission--><g id="link_User_Permission"><path codeLine="41" d="M428.8352,323.1713 C473.2089,350.2141 522.2617,380.1085 554.6723,399.8606 " fill="none" id="User-Permission" style="stroke:#000000;stroke-width:1.0;"/><polygon fill="#000000" points="515.2696,364.1684,509.0753,356.9517,506.0164,361.9709,515.2696,364.1684" style="stroke:#000000;stroke-width:1.0;"/><text fill="#000000" font-family="Verdana" font-size="13" lengthAdjust="spacing" textLength="23" x="520" y="366.0669">has</text><text fill="#000000" font-family="Verdana" font-size="13" lengthAdjust="spacing" textLength="24" x="415.9057" y="343.7689">0..n</text><text fill="#000000" font-family="Verdana" font-size="13" lengthAdjust="spacing" textLength="24" x="517.6842" y="388.9798">0..1</text></g><!--MD5=[4e7cf63e4f3ace4f20ff7d029fc88342]
link Permission to PermissionLevel--><g id="link_Permission_PermissionLevel"><path codeLine="42" d="M595.1085,444.1173 C599.9227,470.0337 607.9844,513.4326 613.8351,544.929 " fill="none" id="Permission-PermissionLevel" style="stroke:#000000;stroke-width:1.0;"/><polygon fill="#000000" points="608.9132,487.4823,610.1507,478.0526,604.3717,479.1261,608.9132,487.4823" style="stroke:#000000;stroke-width:1.0;"/><text fill="#000000" font-family="Verdana" font-size="13" lengthAdjust="spacing" textLength="44" x="617" y="487.0669">means</text><text fill="#000000" font-family="Verdana" font-size="13" lengthAdjust="spacing" textLength="24" x="568.9877" y="464.1617">1..1</text><text fill="#000000" font-family="Verdana" font-size="13" lengthAdjust="spacing" textLength="24" x="586.4214" y="533.8375">1..1</text></g><!--MD5=[1ff661e0c295133f29a6dec8df34ffc7]
link User to apoint176--><g id="link_User_apoint176"><path d="M220.7712,302.0793 C185.6234,316.9917 146.6083,334.677 112,353 C77.5664,371.2305 67.8143,374.9174 38,400 C30.1002,406.6461 22.3368,416.3354 19.3183,420.2564 " fill="none" id="User-apoint176" style="stroke:#000000;stroke-width:1.0;"/><polygon fill="#000000" points="112.6873,364.0963,121.9761,362.0546,119.002,356.9847,112.6873,364.0963" style="stroke:#000000;stroke-width:1.0;"/><text fill="#000000" font-family="Verdana" font-size="13" lengthAdjust="spacing" textLength="28" x="126" y="366.0669">likes</text><text fill="#000000" font-family="Verdana" font-size="13" lengthAdjust="spacing" textLength="24" x="188.8949" y="301.4241">0..n</text></g><!--MD5=[9bc0dd3fa7e4eed904a2dd1d83c7338d]
link apoint176 to Post--><g id="link_apoint176_Post"><path d="M19.2354,423.8137 C25.8443,433.5169 57.7532,480.3649 85.3137,520.8287 " fill="none" id="apoint176-Post" style="stroke:#000000;stroke-width:1.0;"/><text fill="#000000" font-family="Verdana" font-size="13" lengthAdjust="spacing" textLength="24" x="54.9906" y="509.7617">0..n</text></g><!--MD5=[9e50fde820f925fa5211edd1cf44ffe8]
link apoint176 to Like--><g id="link_apoint176_Like"><path d="M20.0313,422 C31.8379,422 43.6445,422 55.4512,422 " fill="none" id="apoint176-Like" style="stroke:#000000;stroke-width:1.0;stroke-dasharray:7.0,7.0;"/></g><!--MD5=[09d292675e4966a82b89fbce6bb44882]
@startuml
!theme plain
skinparam ClassAttributeIconSize 0

class User{
    + ID : UUID
    + Handle : CHAR(31)
    + Name : VARCHAR(63)
    + Password : CHAR(128)
    + CreationTime : TIMESTAMP
}

class Post{
    + ID : UUID
    /'
    /+ CreatorID : UUID
    /+ StickerID : UUID
    '/
    + Media : UUID
    + MediaExtension : VARCHAR(7)
    + Content : VARCHAR(1023)
    + CreationTime : TIMESTAMP
}

class Sticker{
    + ID : UUID
    + Name : CHAR(31)
    /'
    /+ CreatorID : UUID
    '/
    + Description : VARCHAR(511)
    + CreationTime : TIMESTAMP
}

User "0..n" - - "0..n" User : aims at >
(User, User) . Shoot
User "1..1" - - "0..n" Post : creates >
User "1..1" - - "0..n" Sticker : creates >
Post "0..n" - - "1..1" Sticker : includes >
User "0..n" - - "0..n" Post : likes >
Session "1..n" - - "1..1" User : authenticates >
User "0..n" - - "0..1" Permission : has >
Permission "1..1" - - "1..1" PermissionLevel : means >
(User, Post) . Like

class Shoot{
    /'
    /+ Target : UUID
    /+ Archer : UUID
    '/
    + Shot : TIMESTAMP
}

class Point{
    /'
    /+ PostID : UUID
    /+ UserID : UUID
    '/
    + Time : TIMESTAMP
}

class Session{
    /'
    /+ UserID : UUID
    '/
    + CreationTime : TIMESTAMP
    + Name : VARCHAR(127)
    + Token : UUID
    + ExpirationDate : DATE
}

class Permission{
    /'
    /+ UserID : UUID
    '/
    /'
    /+ Level : TINYINT
    '/
}

class PermissionLevel{
    + Level : TINYINT
    + Name : VARCHAR(15)
}
@enduml

@startuml







<style>
  root {
    BackgroundColor white
    FontColor black
    FontName Verdana
    HyperLinkColor blue
    LineColor black
    LineThickness 1
    Margin 5
  }
  caption {
    LineThickness 0
  }
  footer {
    LineThickness 0
  }
  header {
    LineThickness 0
  }
  node {
    MaximumWidth 300
  }
  title {
    FontSize 22
    LineThickness 0
  }
</style>

skinparam ArrowLollipopColor black
skinparam BackgroundColor white
skinparam DefaultFontName Verdana
skinparam DefaultMonospacedFontName Courier
skinparam LifelineStrategy nosolid
skinparam ParticipantPadding 10
skinparam SequenceLifeLineBorderColor black
skinparam Shadowing false
skinparam UseBetaStyle true

skinparam Activity {
  BackgroundColor white
  BarColor black
  BorderColor black
  FontColor black
  FontName Verdana
}
skinparam Boundary {
  FontColor black
}
skinparam Box {
  Padding 5
}
skinparam CircledCharacter {
  FontColor black
  FontName Courier
  Radius 9
}
skinparam Class {
  BackgroundColor white
  BorderColor black
  FontColor black
  FontName Verdana
}
skinparam ClassAttribute {
  FontColor black
  FontName Verdana
}
skinparam ClassStereotype {
  FontColor black
  FontName Verdana
}
skinparam Footer {
  FontColor black
  FontName Verdana
}
skinparam Header {
  FontColor black
  FontName Verdana
}
skinparam Hyperlink {
  Color blue
}
skinparam IconPackage {
  Color black
  BackgroundColor white
}
skinparam IconPrivate {
  Color black
  BackgroundColor white
}
skinparam IconProtected {
  Color black
  BackgroundColor white
}
skinparam IconPublic {
  Color black
  BackgroundColor white
}
skinparam Note {
  FontColor black
  FontName Verdana
}
skinparam Object {
  BorderColor black
}
skinparam Package {
  BorderColor black
  FontColor black
  FontName Verdana
}
skinparam State {
  BackgroundColor white
  BorderColor black
}
skinparam StereotypeA {
  BackgroundColor white
  BorderColor black
}
skinparam StereotypeC {
  BackgroundColor white
  BorderColor black
}
skinparam StereotypeE {
  BackgroundColor white
  BorderColor black
}
skinparam StereotypeI {
  BackgroundColor white
  BorderColor black
}
skinparam StereotypeN {
  BackgroundColor white
  BorderColor black
}
skinparam UseCaseStereoType {
  FontColor black
  FontName Verdana
}
skinparam ClassAttributeIconSize 0

class User{
    + ID : UUID
    + Handle : CHAR(31)
    + Name : VARCHAR(63)
    + Password : CHAR(128)
    + CreationTime : TIMESTAMP
}

class Post{
    + ID : UUID
    + Media : UUID
    + MediaExtension : VARCHAR(7)
    + Content : VARCHAR(1023)
    + CreationTime : TIMESTAMP
}

class Sticker{
    + ID : UUID
    + Name : CHAR(31)
    + Description : VARCHAR(511)
    + CreationTime : TIMESTAMP
}

User "0..n" - - "0..n" User : aims at >
(User, User) . Shoot
User "1..1" - - "0..n" Post : creates >
User "1..1" - - "0..n" Sticker : creates >
Post "0..n" - - "1..1" Sticker : includes >
User "0..n" - - "0..n" Post : likes >
Session "1..n" - - "1..1" User : authenticates >
User "0..n" - - "0..1" Permission : has >
Permission "1..1" - - "1..1" PermissionLevel : means >
(User, Post) . Like

class Shoot{
    + Shot : TIMESTAMP
}

class Point{
    + Time : TIMESTAMP
}

class Session{
    + CreationTime : TIMESTAMP
    + Name : VARCHAR(127)
    + Token : UUID
    + ExpirationDate : DATE
}

class Permission{
}

class PermissionLevel{
    + Level : TINYINT
    + Name : VARCHAR(15)
}
@enduml

PlantUML version 1.2022.2(Sat Mar 05 17:30:19 CET 2022)
(GPLV2 source distribution)
Java Runtime: OpenJDK Runtime Environment
JVM: OpenJDK 64-Bit Server VM
Default Encoding: UTF-8
Language: de
Country: DE
--></g></svg>