<?xml version="1.0" encoding="UTF-8" standalone="no"?>
<svg xmlns="http://www.w3.org/2000/svg" xmlns:xlink="http://www.w3.org/1999/xlink" contentStyleType="text/css" height="855px" preserveAspectRatio="none" style="width:805px;height:855px;background:#FFFFFF;" version="1.1" viewBox="0 0 805 855" width="805px" zoomAndPan="magnify"><defs/><g><!--MD5=[3fd616f346a44cd59a91eb10b19e157c]
class User--><g id="elem_User"><rect codeLine="4" fill="#FFFFFF" height="125.4844" id="User" rx="2.5" ry="2.5" style="stroke:#000000;stroke-width:1.0;" width="210" x="312" y="198"/><ellipse cx="397.25" cy="212" fill="#FFFFFF" rx="9" ry="9" style="stroke:#000000;stroke-width:1.0;"/><path d="M400.2188,217.6406 Q399.6406,217.9375 399,218.0781 Q398.3594,218.2344 397.6563,218.2344 Q395.1563,218.2344 393.8281,216.5938 Q392.5156,214.9375 392.5156,211.8125 Q392.5156,208.6875 393.8281,207.0313 Q395.1563,205.375 397.6563,205.375 Q398.3594,205.375 399,205.5313 Q399.6563,205.6875 400.2188,205.9844 L400.2188,208.7031 Q399.5938,208.125 399,207.8594 Q398.4063,207.5781 397.7813,207.5781 Q396.4375,207.5781 395.75,208.6563 Q395.0625,209.7188 395.0625,211.8125 Q395.0625,213.9063 395.75,214.9844 Q396.4375,216.0469 397.7813,216.0469 Q398.4063,216.0469 399,215.7813 Q399.5938,215.5 400.2188,214.9219 L400.2188,217.6406 Z " fill="#000000"/><text fill="#000000" font-family="Verdana" font-size="14" lengthAdjust="spacing" textLength="32" x="414.75" y="216.8467">User</text><line style="stroke:#000000;stroke-width:1.0;" x1="313" x2="521" y1="226" y2="226"/><text fill="#000000" font-family="Verdana" font-size="14" lengthAdjust="spacing" textLength="73" x="318" y="242.9951">+ID : UUID</text><text fill="#000000" font-family="Verdana" font-size="14" lengthAdjust="spacing" textLength="198" x="318" y="259.292">+CreationTime : TIMESTAMP</text><line style="stroke:#000000;stroke-width:1.0;" x1="313" x2="521" y1="266.5938" y2="266.5938"/><text fill="#000000" font-family="Verdana" font-size="14" lengthAdjust="spacing" textLength="140" x="318" y="283.5889">+Handle : CHAR(31)</text><text fill="#000000" font-family="Verdana" font-size="14" lengthAdjust="spacing" textLength="160" x="318" y="299.8857">+Name : VARCHAR(63)</text><text fill="#000000" font-family="Verdana" font-size="14" lengthAdjust="spacing" textLength="168" x="318" y="316.1826">+Password : CHAR(128)</text></g><!--MD5=[9bb0bdd047fba1a3c8d48282c35b4537]
class Post--><g id="elem_Post"><rect codeLine="12" fill="#FFFFFF" height="125.4844" id="Post" rx="2.5" ry="2.5" style="stroke:#000000;stroke-width:1.0;" width="232" x="103" y="537"/><ellipse cx="199.75" cy="551" fill="#FFFFFF" rx="9" ry="9" style="stroke:#000000;stroke-width:1.0;"/><path d="M202.7188,556.6406 Q202.1406,556.9375 201.5,557.0781 Q200.8594,557.2344 200.1563,557.2344 Q197.6563,557.2344 196.3281,555.5938 Q195.0156,553.9375 195.0156,550.8125 Q195.0156,547.6875 196.3281,546.0313 Q197.6563,544.375 200.1563,544.375 Q200.8594,544.375 201.5,544.5313 Q202.1563,544.6875 202.7188,544.9844 L202.7188,547.7031 Q202.0938,547.125 201.5,546.8594 Q200.9063,546.5781 200.2813,546.5781 Q198.9375,546.5781 198.25,547.6563 Q197.5625,548.7188 197.5625,550.8125 Q197.5625,552.9063 198.25,553.9844 Q198.9375,555.0469 200.2813,555.0469 Q200.9063,555.0469 201.5,554.7813 Q202.0938,554.5 202.7188,553.9219 L202.7188,556.6406 Z " fill="#000000"/><text fill="#000000" font-family="Verdana" font-size="14" lengthAdjust="spacing" textLength="31" x="217.25" y="555.8467">Post</text><line style="stroke:#000000;stroke-width:1.0;" x1="104" x2="334" y1="565" y2="565"/><text fill="#000000" font-family="Verdana" font-size="14" lengthAdjust="spacing" textLength="73" x="109" y="581.9951">+ID : UUID</text><text fill="#000000" font-family="Verdana" font-size="14" lengthAdjust="spacing" textLength="100" x="109" y="598.292">+Media : UUID</text><text fill="#000000" font-family="Verdana" font-size="14" lengthAdjust="spacing" textLength="198" x="109" y="614.5889">+CreationTime : TIMESTAMP</text><line style="stroke:#000000;stroke-width:1.0;" x1="104" x2="334" y1="621.8906" y2="621.8906"/><text fill="#000000" font-family="Verdana" font-size="14" lengthAdjust="spacing" textLength="220" x="109" y="638.8857">+MediaExtension : VARCHAR(7)</text><text fill="#000000" font-family="Verdana" font-size="14" lengthAdjust="spacing" textLength="194" x="109" y="655.1826">+Content : VARCHAR(4095)</text></g><!--MD5=[ef0783ae408c995dc8855cbad06794c9]
class Sticker--><g id="elem_Sticker"><rect codeLine="24" fill="#FFFFFF" height="109.1875" id="Sticker" rx="2.5" ry="2.5" style="stroke:#000000;stroke-width:1.0;" width="220" x="194" y="739"/><ellipse cx="276.75" cy="753" fill="#FFFFFF" rx="9" ry="9" style="stroke:#000000;stroke-width:1.0;"/><path d="M279.7188,758.6406 Q279.1406,758.9375 278.5,759.0781 Q277.8594,759.2344 277.1563,759.2344 Q274.6563,759.2344 273.3281,757.5938 Q272.0156,755.9375 272.0156,752.8125 Q272.0156,749.6875 273.3281,748.0313 Q274.6563,746.375 277.1563,746.375 Q277.8594,746.375 278.5,746.5313 Q279.1563,746.6875 279.7188,746.9844 L279.7188,749.7031 Q279.0938,749.125 278.5,748.8594 Q277.9063,748.5781 277.2813,748.5781 Q275.9375,748.5781 275.25,749.6563 Q274.5625,750.7188 274.5625,752.8125 Q274.5625,754.9063 275.25,755.9844 Q275.9375,757.0469 277.2813,757.0469 Q277.9063,757.0469 278.5,756.7813 Q279.0938,756.5 279.7188,755.9219 L279.7188,758.6406 Z " fill="#000000"/><text fill="#000000" font-family="Verdana" font-size="14" lengthAdjust="spacing" textLength="47" x="294.25" y="757.8467">Sticker</text><line style="stroke:#000000;stroke-width:1.0;" x1="195" x2="413" y1="767" y2="767"/><text fill="#000000" font-family="Verdana" font-size="14" lengthAdjust="spacing" textLength="73" x="200" y="783.9951">+ID : UUID</text><text fill="#000000" font-family="Verdana" font-size="14" lengthAdjust="spacing" textLength="198" x="200" y="800.292">+CreationTime : TIMESTAMP</text><line style="stroke:#000000;stroke-width:1.0;" x1="195" x2="413" y1="807.5938" y2="807.5938"/><text fill="#000000" font-family="Verdana" font-size="14" lengthAdjust="spacing" textLength="132" x="200" y="824.5889">+Name : CHAR(31)</text><text fill="#000000" font-family="Verdana" font-size="14" lengthAdjust="spacing" textLength="208" x="200" y="840.8857">+Description : VARCHAR(511)</text></g><!--MD5=[31cff31dc4665adce2a62b3f2e8d5ba6]
class Shoot--><g id="elem_Shoot"><rect codeLine="45" fill="#FFFFFF" height="60.2969" id="Shoot" rx="2.5" ry="2.5" style="stroke:#000000;stroke-width:1.0;" width="150" x="441" y="569.5"/><ellipse cx="491.75" cy="583.5" fill="#FFFFFF" rx="9" ry="9" style="stroke:#000000;stroke-width:1.0;"/><path d="M494.7188,589.1406 Q494.1406,589.4375 493.5,589.5781 Q492.8594,589.7344 492.1563,589.7344 Q489.6563,589.7344 488.3281,588.0938 Q487.0156,586.4375 487.0156,583.3125 Q487.0156,580.1875 488.3281,578.5313 Q489.6563,576.875 492.1563,576.875 Q492.8594,576.875 493.5,577.0313 Q494.1563,577.1875 494.7188,577.4844 L494.7188,580.2031 Q494.0938,579.625 493.5,579.3594 Q492.9063,579.0781 492.2813,579.0781 Q490.9375,579.0781 490.25,580.1563 Q489.5625,581.2188 489.5625,583.3125 Q489.5625,585.4063 490.25,586.4844 Q490.9375,587.5469 492.2813,587.5469 Q492.9063,587.5469 493.5,587.2813 Q494.0938,587 494.7188,586.4219 L494.7188,589.1406 Z " fill="#000000"/><text fill="#000000" font-family="Verdana" font-size="14" lengthAdjust="spacing" textLength="41" x="509.25" y="588.3467">Shoot</text><line style="stroke:#000000;stroke-width:1.0;" x1="442" x2="590" y1="597.5" y2="597.5"/><text fill="#000000" font-family="Verdana" font-size="14" lengthAdjust="spacing" textLength="138" x="447" y="614.4951">+Shot : TIMESTAMP</text><line style="stroke:#000000;stroke-width:1.0;" x1="442" x2="590" y1="621.7969" y2="621.7969"/></g><ellipse cx="516" cy="430" fill="#000000" rx="2" ry="2" style="stroke:none;stroke-width:1.0;"/><!--MD5=[2ca1536628238a7dc78c5d90808014f9]
class Session--><g id="elem_Session"><rect codeLine="61" fill="#FFFFFF" height="109.1875" id="Session" rx="2.5" ry="2.5" style="stroke:#000000;stroke-width:1.0;" width="210" x="312" y="12"/><ellipse cx="385.75" cy="26" fill="#FFFFFF" rx="9" ry="9" style="stroke:#000000;stroke-width:1.0;"/><path d="M388.7188,31.6406 Q388.1406,31.9375 387.5,32.0781 Q386.8594,32.2344 386.1563,32.2344 Q383.6563,32.2344 382.3281,30.5938 Q381.0156,28.9375 381.0156,25.8125 Q381.0156,22.6875 382.3281,21.0313 Q383.6563,19.375 386.1563,19.375 Q386.8594,19.375 387.5,19.5313 Q388.1563,19.6875 388.7188,19.9844 L388.7188,22.7031 Q388.0938,22.125 387.5,21.8594 Q386.9063,21.5781 386.2813,21.5781 Q384.9375,21.5781 384.25,22.6563 Q383.5625,23.7188 383.5625,25.8125 Q383.5625,27.9063 384.25,28.9844 Q384.9375,30.0469 386.2813,30.0469 Q386.9063,30.0469 387.5,29.7813 Q388.0938,29.5 388.7188,28.9219 L388.7188,31.6406 Z " fill="#000000"/><text fill="#000000" font-family="Verdana" font-size="14" lengthAdjust="spacing" textLength="55" x="403.25" y="30.8467">Session</text><line style="stroke:#000000;stroke-width:1.0;" x1="313" x2="521" y1="40" y2="40"/><text fill="#000000" font-family="Verdana" font-size="14" lengthAdjust="spacing" textLength="198" x="318" y="56.9951">+CreationTime : TIMESTAMP</text><text fill="#000000" font-family="Verdana" font-size="14" lengthAdjust="spacing" textLength="103" x="318" y="73.292">+Token : UUID</text><text fill="#000000" font-family="Verdana" font-size="14" lengthAdjust="spacing" textLength="163" x="318" y="89.5889">+ExpirationDate : DATE</text><line style="stroke:#000000;stroke-width:1.0;" x1="313" x2="521" y1="96.8906" y2="96.8906"/><text fill="#000000" font-family="Verdana" font-size="14" lengthAdjust="spacing" textLength="169" x="318" y="113.8857">+Name : VARCHAR(127)</text></g><!--MD5=[03da7ad6344b0b2c818a169ad3cc63fd]
class Permission--><g id="elem_Permission"><rect codeLine="71" fill="#FFFFFF" height="44" id="Permission" rx="2.5" ry="2.5" style="stroke:#000000;stroke-width:1.0;" width="104" x="606" y="408"/><ellipse cx="619" cy="422" fill="#FFFFFF" rx="9" ry="9" style="stroke:#000000;stroke-width:1.0;"/><path d="M621.9688,427.6406 Q621.3906,427.9375 620.75,428.0781 Q620.1094,428.2344 619.4063,428.2344 Q616.9063,428.2344 615.5781,426.5938 Q614.2656,424.9375 614.2656,421.8125 Q614.2656,418.6875 615.5781,417.0313 Q616.9063,415.375 619.4063,415.375 Q620.1094,415.375 620.75,415.5313 Q621.4063,415.6875 621.9688,415.9844 L621.9688,418.7031 Q621.3438,418.125 620.75,417.8594 Q620.1563,417.5781 619.5313,417.5781 Q618.1875,417.5781 617.5,418.6563 Q616.8125,419.7188 616.8125,421.8125 Q616.8125,423.9063 617.5,424.9844 Q618.1875,426.0469 619.5313,426.0469 Q620.1563,426.0469 620.75,425.7813 Q621.3438,425.5 621.9688,424.9219 L621.9688,427.6406 Z " fill="#000000"/><text fill="#000000" font-family="Verdana" font-size="14" lengthAdjust="spacing" textLength="76" x="631" y="426.8467">Permission</text><line style="stroke:#000000;stroke-width:1.0;" x1="607" x2="709" y1="436" y2="436"/><line style="stroke:#000000;stroke-width:1.0;" x1="607" x2="709" y1="444" y2="444"/></g><!--MD5=[824f41aef9b4ad21d38e6fc30e97298d]
class PermissionLevel--><g id="elem_PermissionLevel"><rect codeLine="80" fill="#FFFFFF" height="76.5938" id="PermissionLevel" rx="2.5" ry="2.5" style="stroke:#000000;stroke-width:1.0;" width="172" x="626" y="561"/><ellipse cx="653.85" cy="575" fill="#FFFFFF" rx="9" ry="9" style="stroke:#000000;stroke-width:1.0;"/><path d="M656.8188,580.6406 Q656.2406,580.9375 655.6,581.0781 Q654.9594,581.2344 654.2563,581.2344 Q651.7563,581.2344 650.4281,579.5938 Q649.1156,577.9375 649.1156,574.8125 Q649.1156,571.6875 650.4281,570.0313 Q651.7563,568.375 654.2563,568.375 Q654.9594,568.375 655.6,568.5313 Q656.2563,568.6875 656.8188,568.9844 L656.8188,571.7031 Q656.1938,571.125 655.6,570.8594 Q655.0063,570.5781 654.3813,570.5781 Q653.0375,570.5781 652.35,571.6563 Q651.6625,572.7188 651.6625,574.8125 Q651.6625,576.9063 652.35,577.9844 Q653.0375,579.0469 654.3813,579.0469 Q655.0063,579.0469 655.6,578.7813 Q656.1938,578.5 656.8188,577.9219 L656.8188,580.6406 Z " fill="#000000"/><text fill="#000000" font-family="Verdana" font-size="14" lengthAdjust="spacing" textLength="111" x="669.15" y="579.8467">PermissionLevel</text><line style="stroke:#000000;stroke-width:1.0;" x1="627" x2="797" y1="589" y2="589"/><text fill="#000000" font-family="Verdana" font-size="14" lengthAdjust="spacing" textLength="113" x="632" y="605.9951">+Level : TINYINT</text><line style="stroke:#000000;stroke-width:1.0;" x1="627" x2="797" y1="613.2969" y2="613.2969"/><text fill="#000000" font-family="Verdana" font-size="14" lengthAdjust="spacing" textLength="160" x="632" y="630.292">+Name : VARCHAR(15)</text></g><!--MD5=[972bde5337b4335dd91fa5354c932445]
class Point--><g id="elem_Point"><rect codeLine="53" fill="#FFFFFF" height="60.2969" id="Point" rx="2.5" ry="2.5" style="stroke:#000000;stroke-width:1.0;" width="152" x="50" y="400"/><ellipse cx="104.75" cy="414" fill="#FFFFFF" rx="9" ry="9" style="stroke:#000000;stroke-width:1.0;"/><path d="M107.7188,419.6406 Q107.1406,419.9375 106.5,420.0781 Q105.8594,420.2344 105.1563,420.2344 Q102.6563,420.2344 101.3281,418.5938 Q100.0156,416.9375 100.0156,413.8125 Q100.0156,410.6875 101.3281,409.0313 Q102.6563,407.375 105.1563,407.375 Q105.8594,407.375 106.5,407.5313 Q107.1563,407.6875 107.7188,407.9844 L107.7188,410.7031 Q107.0938,410.125 106.5,409.8594 Q105.9063,409.5781 105.2813,409.5781 Q103.9375,409.5781 103.25,410.6563 Q102.5625,411.7188 102.5625,413.8125 Q102.5625,415.9063 103.25,416.9844 Q103.9375,418.0469 105.2813,418.0469 Q105.9063,418.0469 106.5,417.7813 Q107.0938,417.5 107.7188,416.9219 L107.7188,419.6406 Z " fill="#000000"/><text fill="#000000" font-family="Verdana" font-size="14" lengthAdjust="spacing" textLength="35" x="122.25" y="418.8467">Point</text><line style="stroke:#000000;stroke-width:1.0;" x1="51" x2="201" y1="428" y2="428"/><text fill="#000000" font-family="Verdana" font-size="14" lengthAdjust="spacing" textLength="140" x="56" y="444.9951">+Time : TIMESTAMP</text><line style="stroke:#000000;stroke-width:1.0;" x1="51" x2="201" y1="452.2969" y2="452.2969"/></g><ellipse cx="13" cy="430" fill="#000000" rx="2" ry="2" style="stroke:none;stroke-width:1.0;"/><!--MD5=[36916c5351e9db4ad039df87bed691cf]
link User to apoint33--><g id="link_User_apoint33"><path d="M424.602,323.2274 C428.4546,339.3036 434.2582,355.9938 443,370 C462.4568,401.1738 503.7548,423.731 513.7753,428.8831 " fill="none" id="User-apoint33" style="stroke:#000000;stroke-width:1.0;"/><polygon fill="#000000" points="451.2249,365.3874,447.6369,356.5796,443.1451,360.3707,451.2249,365.3874" style="stroke:#000000;stroke-width:1.0;"/><text fill="#000000" font-family="Verdana" font-size="13" lengthAdjust="spacing" textLength="48" x="457" y="366.0669">aims at</text><text fill="#000000" font-family="Verdana" font-size="13" lengthAdjust="spacing" textLength="24" x="426.8685" y="343.394">0..n</text></g><!--MD5=[9d30f8c22fff34a7f3740e9de52abac2]
link apoint33 to User--><g id="link_apoint33_User"><path d="M516.3328,427.9694 C517.7439,418.7692 522.6007,380.2642 510,353 C505.1276,342.4576 498.5056,332.4445 491.0244,323.1683 " fill="none" id="apoint33-User" style="stroke:#000000;stroke-width:1.0;"/><text fill="#000000" font-family="Verdana" font-size="13" lengthAdjust="spacing" textLength="24" x="474.5836" y="343.7655">0..n</text></g><!--MD5=[9025911e84a39b19a147f2808bdee63c]
link apoint33 to Shoot--><g id="link_apoint33_Shoot"><path d="M516,432.1431 C516,446.1308 516,525.2281 516,569.4942 " fill="none" id="apoint33-Shoot" style="stroke:#000000;stroke-width:1.0;stroke-dasharray:7.0,7.0;"/></g><!--MD5=[77c575690b0287b9077f2f97ff7c450d]
link User to Post--><g id="link_User_Post"><path codeLine="36" d="M356.563,323.1878 C336.5082,346.134 315.1925,373.0926 299,400 C273.0244,443.1639 252.1977,496.2827 238.3129,536.8534 " fill="none" id="User-Post" style="stroke:#000000;stroke-width:1.0;"/><polygon fill="#000000" points="301.5789,434.4411,308.5301,427.9503,303.3873,425.1041,301.5789,434.4411" style="stroke:#000000;stroke-width:1.0;"/><text fill="#000000" font-family="Verdana" font-size="13" lengthAdjust="spacing" textLength="48" x="313" y="434.5669">creates</text><text fill="#000000" font-family="Verdana" font-size="13" lengthAdjust="spacing" textLength="24" x="324.1875" y="343.3498">1..1</text><text fill="#000000" font-family="Verdana" font-size="13" lengthAdjust="spacing" textLength="24" x="215.1585" y="525.7893">0..n</text></g><!--MD5=[ca4e51c2df119844c043e29d8f2dffda]
link User to Sticker--><g id="link_User_Sticker"><path codeLine="37" d="M407.8165,323.2561 C396.0088,402.4138 374.3493,542.6207 352,662 C348.0701,682.9918 348.6394,688.7018 342,709 C338.7996,718.7845 334.8244,728.9579 330.6618,738.7144 " fill="none" id="User-Sticker" style="stroke:#000000;stroke-width:1.0;"/><polygon fill="#000000" points="386.0871,503.4824,390.6281,495.1259,384.8491,494.0527,386.0871,503.4824" style="stroke:#000000;stroke-width:1.0;"/><text fill="#000000" font-family="Verdana" font-size="13" lengthAdjust="spacing" textLength="48" x="396" y="503.0669">creates</text><text fill="#000000" font-family="Verdana" font-size="13" lengthAdjust="spacing" textLength="24" x="381.3672" y="343.426">1..1</text><text fill="#000000" font-family="Verdana" font-size="13" lengthAdjust="spacing" textLength="24" x="308.5403" y="727.7974">0..n</text></g><!--MD5=[b5776459882a3c2d26837e1f3ef5d47a]
link Post to Sticker--><g id="link_Post_Sticker"><path codeLine="38" d="M246.4797,662.2183 C257.296,686.9051 269.602,714.9916 280.0481,738.8333 " fill="none" id="Post-Sticker" style="stroke:#000000;stroke-width:1.0;"/><polygon fill="#000000" points="274.0066,705.1461,273.0685,695.6819,267.6848,698.0408,274.0066,705.1461" style="stroke:#000000;stroke-width:1.0;"/><text fill="#000000" font-family="Verdana" font-size="13" lengthAdjust="spacing" textLength="52" x="281" y="705.0669">includes</text><text fill="#000000" font-family="Verdana" font-size="13" lengthAdjust="spacing" textLength="24" x="224.2695" y="682.3839">0..n</text><text fill="#000000" font-family="Verdana" font-size="13" lengthAdjust="spacing" textLength="24" x="251.4418" y="727.9316">1..1</text></g><!--MD5=[f205aee3284cdd9814e4079314e77301]
link Session to User--><g id="link_Session_User"><path codeLine="40" d="M417,121.0561 C417,144.9272 417,173.0702 417,197.7995 " fill="none" id="Session-User" style="stroke:#000000;stroke-width:1.0;"/><polygon fill="#000000" points="422,164.5664,424.9389,155.5213,419.0611,155.5213,422,164.5664" style="stroke:#000000;stroke-width:1.0;"/><text fill="#000000" font-family="Verdana" font-size="13" lengthAdjust="spacing" textLength="88" x="431" y="164.0669">authenticates</text><text fill="#000000" font-family="Verdana" font-size="13" lengthAdjust="spacing" textLength="24" x="391.4625" y="141.0704">1..n</text><text fill="#000000" font-family="Verdana" font-size="13" lengthAdjust="spacing" textLength="24" x="391.6125" y="186.7291">1..1</text></g><!--MD5=[89a62da2735d54243defda06c2c07ac3]
link User to Permission--><g id="link_User_Permission"><path codeLine="41" d="M506.0548,323.134 C548.2918,352.8401 596.0708,386.444 626.5852,407.9054 " fill="none" id="User-Permission" style="stroke:#000000;stroke-width:1.0;"/><polygon fill="#000000" points="575.0898,364.4428,569.382,356.8354,566.0006,361.6432,575.0898,364.4428" style="stroke:#000000;stroke-width:1.0;"/><text fill="#000000" font-family="Verdana" font-size="13" lengthAdjust="spacing" textLength="23" x="580" y="366.0669">has</text><text fill="#000000" font-family="Verdana" font-size="13" lengthAdjust="spacing" textLength="24" x="518.3709" y="343.7271">0..n</text><text fill="#000000" font-family="Verdana" font-size="13" lengthAdjust="spacing" textLength="24" x="590.9175" y="397.0366">0..1</text></g><!--MD5=[4e7cf63e4f3ace4f20ff7d029fc88342]
link Permission to PermissionLevel--><g id="link_Permission_PermissionLevel"><path codeLine="42" d="M665.0596,452.1592 C673.8362,479.7082 688.9643,527.1936 699.6716,560.8025 " fill="none" id="Permission-PermissionLevel" style="stroke:#000000;stroke-width:1.0;"/><polygon fill="#000000" points="687.5178,503.3305,687.5724,493.8201,681.9719,495.6043,687.5178,503.3305" style="stroke:#000000;stroke-width:1.0;"/><text fill="#000000" font-family="Verdana" font-size="13" lengthAdjust="spacing" textLength="44" x="695" y="503.0669">means</text><text fill="#000000" font-family="Verdana" font-size="13" lengthAdjust="spacing" textLength="24" x="639.7319" y="472.2149">1..1</text><text fill="#000000" font-family="Verdana" font-size="13" lengthAdjust="spacing" textLength="24" x="671.4902" y="549.9755">1..1</text></g><!--MD5=[997309cd6aeaa6f110a24338ecaa31f2]
link User to apoint49--><g id="link_User_apoint49"><path d="M311.775,279.1338 C228.7064,298.1342 113.6014,334.426 32,400 C22.0042,408.0325 15.7086,422.8169 13.6992,428.0786 " fill="none" id="User-apoint49" style="stroke:#000000;stroke-width:1.0;"/><polygon fill="#000000" points="97.5273,363.8014,106.9322,362.3873,104.3048,357.1293,97.5273,363.8014" style="stroke:#000000;stroke-width:1.0;"/><text fill="#000000" font-family="Verdana" font-size="13" lengthAdjust="spacing" textLength="28" x="111" y="366.0669">likes</text><text fill="#000000" font-family="Verdana" font-size="13" lengthAdjust="spacing" textLength="24" x="279.8989" y="276.9369">0..n</text></g><!--MD5=[1b82436030dab42a17e47dbd83812da2]
link apoint49 to Post--><g id="link_apoint49_Post"><path d="M13.9754,432.0685 C16.4626,437.2016 23.4529,450.774 32,460 C58.15,488.2271 90.6436,514.715 121.1717,536.8674 " fill="none" id="apoint49-Post" style="stroke:#000000;stroke-width:1.0;"/><text fill="#000000" font-family="Verdana" font-size="13" lengthAdjust="spacing" textLength="24" x="84.4728" y="525.8049">0..n</text></g><!--MD5=[da0981be788dac252e3ac0ccae1cc10c]
link apoint49 to Point--><g id="link_apoint49_Point"><path d="M15.207,430 C26.748,430 38.2889,430 49.8298,430 " fill="none" id="apoint49-Point" style="stroke:#000000;stroke-width:1.0;stroke-dasharray:7.0,7.0;"/></g><!--MD5=[9a7b483b40c8ffd43a6fa4bd9114b371]
@startuml
!theme plain
skinparam ClassAttributeIconSize 0

class User{
    + ID : UUID
    + Handle : CHAR(31)
    + Name : VARCHAR(63)
    + Password : CHAR(128)
    + CreationTime : TIMESTAMP
}

class Post{
    + ID : UUID
    /'
    /+ CreatorID : UUID
    /+ StickerID : UUID
    '/
    + Media : UUID
    + MediaExtension : VARCHAR(7)
    + Content : VARCHAR(4095)
    + CreationTime : TIMESTAMP
}

class Sticker{
    + ID : UUID
    + Name : CHAR(31)
    /'
    /+ CreatorID : UUID
    '/
    + Description : VARCHAR(511)
    + CreationTime : TIMESTAMP
}

User "0..n" - - "0..n" User : aims at >
(User, User) . Shoot
User "1..1" - - "0..n" Post : creates >
User "1..1" - - "0..n" Sticker : creates >
Post "0..n" - - "1..1" Sticker : includes >
User "0..n" - - "0..n" Post : likes >
Session "1..n" - - "1..1" User : authenticates >
User "0..n" - - "0..1" Permission : has >
Permission "1..1" - - "1..1" PermissionLevel : means >
(User, Post) . Point

class Shoot{
    /'
    /+ Target : UUID
    /+ Archer : UUID
    '/
    + Shot : TIMESTAMP
}

class Point{
    /'
    /+ PostID : UUID
    /+ UserID : UUID
    '/
    + Time : TIMESTAMP
}

class Session{
    /'
    /+ UserID : UUID
    '/
    + CreationTime : TIMESTAMP
    + Name : VARCHAR(127)
    + Token : UUID
    + ExpirationDate : DATE
}

class Permission{
    /'
    /+ UserID : UUID
    '/
    /'
    /+ Level : TINYINT
    '/
}

class PermissionLevel{
    + Level : TINYINT
    + Name : VARCHAR(15)
}
@enduml

@startuml







<style>
  root {
    BackgroundColor white
    FontColor black
    FontName Verdana
    HyperLinkColor blue
    LineColor black
    LineThickness 1
    Margin 5
  }
  caption {
    LineThickness 0
  }
  footer {
    LineThickness 0
  }
  header {
    LineThickness 0
  }
  node {
    MaximumWidth 300
  }
  title {
    FontSize 22
    LineThickness 0
  }
</style>

skinparam ArrowLollipopColor black
skinparam BackgroundColor white
skinparam DefaultFontName Verdana
skinparam DefaultMonospacedFontName Courier
skinparam LifelineStrategy nosolid
skinparam ParticipantPadding 10
skinparam SequenceLifeLineBorderColor black
skinparam Shadowing false
skinparam UseBetaStyle true

skinparam Activity {
  BackgroundColor white
  BarColor black
  BorderColor black
  FontColor black
  FontName Verdana
}
skinparam Boundary {
  FontColor black
}
skinparam Box {
  Padding 5
}
skinparam CircledCharacter {
  FontColor black
  FontName Courier
  Radius 9
}
skinparam Class {
  BackgroundColor white
  BorderColor black
  FontColor black
  FontName Verdana
}
skinparam ClassAttribute {
  FontColor black
  FontName Verdana
}
skinparam ClassStereotype {
  FontColor black
  FontName Verdana
}
skinparam Footer {
  FontColor black
  FontName Verdana
}
skinparam Header {
  FontColor black
  FontName Verdana
}
skinparam Hyperlink {
  Color blue
}
skinparam IconPackage {
  Color black
  BackgroundColor white
}
skinparam IconPrivate {
  Color black
  BackgroundColor white
}
skinparam IconProtected {
  Color black
  BackgroundColor white
}
skinparam IconPublic {
  Color black
  BackgroundColor white
}
skinparam Note {
  FontColor black
  FontName Verdana
}
skinparam Object {
  BorderColor black
}
skinparam Package {
  BorderColor black
  FontColor black
  FontName Verdana
}
skinparam State {
  BackgroundColor white
  BorderColor black
}
skinparam StereotypeA {
  BackgroundColor white
  BorderColor black
}
skinparam StereotypeC {
  BackgroundColor white
  BorderColor black
}
skinparam StereotypeE {
  BackgroundColor white
  BorderColor black
}
skinparam StereotypeI {
  BackgroundColor white
  BorderColor black
}
skinparam StereotypeN {
  BackgroundColor white
  BorderColor black
}
skinparam UseCaseStereoType {
  FontColor black
  FontName Verdana
}
skinparam ClassAttributeIconSize 0

class User{
    + ID : UUID
    + Handle : CHAR(31)
    + Name : VARCHAR(63)
    + Password : CHAR(128)
    + CreationTime : TIMESTAMP
}

class Post{
    + ID : UUID
    + Media : UUID
    + MediaExtension : VARCHAR(7)
    + Content : VARCHAR(4095)
    + CreationTime : TIMESTAMP
}

class Sticker{
    + ID : UUID
    + Name : CHAR(31)
    + Description : VARCHAR(511)
    + CreationTime : TIMESTAMP
}

User "0..n" - - "0..n" User : aims at >
(User, User) . Shoot
User "1..1" - - "0..n" Post : creates >
User "1..1" - - "0..n" Sticker : creates >
Post "0..n" - - "1..1" Sticker : includes >
User "0..n" - - "0..n" Post : likes >
Session "1..n" - - "1..1" User : authenticates >
User "0..n" - - "0..1" Permission : has >
Permission "1..1" - - "1..1" PermissionLevel : means >
(User, Post) . Point

class Shoot{
    + Shot : TIMESTAMP
}

class Point{
    + Time : TIMESTAMP
}

class Session{
    + CreationTime : TIMESTAMP
    + Name : VARCHAR(127)
    + Token : UUID
    + ExpirationDate : DATE
}

class Permission{
}

class PermissionLevel{
    + Level : TINYINT
    + Name : VARCHAR(15)
}
@enduml

PlantUML version 1.2022.2(Sat Mar 05 17:30:19 CET 2022)
(GPLV2 source distribution)
Java Runtime: OpenJDK Runtime Environment
JVM: OpenJDK 64-Bit Server VM
Default Encoding: UTF-8
Language: de
Country: DE
--></g></svg>