<?xml version="1.0" encoding="UTF-8" standalone="no"?>
<svg xmlns="http://www.w3.org/2000/svg" xmlns:xlink="http://www.w3.org/1999/xlink" contentStyleType="text/css" height="653px" preserveAspectRatio="none" style="width:589px;height:653px;background:#FFFFFF;" version="1.1" viewBox="0 0 589 653" width="589px" zoomAndPan="magnify"><defs/><g><!--MD5=[3fd616f346a44cd59a91eb10b19e157c]
class User--><g id="elem_User"><rect codeLine="4" fill="#FFFFFF" height="125.4844" id="User" rx="2.5" ry="2.5" style="stroke:#000000;stroke-width:1.0;" width="231" x="262.5" y="12"/><ellipse cx="358.25" cy="26" fill="#FFFFFF" rx="9" ry="9" style="stroke:#000000;stroke-width:1.0;"/><path d="M361.2188,31.6406 Q360.6406,31.9375 360,32.0781 Q359.3594,32.2344 358.6563,32.2344 Q356.1563,32.2344 354.8281,30.5938 Q353.5156,28.9375 353.5156,25.8125 Q353.5156,22.6875 354.8281,21.0313 Q356.1563,19.375 358.6563,19.375 Q359.3594,19.375 360,19.5313 Q360.6563,19.6875 361.2188,19.9844 L361.2188,22.7031 Q360.5938,22.125 360,21.8594 Q359.4063,21.5781 358.7813,21.5781 Q357.4375,21.5781 356.75,22.6563 Q356.0625,23.7188 356.0625,25.8125 Q356.0625,27.9063 356.75,28.9844 Q357.4375,30.0469 358.7813,30.0469 Q359.4063,30.0469 360,29.7813 Q360.5938,29.5 361.2188,28.9219 L361.2188,31.6406 Z " fill="#000000"/><text fill="#000000" font-family="Verdana" font-size="14" lengthAdjust="spacing" textLength="32" x="375.75" y="30.8467">User</text><line style="stroke:#000000;stroke-width:1.0;" x1="263.5" x2="492.5" y1="40" y2="40"/><text fill="#000000" font-family="Verdana" font-size="14" lengthAdjust="spacing" textLength="188" x="268.5" y="56.9951">+CreationTime : DATETIME</text><line style="stroke:#000000;stroke-width:1.0;" x1="263.5" x2="492.5" y1="64.2969" y2="64.2969"/><text fill="#000000" font-family="Verdana" font-size="14" lengthAdjust="spacing" textLength="140" x="268.5" y="81.292">+Handle : CHAR(31)</text><text fill="#000000" font-family="Verdana" font-size="14" lengthAdjust="spacing" textLength="160" x="268.5" y="97.5889">+Name : VARCHAR(63)</text><text fill="#000000" font-family="Verdana" font-size="14" lengthAdjust="spacing" textLength="168" x="268.5" y="113.8857">+Password : CHAR(128)</text><text fill="#000000" font-family="Verdana" font-size="14" lengthAdjust="spacing" textLength="219" x="268.5" y="130.1826">+ProfilePicture : VARCHAR(255)</text></g><!--MD5=[9bb0bdd047fba1a3c8d48282c35b4537]
class Post--><g id="elem_Post"><rect codeLine="12" fill="#FFFFFF" height="109.1875" id="Post" rx="2.5" ry="2.5" style="stroke:#000000;stroke-width:1.0;" width="206" x="119" y="351"/><ellipse cx="202.75" cy="365" fill="#FFFFFF" rx="9" ry="9" style="stroke:#000000;stroke-width:1.0;"/><path d="M205.7188,370.6406 Q205.1406,370.9375 204.5,371.0781 Q203.8594,371.2344 203.1563,371.2344 Q200.6563,371.2344 199.3281,369.5938 Q198.0156,367.9375 198.0156,364.8125 Q198.0156,361.6875 199.3281,360.0313 Q200.6563,358.375 203.1563,358.375 Q203.8594,358.375 204.5,358.5313 Q205.1563,358.6875 205.7188,358.9844 L205.7188,361.7031 Q205.0938,361.125 204.5,360.8594 Q203.9063,360.5781 203.2813,360.5781 Q201.9375,360.5781 201.25,361.6563 Q200.5625,362.7188 200.5625,364.8125 Q200.5625,366.9063 201.25,367.9844 Q201.9375,369.0469 203.2813,369.0469 Q203.9063,369.0469 204.5,368.7813 Q205.0938,368.5 205.7188,367.9219 L205.7188,370.6406 Z " fill="#000000"/><text fill="#000000" font-family="Verdana" font-size="14" lengthAdjust="spacing" textLength="31" x="220.25" y="369.8467">Post</text><line style="stroke:#000000;stroke-width:1.0;" x1="120" x2="324" y1="379" y2="379"/><text fill="#000000" font-family="Verdana" font-size="14" lengthAdjust="spacing" textLength="100" x="125" y="395.9951">+ID : INTEGER</text><text fill="#000000" font-family="Verdana" font-size="14" lengthAdjust="spacing" textLength="188" x="125" y="412.292">+CreationTime : DATETIME</text><line style="stroke:#000000;stroke-width:1.0;" x1="120" x2="324" y1="419.5938" y2="419.5938"/><text fill="#000000" font-family="Verdana" font-size="14" lengthAdjust="spacing" textLength="170" x="125" y="436.5889">+Media : VARCHAR(255)</text><text fill="#000000" font-family="Verdana" font-size="14" lengthAdjust="spacing" textLength="194" x="125" y="452.8857">+Content : VARCHAR(1023)</text></g><!--MD5=[ef0783ae408c995dc8855cbad06794c9]
class Sticker--><g id="elem_Sticker"><rect codeLine="23" fill="#FFFFFF" height="109.1875" id="Sticker" rx="2.5" ry="2.5" style="stroke:#000000;stroke-width:1.0;" width="220" x="190" y="537"/><ellipse cx="272.75" cy="551" fill="#FFFFFF" rx="9" ry="9" style="stroke:#000000;stroke-width:1.0;"/><path d="M275.7188,556.6406 Q275.1406,556.9375 274.5,557.0781 Q273.8594,557.2344 273.1563,557.2344 Q270.6563,557.2344 269.3281,555.5938 Q268.0156,553.9375 268.0156,550.8125 Q268.0156,547.6875 269.3281,546.0313 Q270.6563,544.375 273.1563,544.375 Q273.8594,544.375 274.5,544.5313 Q275.1563,544.6875 275.7188,544.9844 L275.7188,547.7031 Q275.0938,547.125 274.5,546.8594 Q273.9063,546.5781 273.2813,546.5781 Q271.9375,546.5781 271.25,547.6563 Q270.5625,548.7188 270.5625,550.8125 Q270.5625,552.9063 271.25,553.9844 Q271.9375,555.0469 273.2813,555.0469 Q273.9063,555.0469 274.5,554.7813 Q275.0938,554.5 275.7188,553.9219 L275.7188,556.6406 Z " fill="#000000"/><text fill="#000000" font-family="Verdana" font-size="14" lengthAdjust="spacing" textLength="47" x="290.25" y="555.8467">Sticker</text><line style="stroke:#000000;stroke-width:1.0;" x1="191" x2="409" y1="565" y2="565"/><text fill="#000000" font-family="Verdana" font-size="14" lengthAdjust="spacing" textLength="188" x="196" y="581.9951">+CreationTime : DATETIME</text><line style="stroke:#000000;stroke-width:1.0;" x1="191" x2="409" y1="589.2969" y2="589.2969"/><text fill="#000000" font-family="Verdana" font-size="14" lengthAdjust="spacing" textLength="132" x="196" y="606.292">+Name : CHAR(31)</text><text fill="#000000" font-family="Verdana" font-size="14" lengthAdjust="spacing" textLength="187" x="196" y="622.5889">+Location : VARCHAR(255)</text><text fill="#000000" font-family="Verdana" font-size="14" lengthAdjust="spacing" textLength="208" x="196" y="638.8857">+Description : VARCHAR(511)</text></g><!--MD5=[31cff31dc4665adce2a62b3f2e8d5ba6]
class Shoot--><g id="elem_Shoot"><rect codeLine="41" fill="#FFFFFF" height="60.2969" id="Shoot" rx="2.5" ry="2.5" style="stroke:#000000;stroke-width:1.0;" width="140" x="442" y="375.5"/><ellipse cx="487.75" cy="389.5" fill="#FFFFFF" rx="9" ry="9" style="stroke:#000000;stroke-width:1.0;"/><path d="M490.7188,395.1406 Q490.1406,395.4375 489.5,395.5781 Q488.8594,395.7344 488.1563,395.7344 Q485.6563,395.7344 484.3281,394.0938 Q483.0156,392.4375 483.0156,389.3125 Q483.0156,386.1875 484.3281,384.5313 Q485.6563,382.875 488.1563,382.875 Q488.8594,382.875 489.5,383.0313 Q490.1563,383.1875 490.7188,383.4844 L490.7188,386.2031 Q490.0938,385.625 489.5,385.3594 Q488.9063,385.0781 488.2813,385.0781 Q486.9375,385.0781 486.25,386.1563 Q485.5625,387.2188 485.5625,389.3125 Q485.5625,391.4063 486.25,392.4844 Q486.9375,393.5469 488.2813,393.5469 Q488.9063,393.5469 489.5,393.2813 Q490.0938,393 490.7188,392.4219 L490.7188,395.1406 Z " fill="#000000"/><text fill="#000000" font-family="Verdana" font-size="14" lengthAdjust="spacing" textLength="41" x="505.25" y="394.3467">Shoot</text><line style="stroke:#000000;stroke-width:1.0;" x1="443" x2="581" y1="403.5" y2="403.5"/><text fill="#000000" font-family="Verdana" font-size="14" lengthAdjust="spacing" textLength="128" x="448" y="420.4951">+Shot : DATETIME</text><line style="stroke:#000000;stroke-width:1.0;" x1="443" x2="581" y1="427.7969" y2="427.7969"/></g><ellipse cx="512" cy="244" fill="#000000" rx="2" ry="2" style="stroke:none;stroke-width:1.0;"/><!--MD5=[378e3e2ca7e24a99f4479cd893fbde36]
class Like--><g id="elem_Like"><rect codeLine="49" fill="#FFFFFF" height="60.2969" id="Like" rx="2.5" ry="2.5" style="stroke:#000000;stroke-width:1.0;" width="142" x="50" y="214"/><ellipse cx="103.75" cy="228" fill="#FFFFFF" rx="9" ry="9" style="stroke:#000000;stroke-width:1.0;"/><path d="M106.7188,233.6406 Q106.1406,233.9375 105.5,234.0781 Q104.8594,234.2344 104.1563,234.2344 Q101.6563,234.2344 100.3281,232.5938 Q99.0156,230.9375 99.0156,227.8125 Q99.0156,224.6875 100.3281,223.0313 Q101.6563,221.375 104.1563,221.375 Q104.8594,221.375 105.5,221.5313 Q106.1563,221.6875 106.7188,221.9844 L106.7188,224.7031 Q106.0938,224.125 105.5,223.8594 Q104.9063,223.5781 104.2813,223.5781 Q102.9375,223.5781 102.25,224.6563 Q101.5625,225.7188 101.5625,227.8125 Q101.5625,229.9063 102.25,230.9844 Q102.9375,232.0469 104.2813,232.0469 Q104.9063,232.0469 105.5,231.7813 Q106.0938,231.5 106.7188,230.9219 L106.7188,233.6406 Z " fill="#000000"/><text fill="#000000" font-family="Verdana" font-size="14" lengthAdjust="spacing" textLength="27" x="121.25" y="232.8467">Like</text><line style="stroke:#000000;stroke-width:1.0;" x1="51" x2="191" y1="242" y2="242"/><text fill="#000000" font-family="Verdana" font-size="14" lengthAdjust="spacing" textLength="130" x="56" y="258.9951">+Time : DATETIME</text><line style="stroke:#000000;stroke-width:1.0;" x1="51" x2="191" y1="266.2969" y2="266.2969"/></g><ellipse cx="13" cy="244" fill="#000000" rx="2" ry="2" style="stroke:none;stroke-width:1.0;"/><!--MD5=[30446ea184198db9d09aef0282a37591]
link User to apoint7--><g id="link_User_apoint7"><path d="M403.3664,137.1853 C411.497,153.3487 421.4429,170.0926 433,184 C457.6565,213.6708 499.6485,237.3552 509.7612,242.8127 " fill="none" id="User-apoint7" style="stroke:#000000;stroke-width:1.0;"/><polygon fill="#000000" points="441.5483,179.0891,437.2,170.6308,433.0588,174.8021,441.5483,179.0891" style="stroke:#000000;stroke-width:1.0;"/><text fill="#000000" font-family="Verdana" font-size="13" lengthAdjust="spacing" textLength="48" x="447" y="180.0669">aims at</text><text fill="#000000" font-family="Verdana" font-size="13" lengthAdjust="spacing" textLength="24" x="380.9119" y="157.347">0..n</text></g><!--MD5=[e3286a52d68715779019f903f67e16e8]
link apoint7 to User--><g id="link_apoint7_User"><path d="M512.2127,241.9111 C513.072,232.458 515.5381,193.0195 500,167 C493.5268,156.1601 485.2555,146.1583 476.0764,137.0567 " fill="none" id="apoint7-User" style="stroke:#000000;stroke-width:1.0;"/><text fill="#000000" font-family="Verdana" font-size="13" lengthAdjust="spacing" textLength="24" x="462.567" y="157.6403">0..n</text></g><!--MD5=[e45d2f2955d36b4d88ef5550a114331c]
link apoint7 to Shoot--><g id="link_apoint7_Shoot"><path d="M512,246.042 C512,259.1869 512,332.6804 512,375.1586 " fill="none" id="apoint7-Shoot" style="stroke:#000000;stroke-width:1.0;stroke-dasharray:7.0,7.0;"/></g><!--MD5=[77c575690b0287b9077f2f97ff7c450d]
link User to Post--><g id="link_User_Post"><path codeLine="35" d="M333.5725,137.2894 C318.2064,160.6825 301.6787,187.9015 289,214 C267.3755,258.5132 249.306,311.8483 237.403,350.9141 " fill="none" id="User-Post" style="stroke:#000000;stroke-width:1.0;"/><polygon fill="#000000" points="291.9475,248.6257,298.3404,241.5843,292.9806,239.1714,291.9475,248.6257" style="stroke:#000000;stroke-width:1.0;"/><text fill="#000000" font-family="Verdana" font-size="13" lengthAdjust="spacing" textLength="48" x="303" y="248.5669">creates</text><text fill="#000000" font-family="Verdana" font-size="13" lengthAdjust="spacing" textLength="24" x="303.0481" y="157.4632">1..1</text><text fill="#000000" font-family="Verdana" font-size="13" lengthAdjust="spacing" textLength="24" x="213.839" y="340.0227">0..n</text></g><!--MD5=[ca4e51c2df119844c043e29d8f2dffda]
link User to Sticker--><g id="link_User_Sticker"><path codeLine="36" d="M378.8798,137.2795 C378.5747,222.5084 372.6696,378.8916 338,507 C335.3107,516.9371 331.5911,527.1869 327.5244,536.972 " fill="none" id="User-Sticker" style="stroke:#000000;stroke-width:1.0;"/><polygon fill="#000000" points="375.3628,317.5256,379.4305,308.9288,373.6005,308.1798,375.3628,317.5256" style="stroke:#000000;stroke-width:1.0;"/><text fill="#000000" font-family="Verdana" font-size="13" lengthAdjust="spacing" textLength="48" x="385" y="317.0669">creates</text><text fill="#000000" font-family="Verdana" font-size="13" lengthAdjust="spacing" textLength="24" x="353.594" y="157.4521">1..1</text><text fill="#000000" font-family="Verdana" font-size="13" lengthAdjust="spacing" textLength="24" x="305.5135" y="526.0881">0..n</text></g><!--MD5=[b5776459882a3c2d26837e1f3ef5d47a]
link Post to Sticker--><g id="link_Post_Sticker"><path codeLine="37" d="M244.8755,460.0494 C255.0348,484.2752 266.9657,512.7259 277.1249,536.9516 " fill="none" id="Post-Sticker" style="stroke:#000000;stroke-width:1.0;"/><polygon fill="#000000" points="269.9336,503.1774,269.1459,493.6995,263.7254,495.9726,269.9336,503.1774" style="stroke:#000000;stroke-width:1.0;"/><text fill="#000000" font-family="Verdana" font-size="13" lengthAdjust="spacing" textLength="52" x="277" y="503.0669">includes</text><text fill="#000000" font-family="Verdana" font-size="13" lengthAdjust="spacing" textLength="24" x="222.2689" y="480.0629">0..n</text><text fill="#000000" font-family="Verdana" font-size="13" lengthAdjust="spacing" textLength="24" x="248.6565" y="526.065">1..1</text></g><!--MD5=[fa2c7230557ec2dc67146b18048524e4]
link User to apoint17--><g id="link_User_apoint17"><path d="M262.1776,101.6133 C190.0055,122.9554 98.549,158.5429 32,214 C22.1489,222.2092 15.7629,236.8831 13.7144,242.0973 " fill="none" id="User-apoint17" style="stroke:#000000;stroke-width:1.0;"/><polygon fill="#000000" points="99.6475,178.0273,108.9677,176.1338,106.0747,171.0172,99.6475,178.0273" style="stroke:#000000;stroke-width:1.0;"/><text fill="#000000" font-family="Verdana" font-size="13" lengthAdjust="spacing" textLength="28" x="113" y="180.0669">likes</text><text fill="#000000" font-family="Verdana" font-size="13" lengthAdjust="spacing" textLength="24" x="230.3884" y="99.8647">0..n</text></g><!--MD5=[88640401147f896239708b9785dc0cd4]
link apoint17 to Post--><g id="link_apoint17_Post"><path d="M13.9553,246.0875 C16.3965,251.2639 23.2904,264.9272 32,274 C59.7811,302.9395 94.85,329.3353 127.2739,350.7589 " fill="none" id="apoint17-Post" style="stroke:#000000;stroke-width:1.0;"/><text fill="#000000" font-family="Verdana" font-size="13" lengthAdjust="spacing" textLength="24" x="89.5996" y="339.8477">0..n</text></g><!--MD5=[8de4c088d443aa0bfcb3167a329bedf8]
link apoint17 to Like--><g id="link_apoint17_Like"><path d="M15.1094,244 C26.6912,244 38.2729,244 49.8547,244 " fill="none" id="apoint17-Like" style="stroke:#000000;stroke-width:1.0;stroke-dasharray:7.0,7.0;"/></g><!--MD5=[963517a8caf03df77e1a959464c9c03e]
@startuml
!theme plain
skinparam ClassAttributeIconSize 0

class User{
    + Handle : CHAR(31)
    + Name : VARCHAR(63)
    + Password : CHAR(128)
    + ProfilePicture : VARCHAR(255)
    + CreationTime : DATETIME
}

class Post{
    + ID : INTEGER
    /'
    + Creator : CHAR(31)
    + Sticker : CHAR(31)
    '/
    + Media : VARCHAR(255)
    + Content : VARCHAR(1023)
    + CreationTime : DATETIME
}

class Sticker{
    + Name : CHAR(31)
    + Location : VARCHAR(255)
    /'
    + Creator : CHAR(31)
    '/
    + Description : VARCHAR(511)
    + CreationTime : DATETIME
}

User "0..n" - - "0..n" User : aims at >
(User, User) . Shoot
User "1..1" - - "0..n" Post : creates >
User "1..1" - - "0..n" Sticker : creates >
Post "0..n" - - "1..1" Sticker : includes >
User "0..n" - - "0..n" Post : likes >
(User, Post) . Like

class Shoot{
    /'
    + Target : CHAR(31)
    + Archer : CHAR(31)
    '/
    + Shot : DATETIME
}

class Like{
    /'
    + PostID : INTEGER
    + User : CHAR(31)
    '/
    + Time : DATETIME
}
@enduml

@startuml







<style>
  root {
    BackgroundColor white
    FontColor black
    FontName Verdana
    HyperLinkColor blue
    LineColor black
    LineThickness 1
    Margin 5
  }
  caption {
    LineThickness 0
  }
  footer {
    LineThickness 0
  }
  header {
    LineThickness 0
  }
  node {
    MaximumWidth 300
  }
  title {
    FontSize 22
    LineThickness 0
  }
</style>

skinparam ArrowLollipopColor black
skinparam BackgroundColor white
skinparam DefaultFontName Verdana
skinparam DefaultMonospacedFontName Courier
skinparam LifelineStrategy nosolid
skinparam ParticipantPadding 10
skinparam SequenceLifeLineBorderColor black
skinparam Shadowing false
skinparam UseBetaStyle true

skinparam Activity {
  BackgroundColor white
  BarColor black
  BorderColor black
  FontColor black
  FontName Verdana
}
skinparam Boundary {
  FontColor black
}
skinparam Box {
  Padding 5
}
skinparam CircledCharacter {
  FontColor black
  FontName Courier
  Radius 9
}
skinparam Class {
  BackgroundColor white
  BorderColor black
  FontColor black
  FontName Verdana
}
skinparam ClassAttribute {
  FontColor black
  FontName Verdana
}
skinparam ClassStereotype {
  FontColor black
  FontName Verdana
}
skinparam Footer {
  FontColor black
  FontName Verdana
}
skinparam Header {
  FontColor black
  FontName Verdana
}
skinparam Hyperlink {
  Color blue
}
skinparam IconPackage {
  Color black
  BackgroundColor white
}
skinparam IconPrivate {
  Color black
  BackgroundColor white
}
skinparam IconProtected {
  Color black
  BackgroundColor white
}
skinparam IconPublic {
  Color black
  BackgroundColor white
}
skinparam Note {
  FontColor black
  FontName Verdana
}
skinparam Object {
  BorderColor black
}
skinparam Package {
  BorderColor black
  FontColor black
  FontName Verdana
}
skinparam State {
  BackgroundColor white
  BorderColor black
}
skinparam StereotypeA {
  BackgroundColor white
  BorderColor black
}
skinparam StereotypeC {
  BackgroundColor white
  BorderColor black
}
skinparam StereotypeE {
  BackgroundColor white
  BorderColor black
}
skinparam StereotypeI {
  BackgroundColor white
  BorderColor black
}
skinparam StereotypeN {
  BackgroundColor white
  BorderColor black
}
skinparam UseCaseStereoType {
  FontColor black
  FontName Verdana
}
skinparam ClassAttributeIconSize 0

class User{
    + Handle : CHAR(31)
    + Name : VARCHAR(63)
    + Password : CHAR(128)
    + ProfilePicture : VARCHAR(255)
    + CreationTime : DATETIME
}

class Post{
    + ID : INTEGER
    + Media : VARCHAR(255)
    + Content : VARCHAR(1023)
    + CreationTime : DATETIME
}

class Sticker{
    + Name : CHAR(31)
    + Location : VARCHAR(255)
    + Description : VARCHAR(511)
    + CreationTime : DATETIME
}

User "0..n" - - "0..n" User : aims at >
(User, User) . Shoot
User "1..1" - - "0..n" Post : creates >
User "1..1" - - "0..n" Sticker : creates >
Post "0..n" - - "1..1" Sticker : includes >
User "0..n" - - "0..n" Post : likes >
(User, Post) . Like

class Shoot{
    + Shot : DATETIME
}

class Like{
    + Time : DATETIME
}
@enduml

PlantUML version 1.2022.2(Sat Mar 05 17:30:19 CET 2022)
(GPLV2 source distribution)
Java Runtime: OpenJDK Runtime Environment
JVM: OpenJDK 64-Bit Server VM
Default Encoding: UTF-8
Language: de
Country: DE
--></g></svg>