<?xml version="1.0" encoding="UTF-8" standalone="no"?>
<svg xmlns="http://www.w3.org/2000/svg" xmlns:xlink="http://www.w3.org/1999/xlink" contentStyleType="text/css" height="937px" preserveAspectRatio="none" style="width:1017px;height:937px;background:#FFFFFF;" version="1.1" viewBox="0 0 1017 937" width="1017px" zoomAndPan="magnify"><defs/><g><!--MD5=[3fd616f346a44cd59a91eb10b19e157c]
class User--><g id="elem_User"><rect codeLine="4" fill="#FFFFFF" height="125.4844" id="User" rx="2.5" ry="2.5" style="stroke:#000000;stroke-width:1.0;" width="210" x="341" y="198"/><ellipse cx="426.25" cy="212" fill="#FFFFFF" rx="9" ry="9" style="stroke:#000000;stroke-width:1.0;"/><path d="M429.2188,217.6406 Q428.6406,217.9375 428,218.0781 Q427.3594,218.2344 426.6563,218.2344 Q424.1563,218.2344 422.8281,216.5938 Q421.5156,214.9375 421.5156,211.8125 Q421.5156,208.6875 422.8281,207.0313 Q424.1563,205.375 426.6563,205.375 Q427.3594,205.375 428,205.5313 Q428.6563,205.6875 429.2188,205.9844 L429.2188,208.7031 Q428.5938,208.125 428,207.8594 Q427.4063,207.5781 426.7813,207.5781 Q425.4375,207.5781 424.75,208.6563 Q424.0625,209.7188 424.0625,211.8125 Q424.0625,213.9063 424.75,214.9844 Q425.4375,216.0469 426.7813,216.0469 Q427.4063,216.0469 428,215.7813 Q428.5938,215.5 429.2188,214.9219 L429.2188,217.6406 Z " fill="#000000"/><text fill="#000000" font-family="Verdana" font-size="14" lengthAdjust="spacing" textLength="32" x="443.75" y="216.8467">User</text><line style="stroke:#000000;stroke-width:1.0;" x1="342" x2="550" y1="226" y2="226"/><text fill="#000000" font-family="Verdana" font-size="14" lengthAdjust="spacing" textLength="73" x="347" y="242.9951">+ID : UUID</text><text fill="#000000" font-family="Verdana" font-size="14" lengthAdjust="spacing" textLength="198" x="347" y="259.292">+CreationTime : TIMESTAMP</text><line style="stroke:#000000;stroke-width:1.0;" x1="342" x2="550" y1="266.5938" y2="266.5938"/><text fill="#000000" font-family="Verdana" font-size="14" lengthAdjust="spacing" textLength="140" x="347" y="283.5889">+Handle : CHAR(23)</text><text fill="#000000" font-family="Verdana" font-size="14" lengthAdjust="spacing" textLength="160" x="347" y="299.8857">+Name : VARCHAR(47)</text><text fill="#000000" font-family="Verdana" font-size="14" lengthAdjust="spacing" textLength="168" x="347" y="316.1826">+Password : CHAR(128)</text></g><!--MD5=[9bb0bdd047fba1a3c8d48282c35b4537]
class Post--><g id="elem_Post"><rect codeLine="12" fill="#FFFFFF" height="125.4844" id="Post" rx="2.5" ry="2.5" style="stroke:#000000;stroke-width:1.0;" width="232" x="103" y="619"/><ellipse cx="199.75" cy="633" fill="#FFFFFF" rx="9" ry="9" style="stroke:#000000;stroke-width:1.0;"/><path d="M202.7188,638.6406 Q202.1406,638.9375 201.5,639.0781 Q200.8594,639.2344 200.1563,639.2344 Q197.6563,639.2344 196.3281,637.5938 Q195.0156,635.9375 195.0156,632.8125 Q195.0156,629.6875 196.3281,628.0313 Q197.6563,626.375 200.1563,626.375 Q200.8594,626.375 201.5,626.5313 Q202.1563,626.6875 202.7188,626.9844 L202.7188,629.7031 Q202.0938,629.125 201.5,628.8594 Q200.9063,628.5781 200.2813,628.5781 Q198.9375,628.5781 198.25,629.6563 Q197.5625,630.7188 197.5625,632.8125 Q197.5625,634.9063 198.25,635.9844 Q198.9375,637.0469 200.2813,637.0469 Q200.9063,637.0469 201.5,636.7813 Q202.0938,636.5 202.7188,635.9219 L202.7188,638.6406 Z " fill="#000000"/><text fill="#000000" font-family="Verdana" font-size="14" lengthAdjust="spacing" textLength="31" x="217.25" y="637.8467">Post</text><line style="stroke:#000000;stroke-width:1.0;" x1="104" x2="334" y1="647" y2="647"/><text fill="#000000" font-family="Verdana" font-size="14" lengthAdjust="spacing" textLength="73" x="109" y="663.9951">+ID : UUID</text><text fill="#000000" font-family="Verdana" font-size="14" lengthAdjust="spacing" textLength="100" x="109" y="680.292">+Media : UUID</text><text fill="#000000" font-family="Verdana" font-size="14" lengthAdjust="spacing" textLength="198" x="109" y="696.5889">+CreationTime : TIMESTAMP</text><line style="stroke:#000000;stroke-width:1.0;" x1="104" x2="334" y1="703.8906" y2="703.8906"/><text fill="#000000" font-family="Verdana" font-size="14" lengthAdjust="spacing" textLength="220" x="109" y="720.8857">+MediaExtension : VARCHAR(7)</text><text fill="#000000" font-family="Verdana" font-size="14" lengthAdjust="spacing" textLength="194" x="109" y="737.1826">+Content : VARCHAR(4095)</text></g><!--MD5=[ef0783ae408c995dc8855cbad06794c9]
class Sticker--><g id="elem_Sticker"><rect codeLine="24" fill="#FFFFFF" height="109.1875" id="Sticker" rx="2.5" ry="2.5" style="stroke:#000000;stroke-width:1.0;" width="220" x="194" y="821"/><ellipse cx="276.75" cy="835" fill="#FFFFFF" rx="9" ry="9" style="stroke:#000000;stroke-width:1.0;"/><path d="M279.7188,840.6406 Q279.1406,840.9375 278.5,841.0781 Q277.8594,841.2344 277.1563,841.2344 Q274.6563,841.2344 273.3281,839.5938 Q272.0156,837.9375 272.0156,834.8125 Q272.0156,831.6875 273.3281,830.0313 Q274.6563,828.375 277.1563,828.375 Q277.8594,828.375 278.5,828.5313 Q279.1563,828.6875 279.7188,828.9844 L279.7188,831.7031 Q279.0938,831.125 278.5,830.8594 Q277.9063,830.5781 277.2813,830.5781 Q275.9375,830.5781 275.25,831.6563 Q274.5625,832.7188 274.5625,834.8125 Q274.5625,836.9063 275.25,837.9844 Q275.9375,839.0469 277.2813,839.0469 Q277.9063,839.0469 278.5,838.7813 Q279.0938,838.5 279.7188,837.9219 L279.7188,840.6406 Z " fill="#000000"/><text fill="#000000" font-family="Verdana" font-size="14" lengthAdjust="spacing" textLength="47" x="294.25" y="839.8467">Sticker</text><line style="stroke:#000000;stroke-width:1.0;" x1="195" x2="413" y1="849" y2="849"/><text fill="#000000" font-family="Verdana" font-size="14" lengthAdjust="spacing" textLength="73" x="200" y="865.9951">+ID : UUID</text><text fill="#000000" font-family="Verdana" font-size="14" lengthAdjust="spacing" textLength="198" x="200" y="882.292">+CreationTime : TIMESTAMP</text><line style="stroke:#000000;stroke-width:1.0;" x1="195" x2="413" y1="889.5938" y2="889.5938"/><text fill="#000000" font-family="Verdana" font-size="14" lengthAdjust="spacing" textLength="132" x="200" y="906.5889">+Name : CHAR(31)</text><text fill="#000000" font-family="Verdana" font-size="14" lengthAdjust="spacing" textLength="208" x="200" y="922.8857">+Description : VARCHAR(511)</text></g><!--MD5=[31cff31dc4665adce2a62b3f2e8d5ba6]
class Shoot--><g id="elem_Shoot"><rect codeLine="47" fill="#FFFFFF" height="60.2969" id="Shoot" rx="2.5" ry="2.5" style="stroke:#000000;stroke-width:1.0;" width="150" x="441" y="651.5"/><ellipse cx="491.75" cy="665.5" fill="#FFFFFF" rx="9" ry="9" style="stroke:#000000;stroke-width:1.0;"/><path d="M494.7188,671.1406 Q494.1406,671.4375 493.5,671.5781 Q492.8594,671.7344 492.1563,671.7344 Q489.6563,671.7344 488.3281,670.0938 Q487.0156,668.4375 487.0156,665.3125 Q487.0156,662.1875 488.3281,660.5313 Q489.6563,658.875 492.1563,658.875 Q492.8594,658.875 493.5,659.0313 Q494.1563,659.1875 494.7188,659.4844 L494.7188,662.2031 Q494.0938,661.625 493.5,661.3594 Q492.9063,661.0781 492.2813,661.0781 Q490.9375,661.0781 490.25,662.1563 Q489.5625,663.2188 489.5625,665.3125 Q489.5625,667.4063 490.25,668.4844 Q490.9375,669.5469 492.2813,669.5469 Q492.9063,669.5469 493.5,669.2813 Q494.0938,669 494.7188,668.4219 L494.7188,671.1406 Z " fill="#000000"/><text fill="#000000" font-family="Verdana" font-size="14" lengthAdjust="spacing" textLength="41" x="509.25" y="670.3467">Shoot</text><line style="stroke:#000000;stroke-width:1.0;" x1="442" x2="590" y1="679.5" y2="679.5"/><text fill="#000000" font-family="Verdana" font-size="14" lengthAdjust="spacing" textLength="138" x="447" y="696.4951">+Shot : TIMESTAMP</text><line style="stroke:#000000;stroke-width:1.0;" x1="442" x2="590" y1="703.7969" y2="703.7969"/></g><ellipse cx="516" cy="471" fill="#000000" rx="2" ry="2" style="stroke:none;stroke-width:1.0;"/><!--MD5=[2ca1536628238a7dc78c5d90808014f9]
class Session--><g id="elem_Session"><rect codeLine="63" fill="#FFFFFF" height="109.1875" id="Session" rx="2.5" ry="2.5" style="stroke:#000000;stroke-width:1.0;" width="210" x="341" y="12"/><ellipse cx="414.75" cy="26" fill="#FFFFFF" rx="9" ry="9" style="stroke:#000000;stroke-width:1.0;"/><path d="M417.7188,31.6406 Q417.1406,31.9375 416.5,32.0781 Q415.8594,32.2344 415.1563,32.2344 Q412.6563,32.2344 411.3281,30.5938 Q410.0156,28.9375 410.0156,25.8125 Q410.0156,22.6875 411.3281,21.0313 Q412.6563,19.375 415.1563,19.375 Q415.8594,19.375 416.5,19.5313 Q417.1563,19.6875 417.7188,19.9844 L417.7188,22.7031 Q417.0938,22.125 416.5,21.8594 Q415.9063,21.5781 415.2813,21.5781 Q413.9375,21.5781 413.25,22.6563 Q412.5625,23.7188 412.5625,25.8125 Q412.5625,27.9063 413.25,28.9844 Q413.9375,30.0469 415.2813,30.0469 Q415.9063,30.0469 416.5,29.7813 Q417.0938,29.5 417.7188,28.9219 L417.7188,31.6406 Z " fill="#000000"/><text fill="#000000" font-family="Verdana" font-size="14" lengthAdjust="spacing" textLength="55" x="432.25" y="30.8467">Session</text><line style="stroke:#000000;stroke-width:1.0;" x1="342" x2="550" y1="40" y2="40"/><text fill="#000000" font-family="Verdana" font-size="14" lengthAdjust="spacing" textLength="198" x="347" y="56.9951">+CreationTime : TIMESTAMP</text><text fill="#000000" font-family="Verdana" font-size="14" lengthAdjust="spacing" textLength="103" x="347" y="73.292">+Token : UUID</text><text fill="#000000" font-family="Verdana" font-size="14" lengthAdjust="spacing" textLength="163" x="347" y="89.5889">+ExpirationDate : DATE</text><line style="stroke:#000000;stroke-width:1.0;" x1="342" x2="550" y1="96.8906" y2="96.8906"/><text fill="#000000" font-family="Verdana" font-size="14" lengthAdjust="spacing" textLength="169" x="347" y="113.8857">+Name : VARCHAR(127)</text></g><!--MD5=[03da7ad6344b0b2c818a169ad3cc63fd]
class Permission--><g id="elem_Permission"><rect codeLine="73" fill="#FFFFFF" height="44" id="Permission" rx="2.5" ry="2.5" style="stroke:#000000;stroke-width:1.0;" width="104" x="606" y="449"/><ellipse cx="619" cy="463" fill="#FFFFFF" rx="9" ry="9" style="stroke:#000000;stroke-width:1.0;"/><path d="M621.9688,468.6406 Q621.3906,468.9375 620.75,469.0781 Q620.1094,469.2344 619.4063,469.2344 Q616.9063,469.2344 615.5781,467.5938 Q614.2656,465.9375 614.2656,462.8125 Q614.2656,459.6875 615.5781,458.0313 Q616.9063,456.375 619.4063,456.375 Q620.1094,456.375 620.75,456.5313 Q621.4063,456.6875 621.9688,456.9844 L621.9688,459.7031 Q621.3438,459.125 620.75,458.8594 Q620.1563,458.5781 619.5313,458.5781 Q618.1875,458.5781 617.5,459.6563 Q616.8125,460.7188 616.8125,462.8125 Q616.8125,464.9063 617.5,465.9844 Q618.1875,467.0469 619.5313,467.0469 Q620.1563,467.0469 620.75,466.7813 Q621.3438,466.5 621.9688,465.9219 L621.9688,468.6406 Z " fill="#000000"/><text fill="#000000" font-family="Verdana" font-size="14" lengthAdjust="spacing" textLength="76" x="631" y="467.8467">Permission</text><line style="stroke:#000000;stroke-width:1.0;" x1="607" x2="709" y1="477" y2="477"/><line style="stroke:#000000;stroke-width:1.0;" x1="607" x2="709" y1="485" y2="485"/></g><!--MD5=[824f41aef9b4ad21d38e6fc30e97298d]
class PermissionLevel--><g id="elem_PermissionLevel"><rect codeLine="82" fill="#FFFFFF" height="76.5938" id="PermissionLevel" rx="2.5" ry="2.5" style="stroke:#000000;stroke-width:1.0;" width="172" x="626" y="643"/><ellipse cx="653.85" cy="657" fill="#FFFFFF" rx="9" ry="9" style="stroke:#000000;stroke-width:1.0;"/><path d="M656.8188,662.6406 Q656.2406,662.9375 655.6,663.0781 Q654.9594,663.2344 654.2563,663.2344 Q651.7563,663.2344 650.4281,661.5938 Q649.1156,659.9375 649.1156,656.8125 Q649.1156,653.6875 650.4281,652.0313 Q651.7563,650.375 654.2563,650.375 Q654.9594,650.375 655.6,650.5313 Q656.2563,650.6875 656.8188,650.9844 L656.8188,653.7031 Q656.1938,653.125 655.6,652.8594 Q655.0063,652.5781 654.3813,652.5781 Q653.0375,652.5781 652.35,653.6563 Q651.6625,654.7188 651.6625,656.8125 Q651.6625,658.9063 652.35,659.9844 Q653.0375,661.0469 654.3813,661.0469 Q655.0063,661.0469 655.6,660.7813 Q656.1938,660.5 656.8188,659.9219 L656.8188,662.6406 Z " fill="#000000"/><text fill="#000000" font-family="Verdana" font-size="14" lengthAdjust="spacing" textLength="111" x="669.15" y="661.8467">PermissionLevel</text><line style="stroke:#000000;stroke-width:1.0;" x1="627" x2="797" y1="671" y2="671"/><text fill="#000000" font-family="Verdana" font-size="14" lengthAdjust="spacing" textLength="113" x="632" y="687.9951">+Level : TINYINT</text><line style="stroke:#000000;stroke-width:1.0;" x1="627" x2="797" y1="695.2969" y2="695.2969"/><text fill="#000000" font-family="Verdana" font-size="14" lengthAdjust="spacing" textLength="160" x="632" y="712.292">+Name : VARCHAR(15)</text></g><!--MD5=[972bde5337b4335dd91fa5354c932445]
class Point--><g id="elem_Point"><rect codeLine="55" fill="#FFFFFF" height="60.2969" id="Point" rx="2.5" ry="2.5" style="stroke:#000000;stroke-width:1.0;" width="152" x="50" y="441"/><ellipse cx="104.75" cy="455" fill="#FFFFFF" rx="9" ry="9" style="stroke:#000000;stroke-width:1.0;"/><path d="M107.7188,460.6406 Q107.1406,460.9375 106.5,461.0781 Q105.8594,461.2344 105.1563,461.2344 Q102.6563,461.2344 101.3281,459.5938 Q100.0156,457.9375 100.0156,454.8125 Q100.0156,451.6875 101.3281,450.0313 Q102.6563,448.375 105.1563,448.375 Q105.8594,448.375 106.5,448.5313 Q107.1563,448.6875 107.7188,448.9844 L107.7188,451.7031 Q107.0938,451.125 106.5,450.8594 Q105.9063,450.5781 105.2813,450.5781 Q103.9375,450.5781 103.25,451.6563 Q102.5625,452.7188 102.5625,454.8125 Q102.5625,456.9063 103.25,457.9844 Q103.9375,459.0469 105.2813,459.0469 Q105.9063,459.0469 106.5,458.7813 Q107.0938,458.5 107.7188,457.9219 L107.7188,460.6406 Z " fill="#000000"/><text fill="#000000" font-family="Verdana" font-size="14" lengthAdjust="spacing" textLength="35" x="122.25" y="459.8467">Point</text><line style="stroke:#000000;stroke-width:1.0;" x1="51" x2="201" y1="469" y2="469"/><text fill="#000000" font-family="Verdana" font-size="14" lengthAdjust="spacing" textLength="140" x="56" y="485.9951">+Time : TIMESTAMP</text><line style="stroke:#000000;stroke-width:1.0;" x1="51" x2="201" y1="493.2969" y2="493.2969"/></g><ellipse cx="13" cy="471" fill="#000000" rx="2" ry="2" style="stroke:none;stroke-width:1.0;"/><!--MD5=[d7f7c8380fcc5e5c5c99c9ab3ec38441]
class Upload--><g id="elem_Upload"><rect codeLine="92" fill="#FFFFFF" height="141.7813" id="Upload" rx="2.5" ry="2.5" style="stroke:#000000;stroke-width:1.0;" width="219" x="779.5" y="400"/><ellipse cx="861.25" cy="414" fill="#FFFFFF" rx="9" ry="9" style="stroke:#000000;stroke-width:1.0;"/><path d="M864.2188,419.6406 Q863.6406,419.9375 863,420.0781 Q862.3594,420.2344 861.6563,420.2344 Q859.1563,420.2344 857.8281,418.5938 Q856.5156,416.9375 856.5156,413.8125 Q856.5156,410.6875 857.8281,409.0313 Q859.1563,407.375 861.6563,407.375 Q862.3594,407.375 863,407.5313 Q863.6563,407.6875 864.2188,407.9844 L864.2188,410.7031 Q863.5938,410.125 863,409.8594 Q862.4063,409.5781 861.7813,409.5781 Q860.4375,409.5781 859.75,410.6563 Q859.0625,411.7188 859.0625,413.8125 Q859.0625,415.9063 859.75,416.9844 Q860.4375,418.0469 861.7813,418.0469 Q862.4063,418.0469 863,417.7813 Q863.5938,417.5 864.2188,416.9219 L864.2188,419.6406 Z " fill="#000000"/><text fill="#000000" font-family="Verdana" font-size="14" lengthAdjust="spacing" textLength="48" x="878.75" y="418.8467">Upload</text><line style="stroke:#000000;stroke-width:1.0;" x1="780.5" x2="997.5" y1="428" y2="428"/><text fill="#000000" font-family="Verdana" font-size="14" lengthAdjust="spacing" textLength="73" x="785.5" y="444.9951">+ID : UUID</text><text fill="#000000" font-family="Verdana" font-size="14" lengthAdjust="spacing" textLength="112" x="785.5" y="461.292">+Type : TINYINT</text><text fill="#000000" font-family="Verdana" font-size="14" lengthAdjust="spacing" textLength="135" x="785.5" y="477.5889">+UploaderID : UUID</text><text fill="#000000" font-family="Verdana" font-size="14" lengthAdjust="spacing" textLength="188" x="785.5" y="493.8857">+UploadTime : TIMESTAMP</text><text fill="#000000" font-family="Verdana" font-size="14" lengthAdjust="spacing" textLength="207" x="785.5" y="510.1826">+ExpirationTime : TIMESTAMP</text><line style="stroke:#000000;stroke-width:1.0;" x1="780.5" x2="997.5" y1="517.4844" y2="517.4844"/><text fill="#000000" font-family="Verdana" font-size="14" lengthAdjust="spacing" textLength="179" x="785.5" y="534.4795">+Extension : VARCHAR(7)</text></g><!--MD5=[37fa9940c1a3c1815eeade483f83f67f]
class UploadType--><g id="elem_UploadType"><rect codeLine="87" fill="#FFFFFF" height="76.5938" id="UploadType" rx="2.5" ry="2.5" style="stroke:#000000;stroke-width:1.0;" width="177" x="833.5" y="643"/><ellipse cx="877.25" cy="657" fill="#FFFFFF" rx="9" ry="9" style="stroke:#000000;stroke-width:1.0;"/><path d="M880.2188,662.6406 Q879.6406,662.9375 879,663.0781 Q878.3594,663.2344 877.6563,663.2344 Q875.1563,663.2344 873.8281,661.5938 Q872.5156,659.9375 872.5156,656.8125 Q872.5156,653.6875 873.8281,652.0313 Q875.1563,650.375 877.6563,650.375 Q878.3594,650.375 879,650.5313 Q879.6563,650.6875 880.2188,650.9844 L880.2188,653.7031 Q879.5938,653.125 879,652.8594 Q878.4063,652.5781 877.7813,652.5781 Q876.4375,652.5781 875.75,653.6563 Q875.0625,654.7188 875.0625,656.8125 Q875.0625,658.9063 875.75,659.9844 Q876.4375,661.0469 877.7813,661.0469 Q878.4063,661.0469 879,660.7813 Q879.5938,660.5 880.2188,659.9219 L880.2188,662.6406 Z " fill="#000000"/><text fill="#000000" font-family="Verdana" font-size="14" lengthAdjust="spacing" textLength="82" x="894.75" y="661.8467">UploadType</text><line style="stroke:#000000;stroke-width:1.0;" x1="834.5" x2="1009.5" y1="671" y2="671"/><text fill="#000000" font-family="Verdana" font-size="14" lengthAdjust="spacing" textLength="112" x="839.5" y="687.9951">+Type : TINYINT</text><line style="stroke:#000000;stroke-width:1.0;" x1="834.5" x2="1009.5" y1="695.2969" y2="695.2969"/><text fill="#000000" font-family="Verdana" font-size="14" lengthAdjust="spacing" textLength="165" x="839.5" y="712.292">+Name : VARCHAR(15);</text></g><!--MD5=[a155f42be81d41fe372271b39fe6e223]
link User to apoint145--><g id="link_User_apoint145"><path d="M437.0678,323.2167 C436.7994,338.7981 438.2287,355.2534 443,370 C458.1854,416.933 504.2263,460.3811 514.1161,469.3239 " fill="none" id="User-apoint145" style="stroke:#000000;stroke-width:1.0;"/><polygon fill="#000000" points="450.3323,365.9891,448.7128,356.6175,443.5135,359.3592,450.3323,365.9891" style="stroke:#000000;stroke-width:1.0;"/><text fill="#000000" font-family="Verdana" font-size="13" lengthAdjust="spacing" textLength="48" x="457" y="366.0669">aims at</text><text fill="#000000" font-family="Verdana" font-size="13" lengthAdjust="spacing" textLength="24" x="437.4225" y="343.3821">0..n</text></g><!--MD5=[5852beaffea984b8b0cb3e5130389fc8]
link apoint145 to User--><g id="link_apoint145_User"><path d="M516.2973,468.9778 C517.9307,457.3206 525.2002,397.6632 510,353 C506.5396,342.8322 501.612,332.7638 496.0073,323.2214 " fill="none" id="apoint145-User" style="stroke:#000000;stroke-width:1.0;"/><text fill="#000000" font-family="Verdana" font-size="13" lengthAdjust="spacing" textLength="24" x="476.4019" y="343.3873">0..n</text></g><!--MD5=[d8953744d9570b4461e8a8646f5eee56]
link apoint145 to Shoot--><g id="link_apoint145_Shoot"><path d="M516,473.364 C516,490.6183 516,597.9861 516,651.3964 " fill="none" id="apoint145-Shoot" style="stroke:#000000;stroke-width:1.0;stroke-dasharray:7.0,7.0;"/></g><!--MD5=[77c575690b0287b9077f2f97ff7c450d]
link User to Post--><g id="link_User_Post"><path codeLine="36" d="M364.8577,323.0456 C340.7509,345.1019 316.2146,371.5553 299,400 C257.5685,468.4597 236.8361,559.2334 227.0156,618.9515 " fill="none" id="User-Post" style="stroke:#000000;stroke-width:1.0;"/><polygon fill="#000000" points="301.8887,475.5988,308.3721,468.6406,303.044,466.1586,301.8887,475.5988" style="stroke:#000000;stroke-width:1.0;"/><text fill="#000000" font-family="Verdana" font-size="13" lengthAdjust="spacing" textLength="48" x="313" y="475.5669">creates</text><text fill="#000000" font-family="Verdana" font-size="13" lengthAdjust="spacing" textLength="24" x="329.506" y="343.6279">1..1</text><text fill="#000000" font-family="Verdana" font-size="13" lengthAdjust="spacing" textLength="24" x="202.5549" y="607.8987">0..n</text></g><!--MD5=[ca4e51c2df119844c043e29d8f2dffda]
link User to Sticker--><g id="link_User_Sticker"><path codeLine="37" d="M434.1835,323.1581 C416.7032,415.4102 382.7049,593.1709 352,744 C347.7398,764.9272 348.6394,770.7018 342,791 C338.7996,800.7845 334.8244,810.9579 330.6618,820.7144 " fill="none" id="User-Sticker" style="stroke:#000000;stroke-width:1.0;"/><polygon fill="#000000" points="389.9815,585.4616,394.7013,577.2048,388.9467,576.0075,389.9815,585.4616" style="stroke:#000000;stroke-width:1.0;"/><text fill="#000000" font-family="Verdana" font-size="13" lengthAdjust="spacing" textLength="48" x="400" y="585.0669">creates</text><text fill="#000000" font-family="Verdana" font-size="13" lengthAdjust="spacing" textLength="24" x="407.2809" y="343.7541">1..1</text><text fill="#000000" font-family="Verdana" font-size="13" lengthAdjust="spacing" textLength="24" x="308.5403" y="809.7974">0..n</text></g><!--MD5=[b5776459882a3c2d26837e1f3ef5d47a]
link Post to Sticker--><g id="link_Post_Sticker"><path codeLine="38" d="M246.4797,744.2183 C257.296,768.9051 269.602,796.9916 280.0481,820.8333 " fill="none" id="Post-Sticker" style="stroke:#000000;stroke-width:1.0;"/><polygon fill="#000000" points="274.0066,787.1461,273.0685,777.6819,267.6848,780.0408,274.0066,787.1461" style="stroke:#000000;stroke-width:1.0;"/><text fill="#000000" font-family="Verdana" font-size="13" lengthAdjust="spacing" textLength="52" x="281" y="787.0669">includes</text><text fill="#000000" font-family="Verdana" font-size="13" lengthAdjust="spacing" textLength="24" x="224.2695" y="764.3839">0..n</text><text fill="#000000" font-family="Verdana" font-size="13" lengthAdjust="spacing" textLength="24" x="251.4418" y="809.9316">1..1</text></g><!--MD5=[f205aee3284cdd9814e4079314e77301]
link Session to User--><g id="link_Session_User"><path codeLine="40" d="M446,121.0561 C446,144.9272 446,173.0702 446,197.7995 " fill="none" id="Session-User" style="stroke:#000000;stroke-width:1.0;"/><polygon fill="#000000" points="451,164.5664,453.9389,155.5213,448.0611,155.5213,451,164.5664" style="stroke:#000000;stroke-width:1.0;"/><text fill="#000000" font-family="Verdana" font-size="13" lengthAdjust="spacing" textLength="88" x="460" y="164.0669">authenticates</text><text fill="#000000" font-family="Verdana" font-size="13" lengthAdjust="spacing" textLength="24" x="420.4625" y="141.0704">1..n</text><text fill="#000000" font-family="Verdana" font-size="13" lengthAdjust="spacing" textLength="24" x="420.6125" y="186.7291">1..1</text></g><!--MD5=[89a62da2735d54243defda06c2c07ac3]
link User to Permission--><g id="link_User_Permission"><path codeLine="41" d="M509.033,323.087 C551.8741,365.625 605.9867,419.3547 635.7823,448.9395 " fill="none" id="User-Permission" style="stroke:#000000;stroke-width:1.0;"/><polygon fill="#000000" points="560.5481,365.0894,556.2003,356.6308,552.0588,360.8018,560.5481,365.0894" style="stroke:#000000;stroke-width:1.0;"/><text fill="#000000" font-family="Verdana" font-size="13" lengthAdjust="spacing" textLength="23" x="566" y="366.0669">has</text><text fill="#000000" font-family="Verdana" font-size="13" lengthAdjust="spacing" textLength="24" x="518.1776" y="343.6743">0..n</text><text fill="#000000" font-family="Verdana" font-size="13" lengthAdjust="spacing" textLength="24" x="602.5863" y="438.0799">0..1</text></g><!--MD5=[4e7cf63e4f3ace4f20ff7d029fc88342]
link Permission to PermissionLevel--><g id="link_Permission_PermissionLevel"><path codeLine="42" d="M663.6769,493.1293 C672.8024,528.702 690.8501,599.0546 702.1213,642.9915 " fill="none" id="Permission-PermissionLevel" style="stroke:#000000;stroke-width:1.0;"/><polygon fill="#000000" points="695.2424,585.4096,695.8416,575.9179,690.1481,577.3785,695.2424,585.4096" style="stroke:#000000;stroke-width:1.0;"/><text fill="#000000" font-family="Verdana" font-size="13" lengthAdjust="spacing" textLength="44" x="703" y="585.0669">means</text><text fill="#000000" font-family="Verdana" font-size="13" lengthAdjust="spacing" textLength="24" x="637.9776" y="513.1769">0..n</text><text fill="#000000" font-family="Verdana" font-size="13" lengthAdjust="spacing" textLength="24" x="674.2242" y="631.9111">1..1</text></g><!--MD5=[c0365b4edee234606dae0fc7f6809496]
link User to apoint161--><g id="link_User_apoint161"><path d="M340.5149,284.0284 C232.4947,310.1525 74.5585,354.6481 32,400 C12.4411,420.8427 12.5634,459.57 12.8996,468.9262 " fill="none" id="User-apoint161" style="stroke:#000000;stroke-width:1.0;"/><polygon fill="#000000" points="110.6456,364.0239,119.9673,362.1377,117.0783,357.0188,110.6456,364.0239" style="stroke:#000000;stroke-width:1.0;"/><text fill="#000000" font-family="Verdana" font-size="13" lengthAdjust="spacing" textLength="28" x="124" y="366.0669">likes</text><text fill="#000000" font-family="Verdana" font-size="13" lengthAdjust="spacing" textLength="24" x="308.9885" y="282.1109">0..n</text></g><!--MD5=[a725acf94900806e7909822188e34c8e]
link apoint161 to Post--><g id="link_apoint161_Post"><path d="M13.0754,473.1836 C13.49,482.3784 16.1064,518.5513 32,542 C52.2254,571.8397 80.9896,597.7921 109.9109,618.9536 " fill="none" id="apoint161-Post" style="stroke:#000000;stroke-width:1.0;"/><text fill="#000000" font-family="Verdana" font-size="13" lengthAdjust="spacing" textLength="24" x="71.91" y="607.9011">0..n</text></g><!--MD5=[19f7c91025f08166c1b24dc54fab9a37]
link apoint161 to Point--><g id="link_apoint161_Point"><path d="M15.207,471 C26.748,471 38.2889,471 49.8298,471 " fill="none" id="apoint161-Point" style="stroke:#000000;stroke-width:1.0;stroke-dasharray:7.0,7.0;"/></g><!--MD5=[fd9da72820cc813c9a6ad90e9e0dac2a]
link User to Upload--><g id="link_User_Upload"><path codeLine="44" d="M551.2656,310.519 C619.9722,343.1663 709.4978,385.7061 779.1118,418.7845 " fill="none" id="User-Upload" style="stroke:#000000;stroke-width:1.0;"/><polygon fill="#000000" points="677.5161,363.7123,670.6077,357.1758,668.0851,362.4848,677.5161,363.7123" style="stroke:#000000;stroke-width:1.0;"/><text fill="#000000" font-family="Verdana" font-size="13" lengthAdjust="spacing" textLength="38" x="682" y="366.0669">sends</text><text fill="#000000" font-family="Verdana" font-size="13" lengthAdjust="spacing" textLength="24" x="559.1444" y="310.4308">1..1</text><text fill="#000000" font-family="Verdana" font-size="13" lengthAdjust="spacing" textLength="24" x="747.6842" y="412.2232">0..n</text></g><!--MD5=[474a7d21572ce7e940b7c430525036cc]
link Upload to UploadType--><g id="link_Upload_UploadType"><path codeLine="45" d="M900.1723,542.2657 C905.4452,575.9006 911.5313,614.7227 915.9353,642.8145 " fill="none" id="Upload-UploadType" style="stroke:#000000;stroke-width:1.0;"/><polygon fill="#000000" points="912.7744,585.5061,914.277,576.115,908.47,577.0253,912.7744,585.5061" style="stroke:#000000;stroke-width:1.0;"/><text fill="#000000" font-family="Verdana" font-size="13" lengthAdjust="spacing" textLength="26" x="921" y="585.0669">is of</text><text fill="#000000" font-family="Verdana" font-size="13" lengthAdjust="spacing" textLength="24" x="876.0934" y="561.8567">0..n</text><text fill="#000000" font-family="Verdana" font-size="13" lengthAdjust="spacing" textLength="24" x="888.8304" y="631.9896">1..1</text></g><!--MD5=[01e174cfaa3131665c2eef08296535b5]
@startuml
!theme plain
skinparam ClassAttributeIconSize 0

class User{
    + ID : UUID
    + Handle : CHAR(23)
    + Name : VARCHAR(47)
    + Password : CHAR(128)
    + CreationTime : TIMESTAMP
}

class Post{
    + ID : UUID
    /'
    /+ CreatorID : UUID
    /+ StickerID : UUID
    '/
    + Media : UUID
    + MediaExtension : VARCHAR(7)
    + Content : VARCHAR(4095)
    + CreationTime : TIMESTAMP
}

class Sticker{
    + ID : UUID
    + Name : CHAR(31)
    /'
    /+ CreatorID : UUID
    '/
    + Description : VARCHAR(511)
    + CreationTime : TIMESTAMP
}

User "0..n" - - "0..n" User : aims at >
(User, User) . Shoot
User "1..1" - - "0..n" Post : creates >
User "1..1" - - "0..n" Sticker : creates >
Post "0..n" - - "1..1" Sticker : includes >
User "0..n" - - "0..n" Post : likes >
Session "1..n" - - "1..1" User : authenticates >
User "0..n" - - "0..1" Permission : has >
Permission "0..n" - - "1..1" PermissionLevel : means >
(User, Post) . Point
User "1..1" - - "0..n" Upload : sends >
Upload "0..n" - - "1..1" UploadType : is of >

class Shoot{
    /'
    /+ Target : UUID
    /+ Archer : UUID
    '/
    + Shot : TIMESTAMP
}

class Point{
    /'
    /+ PostID : UUID
    /+ UserID : UUID
    '/
    + Time : TIMESTAMP
}

class Session{
    /'
    /+ UserID : UUID
    '/
    + CreationTime : TIMESTAMP
    + Name : VARCHAR(127)
    + Token : UUID
    + ExpirationDate : DATE
}

class Permission{
    /'
    /+ UserID : UUID
    '/
    /'
    /+ Level : TINYINT
    '/
}

class PermissionLevel{
    + Level : TINYINT
    + Name : VARCHAR(15)
}

class UploadType{
    + Type : TINYINT
    + Name : VARCHAR(15);
}

class Upload{
    + ID : UUID
    + Extension : VARCHAR(7)
    + Type : TINYINT
    + UploaderID : UUID
    + UploadTime : TIMESTAMP
    + ExpirationTime : TIMESTAMP
}
@enduml

@startuml







<style>
  root {
    BackgroundColor white
    FontColor black
    FontName Verdana
    HyperLinkColor blue
    LineColor black
    LineThickness 1
    Margin 5
  }
  caption {
    LineThickness 0
  }
  footer {
    LineThickness 0
  }
  header {
    LineThickness 0
  }
  node {
    MaximumWidth 300
  }
  title {
    FontSize 22
    LineThickness 0
  }
</style>

skinparam ArrowLollipopColor black
skinparam BackgroundColor white
skinparam DefaultFontName Verdana
skinparam DefaultMonospacedFontName Courier
skinparam LifelineStrategy nosolid
skinparam ParticipantPadding 10
skinparam SequenceLifeLineBorderColor black
skinparam Shadowing false
skinparam UseBetaStyle true

skinparam Activity {
  BackgroundColor white
  BarColor black
  BorderColor black
  FontColor black
  FontName Verdana
}
skinparam Boundary {
  FontColor black
}
skinparam Box {
  Padding 5
}
skinparam CircledCharacter {
  FontColor black
  FontName Courier
  Radius 9
}
skinparam Class {
  BackgroundColor white
  BorderColor black
  FontColor black
  FontName Verdana
}
skinparam ClassAttribute {
  FontColor black
  FontName Verdana
}
skinparam ClassStereotype {
  FontColor black
  FontName Verdana
}
skinparam Footer {
  FontColor black
  FontName Verdana
}
skinparam Header {
  FontColor black
  FontName Verdana
}
skinparam Hyperlink {
  Color blue
}
skinparam IconPackage {
  Color black
  BackgroundColor white
}
skinparam IconPrivate {
  Color black
  BackgroundColor white
}
skinparam IconProtected {
  Color black
  BackgroundColor white
}
skinparam IconPublic {
  Color black
  BackgroundColor white
}
skinparam Note {
  FontColor black
  FontName Verdana
}
skinparam Object {
  BorderColor black
}
skinparam Package {
  BorderColor black
  FontColor black
  FontName Verdana
}
skinparam State {
  BackgroundColor white
  BorderColor black
}
skinparam StereotypeA {
  BackgroundColor white
  BorderColor black
}
skinparam StereotypeC {
  BackgroundColor white
  BorderColor black
}
skinparam StereotypeE {
  BackgroundColor white
  BorderColor black
}
skinparam StereotypeI {
  BackgroundColor white
  BorderColor black
}
skinparam StereotypeN {
  BackgroundColor white
  BorderColor black
}
skinparam UseCaseStereoType {
  FontColor black
  FontName Verdana
}
skinparam ClassAttributeIconSize 0

class User{
    + ID : UUID
    + Handle : CHAR(23)
    + Name : VARCHAR(47)
    + Password : CHAR(128)
    + CreationTime : TIMESTAMP
}

class Post{
    + ID : UUID
    + Media : UUID
    + MediaExtension : VARCHAR(7)
    + Content : VARCHAR(4095)
    + CreationTime : TIMESTAMP
}

class Sticker{
    + ID : UUID
    + Name : CHAR(31)
    + Description : VARCHAR(511)
    + CreationTime : TIMESTAMP
}

User "0..n" - - "0..n" User : aims at >
(User, User) . Shoot
User "1..1" - - "0..n" Post : creates >
User "1..1" - - "0..n" Sticker : creates >
Post "0..n" - - "1..1" Sticker : includes >
User "0..n" - - "0..n" Post : likes >
Session "1..n" - - "1..1" User : authenticates >
User "0..n" - - "0..1" Permission : has >
Permission "0..n" - - "1..1" PermissionLevel : means >
(User, Post) . Point
User "1..1" - - "0..n" Upload : sends >
Upload "0..n" - - "1..1" UploadType : is of >

class Shoot{
    + Shot : TIMESTAMP
}

class Point{
    + Time : TIMESTAMP
}

class Session{
    + CreationTime : TIMESTAMP
    + Name : VARCHAR(127)
    + Token : UUID
    + ExpirationDate : DATE
}

class Permission{
}

class PermissionLevel{
    + Level : TINYINT
    + Name : VARCHAR(15)
}

class UploadType{
    + Type : TINYINT
    + Name : VARCHAR(15);
}

class Upload{
    + ID : UUID
    + Extension : VARCHAR(7)
    + Type : TINYINT
    + UploaderID : UUID
    + UploadTime : TIMESTAMP
    + ExpirationTime : TIMESTAMP
}
@enduml

PlantUML version 1.2022.2(Sat Mar 05 17:30:19 CET 2022)
(GPLV2 source distribution)
Java Runtime: OpenJDK Runtime Environment
JVM: OpenJDK 64-Bit Server VM
Default Encoding: UTF-8
Language: de
Country: DE
--></g></svg>