<?xml version="1.0" encoding="UTF-8" standalone="no"?>
<svg xmlns="http://www.w3.org/2000/svg" xmlns:xlink="http://www.w3.org/1999/xlink" contentStyleType="text/css" height="856px" preserveAspectRatio="none" style="width:591px;height:856px;background:#FFFFFF;" version="1.1" viewBox="0 0 591 856" width="591px" zoomAndPan="magnify"><defs/><g><!--MD5=[3fd616f346a44cd59a91eb10b19e157c]
class User--><g id="elem_User"><rect codeLine="4" fill="#FFFFFF" height="141.7813" id="User" rx="2.5" ry="2.5" style="stroke:#000000;stroke-width:1.0;" width="231" x="176.5" y="198"/><ellipse cx="272.25" cy="212" fill="#FFFFFF" rx="9" ry="9" style="stroke:#000000;stroke-width:1.0;"/><path d="M275.2188,217.6406 Q274.6406,217.9375 274,218.0781 Q273.3594,218.2344 272.6563,218.2344 Q270.1563,218.2344 268.8281,216.5938 Q267.5156,214.9375 267.5156,211.8125 Q267.5156,208.6875 268.8281,207.0313 Q270.1563,205.375 272.6563,205.375 Q273.3594,205.375 274,205.5313 Q274.6563,205.6875 275.2188,205.9844 L275.2188,208.7031 Q274.5938,208.125 274,207.8594 Q273.4063,207.5781 272.7813,207.5781 Q271.4375,207.5781 270.75,208.6563 Q270.0625,209.7188 270.0625,211.8125 Q270.0625,213.9063 270.75,214.9844 Q271.4375,216.0469 272.7813,216.0469 Q273.4063,216.0469 274,215.7813 Q274.5938,215.5 275.2188,214.9219 L275.2188,217.6406 Z " fill="#000000"/><text fill="#000000" font-family="Verdana" font-size="14" lengthAdjust="spacing" textLength="32" x="289.75" y="216.8467">User</text><line style="stroke:#000000;stroke-width:1.0;" x1="177.5" x2="406.5" y1="226" y2="226"/><text fill="#000000" font-family="Verdana" font-size="14" lengthAdjust="spacing" textLength="73" x="182.5" y="242.9951">+ID : UUID</text><text fill="#000000" font-family="Verdana" font-size="14" lengthAdjust="spacing" textLength="198" x="182.5" y="259.292">+CreationTime : TIMESTAMP</text><line style="stroke:#000000;stroke-width:1.0;" x1="177.5" x2="406.5" y1="266.5938" y2="266.5938"/><text fill="#000000" font-family="Verdana" font-size="14" lengthAdjust="spacing" textLength="140" x="182.5" y="283.5889">+Handle : CHAR(31)</text><text fill="#000000" font-family="Verdana" font-size="14" lengthAdjust="spacing" textLength="160" x="182.5" y="299.8857">+Name : VARCHAR(63)</text><text fill="#000000" font-family="Verdana" font-size="14" lengthAdjust="spacing" textLength="168" x="182.5" y="316.1826">+Password : CHAR(128)</text><text fill="#000000" font-family="Verdana" font-size="14" lengthAdjust="spacing" textLength="219" x="182.5" y="332.4795">+ProfilePicture : VARCHAR(255)</text></g><!--MD5=[9bb0bdd047fba1a3c8d48282c35b4537]
class Post--><g id="elem_Post"><rect codeLine="13" fill="#FFFFFF" height="109.1875" id="Post" rx="2.5" ry="2.5" style="stroke:#000000;stroke-width:1.0;" width="210" x="29" y="538"/><ellipse cx="114.75" cy="552" fill="#FFFFFF" rx="9" ry="9" style="stroke:#000000;stroke-width:1.0;"/><path d="M117.7188,557.6406 Q117.1406,557.9375 116.5,558.0781 Q115.8594,558.2344 115.1563,558.2344 Q112.6563,558.2344 111.3281,556.5938 Q110.0156,554.9375 110.0156,551.8125 Q110.0156,548.6875 111.3281,547.0313 Q112.6563,545.375 115.1563,545.375 Q115.8594,545.375 116.5,545.5313 Q117.1563,545.6875 117.7188,545.9844 L117.7188,548.7031 Q117.0938,548.125 116.5,547.8594 Q115.9063,547.5781 115.2813,547.5781 Q113.9375,547.5781 113.25,548.6563 Q112.5625,549.7188 112.5625,551.8125 Q112.5625,553.9063 113.25,554.9844 Q113.9375,556.0469 115.2813,556.0469 Q115.9063,556.0469 116.5,555.7813 Q117.0938,555.5 117.7188,554.9219 L117.7188,557.6406 Z " fill="#000000"/><text fill="#000000" font-family="Verdana" font-size="14" lengthAdjust="spacing" textLength="31" x="132.25" y="556.8467">Post</text><line style="stroke:#000000;stroke-width:1.0;" x1="30" x2="238" y1="566" y2="566"/><text fill="#000000" font-family="Verdana" font-size="14" lengthAdjust="spacing" textLength="73" x="35" y="582.9951">+ID : UUID</text><text fill="#000000" font-family="Verdana" font-size="14" lengthAdjust="spacing" textLength="198" x="35" y="599.292">+CreationTime : TIMESTAMP</text><line style="stroke:#000000;stroke-width:1.0;" x1="30" x2="238" y1="606.5938" y2="606.5938"/><text fill="#000000" font-family="Verdana" font-size="14" lengthAdjust="spacing" textLength="170" x="35" y="623.5889">+Media : VARCHAR(255)</text><text fill="#000000" font-family="Verdana" font-size="14" lengthAdjust="spacing" textLength="194" x="35" y="639.8857">+Content : VARCHAR(1023)</text></g><!--MD5=[ef0783ae408c995dc8855cbad06794c9]
class Sticker--><g id="elem_Sticker"><rect codeLine="24" fill="#FFFFFF" height="125.4844" id="Sticker" rx="2.5" ry="2.5" style="stroke:#000000;stroke-width:1.0;" width="220" x="103" y="724"/><ellipse cx="185.75" cy="738" fill="#FFFFFF" rx="9" ry="9" style="stroke:#000000;stroke-width:1.0;"/><path d="M188.7188,743.6406 Q188.1406,743.9375 187.5,744.0781 Q186.8594,744.2344 186.1563,744.2344 Q183.6563,744.2344 182.3281,742.5938 Q181.0156,740.9375 181.0156,737.8125 Q181.0156,734.6875 182.3281,733.0313 Q183.6563,731.375 186.1563,731.375 Q186.8594,731.375 187.5,731.5313 Q188.1563,731.6875 188.7188,731.9844 L188.7188,734.7031 Q188.0938,734.125 187.5,733.8594 Q186.9063,733.5781 186.2813,733.5781 Q184.9375,733.5781 184.25,734.6563 Q183.5625,735.7188 183.5625,737.8125 Q183.5625,739.9063 184.25,740.9844 Q184.9375,742.0469 186.2813,742.0469 Q186.9063,742.0469 187.5,741.7813 Q188.0938,741.5 188.7188,740.9219 L188.7188,743.6406 Z " fill="#000000"/><text fill="#000000" font-family="Verdana" font-size="14" lengthAdjust="spacing" textLength="47" x="203.25" y="742.8467">Sticker</text><line style="stroke:#000000;stroke-width:1.0;" x1="104" x2="322" y1="752" y2="752"/><text fill="#000000" font-family="Verdana" font-size="14" lengthAdjust="spacing" textLength="73" x="109" y="768.9951">+ID : UUID</text><text fill="#000000" font-family="Verdana" font-size="14" lengthAdjust="spacing" textLength="198" x="109" y="785.292">+CreationTime : TIMESTAMP</text><line style="stroke:#000000;stroke-width:1.0;" x1="104" x2="322" y1="792.5938" y2="792.5938"/><text fill="#000000" font-family="Verdana" font-size="14" lengthAdjust="spacing" textLength="132" x="109" y="809.5889">+Name : CHAR(31)</text><text fill="#000000" font-family="Verdana" font-size="14" lengthAdjust="spacing" textLength="187" x="109" y="825.8857">+Location : VARCHAR(255)</text><text fill="#000000" font-family="Verdana" font-size="14" lengthAdjust="spacing" textLength="208" x="109" y="842.1826">+Description : VARCHAR(511)</text></g><!--MD5=[31cff31dc4665adce2a62b3f2e8d5ba6]
class Shoot--><g id="elem_Shoot"><rect codeLine="44" fill="#FFFFFF" height="60.2969" id="Shoot" rx="2.5" ry="2.5" style="stroke:#000000;stroke-width:1.0;" width="150" x="353" y="562.5"/><ellipse cx="403.75" cy="576.5" fill="#FFFFFF" rx="9" ry="9" style="stroke:#000000;stroke-width:1.0;"/><path d="M406.7188,582.1406 Q406.1406,582.4375 405.5,582.5781 Q404.8594,582.7344 404.1563,582.7344 Q401.6563,582.7344 400.3281,581.0938 Q399.0156,579.4375 399.0156,576.3125 Q399.0156,573.1875 400.3281,571.5313 Q401.6563,569.875 404.1563,569.875 Q404.8594,569.875 405.5,570.0313 Q406.1563,570.1875 406.7188,570.4844 L406.7188,573.2031 Q406.0938,572.625 405.5,572.3594 Q404.9063,572.0781 404.2813,572.0781 Q402.9375,572.0781 402.25,573.1563 Q401.5625,574.2188 401.5625,576.3125 Q401.5625,578.4063 402.25,579.4844 Q402.9375,580.5469 404.2813,580.5469 Q404.9063,580.5469 405.5,580.2813 Q406.0938,580 406.7188,579.4219 L406.7188,582.1406 Z " fill="#000000"/><text fill="#000000" font-family="Verdana" font-size="14" lengthAdjust="spacing" textLength="41" x="421.25" y="581.3467">Shoot</text><line style="stroke:#000000;stroke-width:1.0;" x1="354" x2="502" y1="590.5" y2="590.5"/><text fill="#000000" font-family="Verdana" font-size="14" lengthAdjust="spacing" textLength="138" x="359" y="607.4951">+Shot : TIMESTAMP</text><line style="stroke:#000000;stroke-width:1.0;" x1="354" x2="502" y1="614.7969" y2="614.7969"/></g><ellipse cx="428" cy="439" fill="#000000" rx="2" ry="2" style="stroke:none;stroke-width:1.0;"/><!--MD5=[2ca1536628238a7dc78c5d90808014f9]
class Session--><g id="elem_Session"><rect codeLine="60" fill="#FFFFFF" height="109.1875" id="Session" rx="2.5" ry="2.5" style="stroke:#000000;stroke-width:1.0;" width="210" x="187" y="12"/><ellipse cx="260.75" cy="26" fill="#FFFFFF" rx="9" ry="9" style="stroke:#000000;stroke-width:1.0;"/><path d="M263.7188,31.6406 Q263.1406,31.9375 262.5,32.0781 Q261.8594,32.2344 261.1563,32.2344 Q258.6563,32.2344 257.3281,30.5938 Q256.0156,28.9375 256.0156,25.8125 Q256.0156,22.6875 257.3281,21.0313 Q258.6563,19.375 261.1563,19.375 Q261.8594,19.375 262.5,19.5313 Q263.1563,19.6875 263.7188,19.9844 L263.7188,22.7031 Q263.0938,22.125 262.5,21.8594 Q261.9063,21.5781 261.2813,21.5781 Q259.9375,21.5781 259.25,22.6563 Q258.5625,23.7188 258.5625,25.8125 Q258.5625,27.9063 259.25,28.9844 Q259.9375,30.0469 261.2813,30.0469 Q261.9063,30.0469 262.5,29.7813 Q263.0938,29.5 263.7188,28.9219 L263.7188,31.6406 Z " fill="#000000"/><text fill="#000000" font-family="Verdana" font-size="14" lengthAdjust="spacing" textLength="55" x="278.25" y="30.8467">Session</text><line style="stroke:#000000;stroke-width:1.0;" x1="188" x2="396" y1="40" y2="40"/><text fill="#000000" font-family="Verdana" font-size="14" lengthAdjust="spacing" textLength="198" x="193" y="56.9951">+CreationTime : TIMESTAMP</text><text fill="#000000" font-family="Verdana" font-size="14" lengthAdjust="spacing" textLength="103" x="193" y="73.292">+Token : UUID</text><text fill="#000000" font-family="Verdana" font-size="14" lengthAdjust="spacing" textLength="163" x="193" y="89.5889">+ExpirationDate : DATE</text><line style="stroke:#000000;stroke-width:1.0;" x1="188" x2="396" y1="96.8906" y2="96.8906"/><text fill="#000000" font-family="Verdana" font-size="14" lengthAdjust="spacing" textLength="169" x="193" y="113.8857">+Name : VARCHAR(127)</text></g><!--MD5=[378e3e2ca7e24a99f4479cd893fbde36]
class Like--><g id="elem_Like"><rect fill="#FFFFFF" height="44" id="Like" rx="2.5" ry="2.5" style="stroke:#000000;stroke-width:1.0;" width="55" x="50.5" y="417"/><ellipse cx="63.5" cy="431" fill="#FFFFFF" rx="9" ry="9" style="stroke:#000000;stroke-width:1.0;"/><path d="M66.4688,436.6406 Q65.8906,436.9375 65.25,437.0781 Q64.6094,437.2344 63.9063,437.2344 Q61.4063,437.2344 60.0781,435.5938 Q58.7656,433.9375 58.7656,430.8125 Q58.7656,427.6875 60.0781,426.0313 Q61.4063,424.375 63.9063,424.375 Q64.6094,424.375 65.25,424.5313 Q65.9063,424.6875 66.4688,424.9844 L66.4688,427.7031 Q65.8438,427.125 65.25,426.8594 Q64.6563,426.5781 64.0313,426.5781 Q62.6875,426.5781 62,427.6563 Q61.3125,428.7188 61.3125,430.8125 Q61.3125,432.9063 62,433.9844 Q62.6875,435.0469 64.0313,435.0469 Q64.6563,435.0469 65.25,434.7813 Q65.8438,434.5 66.4688,433.9219 L66.4688,436.6406 Z " fill="#000000"/><text fill="#000000" font-family="Verdana" font-size="14" lengthAdjust="spacing" textLength="27" x="75.5" y="435.8467">Like</text><line style="stroke:#000000;stroke-width:1.0;" x1="51.5" x2="104.5" y1="445" y2="445"/><line style="stroke:#000000;stroke-width:1.0;" x1="51.5" x2="104.5" y1="453" y2="453"/></g><ellipse cx="13" cy="439" fill="#000000" rx="2" ry="2" style="stroke:none;stroke-width:1.0;"/><!--MD5=[972bde5337b4335dd91fa5354c932445]
class Point--><g id="elem_Point"><rect codeLine="52" fill="#FFFFFF" height="60.2969" id="Point" rx="2.5" ry="2.5" style="stroke:#000000;stroke-width:1.0;" width="152" x="432" y="36.5"/><ellipse cx="486.75" cy="50.5" fill="#FFFFFF" rx="9" ry="9" style="stroke:#000000;stroke-width:1.0;"/><path d="M489.7188,56.1406 Q489.1406,56.4375 488.5,56.5781 Q487.8594,56.7344 487.1563,56.7344 Q484.6563,56.7344 483.3281,55.0938 Q482.0156,53.4375 482.0156,50.3125 Q482.0156,47.1875 483.3281,45.5313 Q484.6563,43.875 487.1563,43.875 Q487.8594,43.875 488.5,44.0313 Q489.1563,44.1875 489.7188,44.4844 L489.7188,47.2031 Q489.0938,46.625 488.5,46.3594 Q487.9063,46.0781 487.2813,46.0781 Q485.9375,46.0781 485.25,47.1563 Q484.5625,48.2188 484.5625,50.3125 Q484.5625,52.4063 485.25,53.4844 Q485.9375,54.5469 487.2813,54.5469 Q487.9063,54.5469 488.5,54.2813 Q489.0938,54 489.7188,53.4219 L489.7188,56.1406 Z " fill="#000000"/><text fill="#000000" font-family="Verdana" font-size="14" lengthAdjust="spacing" textLength="35" x="504.25" y="55.3467">Point</text><line style="stroke:#000000;stroke-width:1.0;" x1="433" x2="583" y1="64.5" y2="64.5"/><text fill="#000000" font-family="Verdana" font-size="14" lengthAdjust="spacing" textLength="140" x="438" y="81.4951">+Time : TIMESTAMP</text><line style="stroke:#000000;stroke-width:1.0;" x1="433" x2="583" y1="88.7969" y2="88.7969"/></g><!--MD5=[f3f3f541383cac0e60759ff6687d1d82]
link User to apoint114--><g id="link_User_apoint114"><path d="M317.2259,340.0163 C325.1473,356.5462 335.0284,373.2986 347,387 C371.6295,415.1882 415.173,433.8596 425.674,438.0869 " fill="none" id="User-apoint114" style="stroke:#000000;stroke-width:1.0;"/><polygon fill="#000000" points="355.7085,381.92,350.971,373.6734,347.0285,378.0331,355.7085,381.92" style="stroke:#000000;stroke-width:1.0;"/><text fill="#000000" font-family="Verdana" font-size="13" lengthAdjust="spacing" textLength="48" x="361" y="383.0669">aims at</text><text fill="#000000" font-family="Verdana" font-size="13" lengthAdjust="spacing" textLength="24" x="294.5278" y="359.8294">0..n</text></g><!--MD5=[48b3652f891cf8fbaed1a61bcbd6bb80]
link apoint114 to User--><g id="link_apoint114_User"><path d="M428.0627,436.9038 C428.2324,428.0722 427.9453,393.2781 414,370 C407.6411,359.3854 399.748,349.3816 391.0567,340.102 " fill="none" id="apoint114-User" style="stroke:#000000;stroke-width:1.0;"/><text fill="#000000" font-family="Verdana" font-size="13" lengthAdjust="spacing" textLength="24" x="375.6263" y="359.9236">0..n</text></g><!--MD5=[786197b2c0a4970f10da37cd37e68534]
link apoint114 to Shoot--><g id="link_apoint114_Shoot"><path d="M428,441.1699 C428,454.106 428,521.8549 428,562.1877 " fill="none" id="apoint114-Shoot" style="stroke:#000000;stroke-width:1.0;stroke-dasharray:7.0,7.0;"/></g><!--MD5=[77c575690b0287b9077f2f97ff7c450d]
link User to Post--><g id="link_User_Post"><path codeLine="37" d="M245.8453,340.2932 C231.2607,364.2006 215.6605,391.3178 203,417 C183.6023,456.3489 165.6065,502.5891 152.8597,537.7252 " fill="none" id="User-Post" style="stroke:#000000;stroke-width:1.0;"/><polygon fill="#000000" points="205.8696,443.5898,212.3823,436.6591,207.0647,434.1547,205.8696,443.5898" style="stroke:#000000;stroke-width:1.0;"/><text fill="#000000" font-family="Verdana" font-size="13" lengthAdjust="spacing" textLength="48" x="217" y="443.5669">creates</text><text fill="#000000" font-family="Verdana" font-size="13" lengthAdjust="spacing" textLength="24" x="216.3024" y="359.8868">1..1</text><text fill="#000000" font-family="Verdana" font-size="13" lengthAdjust="spacing" textLength="24" x="129.7386" y="526.8096">0..n</text></g><!--MD5=[ca4e51c2df119844c043e29d8f2dffda]
link User to Sticker--><g id="link_User_Sticker"><path codeLine="38" d="M291.6375,340.1632 C289.6482,425.5808 281.2553,572.5052 249,694 C246.3911,703.8267 243.0726,714.0371 239.5102,723.9324 " fill="none" id="User-Sticker" style="stroke:#000000;stroke-width:1.0;"/><polygon fill="#000000" points="287.327,504.5209,291.4566,495.9537,285.6323,495.1626,287.327,504.5209" style="stroke:#000000;stroke-width:1.0;"/><text fill="#000000" font-family="Verdana" font-size="13" lengthAdjust="spacing" textLength="48" x="297" y="504.0669">creates</text><text fill="#000000" font-family="Verdana" font-size="13" lengthAdjust="spacing" textLength="24" x="266.4592" y="359.7444">1..1</text><text fill="#000000" font-family="Verdana" font-size="13" lengthAdjust="spacing" textLength="24" x="217.1879" y="712.8774">0..n</text></g><!--MD5=[b5776459882a3c2d26837e1f3ef5d47a]
link Post to Sticker--><g id="link_Post_Sticker"><path codeLine="39" d="M156.2161,647.0561 C165.9369,670.9272 177.3972,699.0702 187.4673,723.7995 " fill="none" id="Post-Sticker" style="stroke:#000000;stroke-width:1.0;"/><polygon fill="#000000" points="180.8857,690.1972,180.1963,680.7116,174.7525,682.9284,180.8857,690.1972" style="stroke:#000000;stroke-width:1.0;"/><text fill="#000000" font-family="Verdana" font-size="13" lengthAdjust="spacing" textLength="52" x="188" y="690.0669">includes</text><text fill="#000000" font-family="Verdana" font-size="13" lengthAdjust="spacing" textLength="24" x="133.525" y="667.0704">0..n</text><text fill="#000000" font-family="Verdana" font-size="13" lengthAdjust="spacing" textLength="24" x="159.1276" y="712.7291">1..1</text></g><!--MD5=[f205aee3284cdd9814e4079314e77301]
link Session to User--><g id="link_Session_User"><path codeLine="41" d="M292,121.0327 C292,144.6957 292,172.7189 292,197.9786 " fill="none" id="Session-User" style="stroke:#000000;stroke-width:1.0;"/><polygon fill="#000000" points="297,164.5664,299.9389,155.5213,294.0611,155.5213,297,164.5664" style="stroke:#000000;stroke-width:1.0;"/><text fill="#000000" font-family="Verdana" font-size="13" lengthAdjust="spacing" textLength="88" x="306" y="164.0669">authenticates</text><text fill="#000000" font-family="Verdana" font-size="13" lengthAdjust="spacing" textLength="24" x="266.3875" y="141.4316">1..n</text><text fill="#000000" font-family="Verdana" font-size="13" lengthAdjust="spacing" textLength="24" x="266.7625" y="186.9661">1..1</text></g><!--MD5=[36ba3699c105878020cad28adfa28423]
link User to apoint126--><g id="link_User_apoint126"><path d="M176.3674,330.5986 C153.2352,343.3499 129.2222,356.8962 107,370 C73.4385,389.7902 62.8143,391.9174 33,417 C25.1002,423.6461 17.3368,433.3354 14.3183,437.2564 " fill="none" id="User-apoint126" style="stroke:#000000;stroke-width:1.0;"/><polygon fill="#000000" points="107.8235,381.3153,116.9947,378.7974,113.7631,373.8876,107.8235,381.3153" style="stroke:#000000;stroke-width:1.0;"/><text fill="#000000" font-family="Verdana" font-size="13" lengthAdjust="spacing" textLength="28" x="121" y="383.0669">likes</text><text fill="#000000" font-family="Verdana" font-size="13" lengthAdjust="spacing" textLength="24" x="144.5898" y="330.9728">0..n</text></g><!--MD5=[c3ada15426a4b9a8fbe307104cf04f69]
link apoint126 to Post--><g id="link_apoint126_Post"><path d="M14.3589,440.7239 C21.9403,450.3416 59.7882,498.3553 90.914,537.8413 " fill="none" id="apoint126-Post" style="stroke:#000000;stroke-width:1.0;"/><text fill="#000000" font-family="Verdana" font-size="13" lengthAdjust="spacing" textLength="24" x="59.8561" y="526.9406">0..n</text></g><!--MD5=[8c1546fb99d6849a2059ef7b2e513606]
link apoint126 to Like--><g id="link_apoint126_Like"><path d="M15.0313,439 C26.8379,439 38.6445,439 50.4512,439 " fill="none" id="apoint126-Like" style="stroke:#000000;stroke-width:1.0;stroke-dasharray:7.0,7.0;"/></g><!--MD5=[5545932a2310921ecfcc1666822ad7fb]
@startuml
!theme plain
skinparam ClassAttributeIconSize 0

class User{
    + ID : UUID
    + Handle : CHAR(31)
    + Name : VARCHAR(63)
    + Password : CHAR(128)
    + ProfilePicture : VARCHAR(255)
    + CreationTime : TIMESTAMP
}

class Post{
    + ID : UUID
    /'
    /+ CreatorID : UUID
    /+ StickerID : UUID
    '/
    + Media : VARCHAR(255)
    + Content : VARCHAR(1023)
    + CreationTime : TIMESTAMP
}

class Sticker{
    + ID : UUID
    + Name : CHAR(31)
    + Location : VARCHAR(255)
    /'
    /+ CreatorID : UUID
    '/
    + Description : VARCHAR(511)
    + CreationTime : TIMESTAMP
}

User "0..n" - - "0..n" User : aims at >
(User, User) . Shoot
User "1..1" - - "0..n" Post : creates >
User "1..1" - - "0..n" Sticker : creates >
Post "0..n" - - "1..1" Sticker : includes >
User "0..n" - - "0..n" Post : likes >
Session "1..n" - - "1..1" User : authenticates >
(User, Post) . Like

class Shoot{
    /'
    /+ Target : UUID
    /+ Archer : UUID
    '/
    + Shot : TIMESTAMP
}

class Point{
    /'
    /+ PostID : UUID
    /+ UserID : UUID
    '/
    + Time : TIMESTAMP
}

class Session{
    /'
    /+ UserID : UUID
    '/
    + CreationTime : TIMESTAMP
    + Name : VARCHAR(127)
    + Token : UUID
    + ExpirationDate : DATE
}
@enduml

@startuml







<style>
  root {
    BackgroundColor white
    FontColor black
    FontName Verdana
    HyperLinkColor blue
    LineColor black
    LineThickness 1
    Margin 5
  }
  caption {
    LineThickness 0
  }
  footer {
    LineThickness 0
  }
  header {
    LineThickness 0
  }
  node {
    MaximumWidth 300
  }
  title {
    FontSize 22
    LineThickness 0
  }
</style>

skinparam ArrowLollipopColor black
skinparam BackgroundColor white
skinparam DefaultFontName Verdana
skinparam DefaultMonospacedFontName Courier
skinparam LifelineStrategy nosolid
skinparam ParticipantPadding 10
skinparam SequenceLifeLineBorderColor black
skinparam Shadowing false
skinparam UseBetaStyle true

skinparam Activity {
  BackgroundColor white
  BarColor black
  BorderColor black
  FontColor black
  FontName Verdana
}
skinparam Boundary {
  FontColor black
}
skinparam Box {
  Padding 5
}
skinparam CircledCharacter {
  FontColor black
  FontName Courier
  Radius 9
}
skinparam Class {
  BackgroundColor white
  BorderColor black
  FontColor black
  FontName Verdana
}
skinparam ClassAttribute {
  FontColor black
  FontName Verdana
}
skinparam ClassStereotype {
  FontColor black
  FontName Verdana
}
skinparam Footer {
  FontColor black
  FontName Verdana
}
skinparam Header {
  FontColor black
  FontName Verdana
}
skinparam Hyperlink {
  Color blue
}
skinparam IconPackage {
  Color black
  BackgroundColor white
}
skinparam IconPrivate {
  Color black
  BackgroundColor white
}
skinparam IconProtected {
  Color black
  BackgroundColor white
}
skinparam IconPublic {
  Color black
  BackgroundColor white
}
skinparam Note {
  FontColor black
  FontName Verdana
}
skinparam Object {
  BorderColor black
}
skinparam Package {
  BorderColor black
  FontColor black
  FontName Verdana
}
skinparam State {
  BackgroundColor white
  BorderColor black
}
skinparam StereotypeA {
  BackgroundColor white
  BorderColor black
}
skinparam StereotypeC {
  BackgroundColor white
  BorderColor black
}
skinparam StereotypeE {
  BackgroundColor white
  BorderColor black
}
skinparam StereotypeI {
  BackgroundColor white
  BorderColor black
}
skinparam StereotypeN {
  BackgroundColor white
  BorderColor black
}
skinparam UseCaseStereoType {
  FontColor black
  FontName Verdana
}
skinparam ClassAttributeIconSize 0

class User{
    + ID : UUID
    + Handle : CHAR(31)
    + Name : VARCHAR(63)
    + Password : CHAR(128)
    + ProfilePicture : VARCHAR(255)
    + CreationTime : TIMESTAMP
}

class Post{
    + ID : UUID
    + Media : VARCHAR(255)
    + Content : VARCHAR(1023)
    + CreationTime : TIMESTAMP
}

class Sticker{
    + ID : UUID
    + Name : CHAR(31)
    + Location : VARCHAR(255)
    + Description : VARCHAR(511)
    + CreationTime : TIMESTAMP
}

User "0..n" - - "0..n" User : aims at >
(User, User) . Shoot
User "1..1" - - "0..n" Post : creates >
User "1..1" - - "0..n" Sticker : creates >
Post "0..n" - - "1..1" Sticker : includes >
User "0..n" - - "0..n" Post : likes >
Session "1..n" - - "1..1" User : authenticates >
(User, Post) . Like

class Shoot{
    + Shot : TIMESTAMP
}

class Point{
    + Time : TIMESTAMP
}

class Session{
    + CreationTime : TIMESTAMP
    + Name : VARCHAR(127)
    + Token : UUID
    + ExpirationDate : DATE
}
@enduml

PlantUML version 1.2022.2(Sat Mar 05 17:30:19 CET 2022)
(GPLV2 source distribution)
Java Runtime: OpenJDK Runtime Environment
JVM: OpenJDK 64-Bit Server VM
Default Encoding: UTF-8
Language: de
Country: DE
--></g></svg>