<?xml version="1.0" encoding="UTF-8" standalone="no"?>
<svg xmlns="http://www.w3.org/2000/svg" xmlns:xlink="http://www.w3.org/1999/xlink" contentStyleType="text/css" height="872px" preserveAspectRatio="none" style="width:606px;height:872px;background:#FFFFFF;" version="1.1" viewBox="0 0 606 872" width="606px" zoomAndPan="magnify"><defs/><g><!--MD5=[3fd616f346a44cd59a91eb10b19e157c]
class User--><g id="elem_User"><rect codeLine="4" fill="#FFFFFF" height="141.7813" id="User" rx="2.5" ry="2.5" style="stroke:#000000;stroke-width:1.0;" width="231" x="272.5" y="198"/><ellipse cx="368.25" cy="212" fill="#FFFFFF" rx="9" ry="9" style="stroke:#000000;stroke-width:1.0;"/><path d="M371.2188,217.6406 Q370.6406,217.9375 370,218.0781 Q369.3594,218.2344 368.6563,218.2344 Q366.1563,218.2344 364.8281,216.5938 Q363.5156,214.9375 363.5156,211.8125 Q363.5156,208.6875 364.8281,207.0313 Q366.1563,205.375 368.6563,205.375 Q369.3594,205.375 370,205.5313 Q370.6563,205.6875 371.2188,205.9844 L371.2188,208.7031 Q370.5938,208.125 370,207.8594 Q369.4063,207.5781 368.7813,207.5781 Q367.4375,207.5781 366.75,208.6563 Q366.0625,209.7188 366.0625,211.8125 Q366.0625,213.9063 366.75,214.9844 Q367.4375,216.0469 368.7813,216.0469 Q369.4063,216.0469 370,215.7813 Q370.5938,215.5 371.2188,214.9219 L371.2188,217.6406 Z " fill="#000000"/><text fill="#000000" font-family="Verdana" font-size="14" lengthAdjust="spacing" textLength="32" x="385.75" y="216.8467">User</text><line style="stroke:#000000;stroke-width:1.0;" x1="273.5" x2="502.5" y1="226" y2="226"/><text fill="#000000" font-family="Verdana" font-size="14" lengthAdjust="spacing" textLength="73" x="278.5" y="242.9951">+ID : UUID</text><text fill="#000000" font-family="Verdana" font-size="14" lengthAdjust="spacing" textLength="198" x="278.5" y="259.292">+CreationTime : TIMESTAMP</text><line style="stroke:#000000;stroke-width:1.0;" x1="273.5" x2="502.5" y1="266.5938" y2="266.5938"/><text fill="#000000" font-family="Verdana" font-size="14" lengthAdjust="spacing" textLength="140" x="278.5" y="283.5889">+Handle : CHAR(31)</text><text fill="#000000" font-family="Verdana" font-size="14" lengthAdjust="spacing" textLength="160" x="278.5" y="299.8857">+Name : VARCHAR(63)</text><text fill="#000000" font-family="Verdana" font-size="14" lengthAdjust="spacing" textLength="168" x="278.5" y="316.1826">+Password : CHAR(128)</text><text fill="#000000" font-family="Verdana" font-size="14" lengthAdjust="spacing" textLength="219" x="278.5" y="332.4795">+ProfilePicture : VARCHAR(255)</text></g><!--MD5=[9bb0bdd047fba1a3c8d48282c35b4537]
class Post--><g id="elem_Post"><rect codeLine="13" fill="#FFFFFF" height="109.1875" id="Post" rx="2.5" ry="2.5" style="stroke:#000000;stroke-width:1.0;" width="210" x="125" y="554"/><ellipse cx="210.75" cy="568" fill="#FFFFFF" rx="9" ry="9" style="stroke:#000000;stroke-width:1.0;"/><path d="M213.7188,573.6406 Q213.1406,573.9375 212.5,574.0781 Q211.8594,574.2344 211.1563,574.2344 Q208.6563,574.2344 207.3281,572.5938 Q206.0156,570.9375 206.0156,567.8125 Q206.0156,564.6875 207.3281,563.0313 Q208.6563,561.375 211.1563,561.375 Q211.8594,561.375 212.5,561.5313 Q213.1563,561.6875 213.7188,561.9844 L213.7188,564.7031 Q213.0938,564.125 212.5,563.8594 Q211.9063,563.5781 211.2813,563.5781 Q209.9375,563.5781 209.25,564.6563 Q208.5625,565.7188 208.5625,567.8125 Q208.5625,569.9063 209.25,570.9844 Q209.9375,572.0469 211.2813,572.0469 Q211.9063,572.0469 212.5,571.7813 Q213.0938,571.5 213.7188,570.9219 L213.7188,573.6406 Z " fill="#000000"/><text fill="#000000" font-family="Verdana" font-size="14" lengthAdjust="spacing" textLength="31" x="228.25" y="572.8467">Post</text><line style="stroke:#000000;stroke-width:1.0;" x1="126" x2="334" y1="582" y2="582"/><text fill="#000000" font-family="Verdana" font-size="14" lengthAdjust="spacing" textLength="73" x="131" y="598.9951">+ID : UUID</text><text fill="#000000" font-family="Verdana" font-size="14" lengthAdjust="spacing" textLength="198" x="131" y="615.292">+CreationTime : TIMESTAMP</text><line style="stroke:#000000;stroke-width:1.0;" x1="126" x2="334" y1="622.5938" y2="622.5938"/><text fill="#000000" font-family="Verdana" font-size="14" lengthAdjust="spacing" textLength="170" x="131" y="639.5889">+Media : VARCHAR(255)</text><text fill="#000000" font-family="Verdana" font-size="14" lengthAdjust="spacing" textLength="194" x="131" y="655.8857">+Content : VARCHAR(1023)</text></g><!--MD5=[ef0783ae408c995dc8855cbad06794c9]
class Sticker--><g id="elem_Sticker"><rect codeLine="24" fill="#FFFFFF" height="125.4844" id="Sticker" rx="2.5" ry="2.5" style="stroke:#000000;stroke-width:1.0;" width="220" x="199" y="740"/><ellipse cx="281.75" cy="754" fill="#FFFFFF" rx="9" ry="9" style="stroke:#000000;stroke-width:1.0;"/><path d="M284.7188,759.6406 Q284.1406,759.9375 283.5,760.0781 Q282.8594,760.2344 282.1563,760.2344 Q279.6563,760.2344 278.3281,758.5938 Q277.0156,756.9375 277.0156,753.8125 Q277.0156,750.6875 278.3281,749.0313 Q279.6563,747.375 282.1563,747.375 Q282.8594,747.375 283.5,747.5313 Q284.1563,747.6875 284.7188,747.9844 L284.7188,750.7031 Q284.0938,750.125 283.5,749.8594 Q282.9063,749.5781 282.2813,749.5781 Q280.9375,749.5781 280.25,750.6563 Q279.5625,751.7188 279.5625,753.8125 Q279.5625,755.9063 280.25,756.9844 Q280.9375,758.0469 282.2813,758.0469 Q282.9063,758.0469 283.5,757.7813 Q284.0938,757.5 284.7188,756.9219 L284.7188,759.6406 Z " fill="#000000"/><text fill="#000000" font-family="Verdana" font-size="14" lengthAdjust="spacing" textLength="47" x="299.25" y="758.8467">Sticker</text><line style="stroke:#000000;stroke-width:1.0;" x1="200" x2="418" y1="768" y2="768"/><text fill="#000000" font-family="Verdana" font-size="14" lengthAdjust="spacing" textLength="73" x="205" y="784.9951">+ID : UUID</text><text fill="#000000" font-family="Verdana" font-size="14" lengthAdjust="spacing" textLength="198" x="205" y="801.292">+CreationTime : TIMESTAMP</text><line style="stroke:#000000;stroke-width:1.0;" x1="200" x2="418" y1="808.5938" y2="808.5938"/><text fill="#000000" font-family="Verdana" font-size="14" lengthAdjust="spacing" textLength="132" x="205" y="825.5889">+Name : CHAR(31)</text><text fill="#000000" font-family="Verdana" font-size="14" lengthAdjust="spacing" textLength="187" x="205" y="841.8857">+Location : VARCHAR(255)</text><text fill="#000000" font-family="Verdana" font-size="14" lengthAdjust="spacing" textLength="208" x="205" y="858.1826">+Description : VARCHAR(511)</text></g><!--MD5=[31cff31dc4665adce2a62b3f2e8d5ba6]
class Shoot--><g id="elem_Shoot"><rect codeLine="44" fill="#FFFFFF" height="60.2969" id="Shoot" rx="2.5" ry="2.5" style="stroke:#000000;stroke-width:1.0;" width="150" x="449" y="578.5"/><ellipse cx="499.75" cy="592.5" fill="#FFFFFF" rx="9" ry="9" style="stroke:#000000;stroke-width:1.0;"/><path d="M502.7188,598.1406 Q502.1406,598.4375 501.5,598.5781 Q500.8594,598.7344 500.1563,598.7344 Q497.6563,598.7344 496.3281,597.0938 Q495.0156,595.4375 495.0156,592.3125 Q495.0156,589.1875 496.3281,587.5313 Q497.6563,585.875 500.1563,585.875 Q500.8594,585.875 501.5,586.0313 Q502.1563,586.1875 502.7188,586.4844 L502.7188,589.2031 Q502.0938,588.625 501.5,588.3594 Q500.9063,588.0781 500.2813,588.0781 Q498.9375,588.0781 498.25,589.1563 Q497.5625,590.2188 497.5625,592.3125 Q497.5625,594.4063 498.25,595.4844 Q498.9375,596.5469 500.2813,596.5469 Q500.9063,596.5469 501.5,596.2813 Q502.0938,596 502.7188,595.4219 L502.7188,598.1406 Z " fill="#000000"/><text fill="#000000" font-family="Verdana" font-size="14" lengthAdjust="spacing" textLength="41" x="517.25" y="597.3467">Shoot</text><line style="stroke:#000000;stroke-width:1.0;" x1="450" x2="598" y1="606.5" y2="606.5"/><text fill="#000000" font-family="Verdana" font-size="14" lengthAdjust="spacing" textLength="138" x="455" y="623.4951">+Shot : TIMESTAMP</text><line style="stroke:#000000;stroke-width:1.0;" x1="450" x2="598" y1="630.7969" y2="630.7969"/></g><ellipse cx="524" cy="447" fill="#000000" rx="2" ry="2" style="stroke:none;stroke-width:1.0;"/><!--MD5=[2ca1536628238a7dc78c5d90808014f9]
class Session--><g id="elem_Session"><rect codeLine="60" fill="#FFFFFF" height="109.1875" id="Session" rx="2.5" ry="2.5" style="stroke:#000000;stroke-width:1.0;" width="210" x="283" y="12"/><ellipse cx="356.75" cy="26" fill="#FFFFFF" rx="9" ry="9" style="stroke:#000000;stroke-width:1.0;"/><path d="M359.7188,31.6406 Q359.1406,31.9375 358.5,32.0781 Q357.8594,32.2344 357.1563,32.2344 Q354.6563,32.2344 353.3281,30.5938 Q352.0156,28.9375 352.0156,25.8125 Q352.0156,22.6875 353.3281,21.0313 Q354.6563,19.375 357.1563,19.375 Q357.8594,19.375 358.5,19.5313 Q359.1563,19.6875 359.7188,19.9844 L359.7188,22.7031 Q359.0938,22.125 358.5,21.8594 Q357.9063,21.5781 357.2813,21.5781 Q355.9375,21.5781 355.25,22.6563 Q354.5625,23.7188 354.5625,25.8125 Q354.5625,27.9063 355.25,28.9844 Q355.9375,30.0469 357.2813,30.0469 Q357.9063,30.0469 358.5,29.7813 Q359.0938,29.5 359.7188,28.9219 L359.7188,31.6406 Z " fill="#000000"/><text fill="#000000" font-family="Verdana" font-size="14" lengthAdjust="spacing" textLength="55" x="374.25" y="30.8467">Session</text><line style="stroke:#000000;stroke-width:1.0;" x1="284" x2="492" y1="40" y2="40"/><text fill="#000000" font-family="Verdana" font-size="14" lengthAdjust="spacing" textLength="198" x="289" y="56.9951">+CreationTime : TIMESTAMP</text><text fill="#000000" font-family="Verdana" font-size="14" lengthAdjust="spacing" textLength="103" x="289" y="73.292">+Token : UUID</text><text fill="#000000" font-family="Verdana" font-size="14" lengthAdjust="spacing" textLength="163" x="289" y="89.5889">+ExpirationDate : DATE</text><line style="stroke:#000000;stroke-width:1.0;" x1="284" x2="492" y1="96.8906" y2="96.8906"/><text fill="#000000" font-family="Verdana" font-size="14" lengthAdjust="spacing" textLength="169" x="289" y="113.8857">+Name : VARCHAR(127)</text></g><!--MD5=[378e3e2ca7e24a99f4479cd893fbde36]
class Like--><g id="elem_Like"><rect codeLine="52" fill="#FFFFFF" height="60.2969" id="Like" rx="2.5" ry="2.5" style="stroke:#000000;stroke-width:1.0;" width="152" x="50" y="417"/><ellipse cx="108.75" cy="431" fill="#FFFFFF" rx="9" ry="9" style="stroke:#000000;stroke-width:1.0;"/><path d="M111.7188,436.6406 Q111.1406,436.9375 110.5,437.0781 Q109.8594,437.2344 109.1563,437.2344 Q106.6563,437.2344 105.3281,435.5938 Q104.0156,433.9375 104.0156,430.8125 Q104.0156,427.6875 105.3281,426.0313 Q106.6563,424.375 109.1563,424.375 Q109.8594,424.375 110.5,424.5313 Q111.1563,424.6875 111.7188,424.9844 L111.7188,427.7031 Q111.0938,427.125 110.5,426.8594 Q109.9063,426.5781 109.2813,426.5781 Q107.9375,426.5781 107.25,427.6563 Q106.5625,428.7188 106.5625,430.8125 Q106.5625,432.9063 107.25,433.9844 Q107.9375,435.0469 109.2813,435.0469 Q109.9063,435.0469 110.5,434.7813 Q111.0938,434.5 111.7188,433.9219 L111.7188,436.6406 Z " fill="#000000"/><text fill="#000000" font-family="Verdana" font-size="14" lengthAdjust="spacing" textLength="27" x="126.25" y="435.8467">Like</text><line style="stroke:#000000;stroke-width:1.0;" x1="51" x2="201" y1="445" y2="445"/><text fill="#000000" font-family="Verdana" font-size="14" lengthAdjust="spacing" textLength="140" x="56" y="461.9951">+Time : TIMESTAMP</text><line style="stroke:#000000;stroke-width:1.0;" x1="51" x2="201" y1="469.2969" y2="469.2969"/></g><ellipse cx="13" cy="447" fill="#000000" rx="2" ry="2" style="stroke:none;stroke-width:1.0;"/><!--MD5=[1c4212da3798bae21280a12e943234d9]
link User to apoint92--><g id="link_User_apoint92"><path d="M414.1761,340.0799 C422.0257,356.4276 431.6358,373.0813 443,387 C467.7923,417.3651 511.2137,440.5288 521.6817,445.8452 " fill="none" id="User-apoint92" style="stroke:#000000;stroke-width:1.0;"/><polygon fill="#000000" points="451.5643,382.073,447.1776,373.6345,443.0553,377.8246,451.5643,382.073" style="stroke:#000000;stroke-width:1.0;"/><text fill="#000000" font-family="Verdana" font-size="13" lengthAdjust="spacing" textLength="48" x="457" y="383.0669">aims at</text><text fill="#000000" font-family="Verdana" font-size="13" lengthAdjust="spacing" textLength="24" x="391.5716" y="359.8993">0..n</text></g><!--MD5=[2ed9f825f63496cd98400af50d2b6563]
link apoint92 to User--><g id="link_apoint92_User"><path d="M524.1191,444.9226 C524.5625,435.5197 525.3749,396.2664 510,370 C503.8187,359.4399 496.1,349.4993 487.5652,340.2818 " fill="none" id="apoint92-User" style="stroke:#000000;stroke-width:1.0;"/><text fill="#000000" font-family="Verdana" font-size="13" lengthAdjust="spacing" textLength="24" x="471.9113" y="359.8743">0..n</text></g><!--MD5=[36a447b0b9242f31afea697698702d99]
link apoint92 to Shoot--><g id="link_apoint92_Shoot"><path d="M524,449.042 C524,462.1869 524,535.6804 524,578.1586 " fill="none" id="apoint92-Shoot" style="stroke:#000000;stroke-width:1.0;stroke-dasharray:7.0,7.0;"/></g><!--MD5=[77c575690b0287b9077f2f97ff7c450d]
link User to Post--><g id="link_User_Post"><path codeLine="37" d="M341.4082,340.0816 C326.7959,363.9756 311.2898,391.1383 299,417 C277.7649,461.6854 259.1197,514.7684 246.5825,553.7001 " fill="none" id="User-Post" style="stroke:#000000;stroke-width:1.0;"/><polygon fill="#000000" points="301.9714,451.6364,308.3274,444.5616,302.955,442.1768,301.9714,451.6364" style="stroke:#000000;stroke-width:1.0;"/><text fill="#000000" font-family="Verdana" font-size="13" lengthAdjust="spacing" textLength="48" x="313" y="451.5669">creates</text><text fill="#000000" font-family="Verdana" font-size="13" lengthAdjust="spacing" textLength="24" x="311.6406" y="359.9012">1..1</text><text fill="#000000" font-family="Verdana" font-size="13" lengthAdjust="spacing" textLength="24" x="223.1696" y="542.7813">0..n</text></g><!--MD5=[ca4e51c2df119844c043e29d8f2dffda]
link User to Sticker--><g id="link_User_Sticker"><path codeLine="38" d="M388.0964,340.1326 C386.6232,428.3552 378.803,582.6756 345,710 C342.3911,719.8267 339.0726,730.0371 335.5102,739.9324 " fill="none" id="User-Sticker" style="stroke:#000000;stroke-width:1.0;"/><polygon fill="#000000" points="383.348,520.5237,387.4413,511.9391,381.6137,511.1726,383.348,520.5237" style="stroke:#000000;stroke-width:1.0;"/><text fill="#000000" font-family="Verdana" font-size="13" lengthAdjust="spacing" textLength="48" x="393" y="520.0669">creates</text><text fill="#000000" font-family="Verdana" font-size="13" lengthAdjust="spacing" textLength="24" x="362.9246" y="359.9572">1..1</text><text fill="#000000" font-family="Verdana" font-size="13" lengthAdjust="spacing" textLength="24" x="313.1879" y="728.8774">0..n</text></g><!--MD5=[b5776459882a3c2d26837e1f3ef5d47a]
link Post to Sticker--><g id="link_Post_Sticker"><path codeLine="39" d="M252.2161,663.0561 C261.9369,686.9272 273.3972,715.0702 283.4673,739.7995 " fill="none" id="Post-Sticker" style="stroke:#000000;stroke-width:1.0;"/><polygon fill="#000000" points="276.8857,706.1972,276.1963,696.7116,270.7525,698.9284,276.8857,706.1972" style="stroke:#000000;stroke-width:1.0;"/><text fill="#000000" font-family="Verdana" font-size="13" lengthAdjust="spacing" textLength="52" x="284" y="706.0669">includes</text><text fill="#000000" font-family="Verdana" font-size="13" lengthAdjust="spacing" textLength="24" x="229.525" y="683.0704">0..n</text><text fill="#000000" font-family="Verdana" font-size="13" lengthAdjust="spacing" textLength="24" x="255.1276" y="728.7291">1..1</text></g><!--MD5=[f205aee3284cdd9814e4079314e77301]
link Session to User--><g id="link_Session_User"><path codeLine="41" d="M388,121.0327 C388,144.6957 388,172.7189 388,197.9786 " fill="none" id="Session-User" style="stroke:#000000;stroke-width:1.0;"/><polygon fill="#000000" points="393,164.5664,395.9389,155.5213,390.0611,155.5213,393,164.5664" style="stroke:#000000;stroke-width:1.0;"/><text fill="#000000" font-family="Verdana" font-size="13" lengthAdjust="spacing" textLength="88" x="402" y="164.0669">authenticates</text><text fill="#000000" font-family="Verdana" font-size="13" lengthAdjust="spacing" textLength="24" x="362.3875" y="141.4316">1..n</text><text fill="#000000" font-family="Verdana" font-size="13" lengthAdjust="spacing" textLength="24" x="362.7625" y="186.9661">1..1</text></g><!--MD5=[02f9bf0dd62462a73205e5257e50ba31]
link User to apoint104--><g id="link_User_apoint104"><path d="M272.1431,297.5362 C197.3854,320.3855 101.4891,358.4571 32,417 C22.1931,425.262 15.7795,439.903 13.7191,445.1028 " fill="none" id="User-apoint104" style="stroke:#000000;stroke-width:1.0;"/><polygon fill="#000000" points="92.658,381.0458,101.9701,379.1127,99.0554,374.0084,92.658,381.0458" style="stroke:#000000;stroke-width:1.0;"/><text fill="#000000" font-family="Verdana" font-size="13" lengthAdjust="spacing" textLength="28" x="106" y="383.0669">likes</text><text fill="#000000" font-family="Verdana" font-size="13" lengthAdjust="spacing" textLength="24" x="240.3518" y="295.8957">0..n</text></g><!--MD5=[a8f6df0a134bf41c3262d86469230e57]
link apoint104 to Post--><g id="link_apoint104_Post"><path d="M13.9446,449.0979 C16.3614,454.298 23.2039,468.0111 32,477 C60.6446,506.2725 96.8394,532.6129 130.4245,553.8948 " fill="none" id="apoint104-Post" style="stroke:#000000;stroke-width:1.0;"/><text fill="#000000" font-family="Verdana" font-size="13" lengthAdjust="spacing" textLength="24" x="92.8262" y="543.3893">0..n</text></g><!--MD5=[440dccd3d62ea1f344c99e9691977621]
link apoint104 to Like--><g id="link_apoint104_Like"><path d="M15.207,447 C26.748,447 38.2889,447 49.8298,447 " fill="none" id="apoint104-Like" style="stroke:#000000;stroke-width:1.0;stroke-dasharray:7.0,7.0;"/></g><!--MD5=[8fdc331e904dc2bf778794cf5bc63904]
@startuml
!theme plain
skinparam ClassAttributeIconSize 0

class User{
    + ID : UUID
    + Handle : CHAR(31)
    + Name : VARCHAR(63)
    + Password : CHAR(128)
    + ProfilePicture : VARCHAR(255)
    + CreationTime : TIMESTAMP
}

class Post{
    + ID : UUID
    /'
    /+ CreatorID : UUID
    /+ StickerID : UUID
    '/
    + Media : VARCHAR(255)
    + Content : VARCHAR(1023)
    + CreationTime : TIMESTAMP
}

class Sticker{
    + ID : UUID
    + Name : CHAR(31)
    + Location : VARCHAR(255)
    /'
    /+ CreatorID : UUID
    '/
    + Description : VARCHAR(511)
    + CreationTime : TIMESTAMP
}

User "0..n" - - "0..n" User : aims at >
(User, User) . Shoot
User "1..1" - - "0..n" Post : creates >
User "1..1" - - "0..n" Sticker : creates >
Post "0..n" - - "1..1" Sticker : includes >
User "0..n" - - "0..n" Post : likes >
Session "1..n" - - "1..1" User : authenticates >
(User, Post) . Like

class Shoot{
    /'
    /+ Target : UUID
    /+ Archer : UUID
    '/
    + Shot : TIMESTAMP
}

class Like{
    /'
    /+ PostID : UUID
    /+ UserID : UUID
    '/
    + Time : TIMESTAMP
}

class Session{
    /'
    /+ UserID : UUID
    '/
    + CreationTime : TIMESTAMP
    + Name : VARCHAR(127)
    + Token : UUID
    + ExpirationDate : DATE
}
@enduml

@startuml







<style>
  root {
    BackgroundColor white
    FontColor black
    FontName Verdana
    HyperLinkColor blue
    LineColor black
    LineThickness 1
    Margin 5
  }
  caption {
    LineThickness 0
  }
  footer {
    LineThickness 0
  }
  header {
    LineThickness 0
  }
  node {
    MaximumWidth 300
  }
  title {
    FontSize 22
    LineThickness 0
  }
</style>

skinparam ArrowLollipopColor black
skinparam BackgroundColor white
skinparam DefaultFontName Verdana
skinparam DefaultMonospacedFontName Courier
skinparam LifelineStrategy nosolid
skinparam ParticipantPadding 10
skinparam SequenceLifeLineBorderColor black
skinparam Shadowing false
skinparam UseBetaStyle true

skinparam Activity {
  BackgroundColor white
  BarColor black
  BorderColor black
  FontColor black
  FontName Verdana
}
skinparam Boundary {
  FontColor black
}
skinparam Box {
  Padding 5
}
skinparam CircledCharacter {
  FontColor black
  FontName Courier
  Radius 9
}
skinparam Class {
  BackgroundColor white
  BorderColor black
  FontColor black
  FontName Verdana
}
skinparam ClassAttribute {
  FontColor black
  FontName Verdana
}
skinparam ClassStereotype {
  FontColor black
  FontName Verdana
}
skinparam Footer {
  FontColor black
  FontName Verdana
}
skinparam Header {
  FontColor black
  FontName Verdana
}
skinparam Hyperlink {
  Color blue
}
skinparam IconPackage {
  Color black
  BackgroundColor white
}
skinparam IconPrivate {
  Color black
  BackgroundColor white
}
skinparam IconProtected {
  Color black
  BackgroundColor white
}
skinparam IconPublic {
  Color black
  BackgroundColor white
}
skinparam Note {
  FontColor black
  FontName Verdana
}
skinparam Object {
  BorderColor black
}
skinparam Package {
  BorderColor black
  FontColor black
  FontName Verdana
}
skinparam State {
  BackgroundColor white
  BorderColor black
}
skinparam StereotypeA {
  BackgroundColor white
  BorderColor black
}
skinparam StereotypeC {
  BackgroundColor white
  BorderColor black
}
skinparam StereotypeE {
  BackgroundColor white
  BorderColor black
}
skinparam StereotypeI {
  BackgroundColor white
  BorderColor black
}
skinparam StereotypeN {
  BackgroundColor white
  BorderColor black
}
skinparam UseCaseStereoType {
  FontColor black
  FontName Verdana
}
skinparam ClassAttributeIconSize 0

class User{
    + ID : UUID
    + Handle : CHAR(31)
    + Name : VARCHAR(63)
    + Password : CHAR(128)
    + ProfilePicture : VARCHAR(255)
    + CreationTime : TIMESTAMP
}

class Post{
    + ID : UUID
    + Media : VARCHAR(255)
    + Content : VARCHAR(1023)
    + CreationTime : TIMESTAMP
}

class Sticker{
    + ID : UUID
    + Name : CHAR(31)
    + Location : VARCHAR(255)
    + Description : VARCHAR(511)
    + CreationTime : TIMESTAMP
}

User "0..n" - - "0..n" User : aims at >
(User, User) . Shoot
User "1..1" - - "0..n" Post : creates >
User "1..1" - - "0..n" Sticker : creates >
Post "0..n" - - "1..1" Sticker : includes >
User "0..n" - - "0..n" Post : likes >
Session "1..n" - - "1..1" User : authenticates >
(User, Post) . Like

class Shoot{
    + Shot : TIMESTAMP
}

class Like{
    + Time : TIMESTAMP
}

class Session{
    + CreationTime : TIMESTAMP
    + Name : VARCHAR(127)
    + Token : UUID
    + ExpirationDate : DATE
}
@enduml

PlantUML version 1.2022.2(Sat Mar 05 17:30:19 CET 2022)
(GPLV2 source distribution)
Java Runtime: OpenJDK Runtime Environment
JVM: OpenJDK 64-Bit Server VM
Default Encoding: UTF-8
Language: de
Country: DE
--></g></svg>