<?xml version="1.0" encoding="UTF-8" standalone="no"?>
<svg xmlns="http://www.w3.org/2000/svg" xmlns:xlink="http://www.w3.org/1999/xlink" contentStyleType="text/css" height="839px" preserveAspectRatio="none" style="width:596px;height:839px;background:#FFFFFF;" version="1.1" viewBox="0 0 596 839" width="596px" zoomAndPan="magnify"><defs/><g><!--MD5=[3fd616f346a44cd59a91eb10b19e157c]
class User--><g id="elem_User"><rect codeLine="4" fill="#FFFFFF" height="125.4844" id="User" rx="2.5" ry="2.5" style="stroke:#000000;stroke-width:1.0;" width="210" x="192" y="198"/><ellipse cx="277.25" cy="212" fill="#FFFFFF" rx="9" ry="9" style="stroke:#000000;stroke-width:1.0;"/><path d="M280.2188,217.6406 Q279.6406,217.9375 279,218.0781 Q278.3594,218.2344 277.6563,218.2344 Q275.1563,218.2344 273.8281,216.5938 Q272.5156,214.9375 272.5156,211.8125 Q272.5156,208.6875 273.8281,207.0313 Q275.1563,205.375 277.6563,205.375 Q278.3594,205.375 279,205.5313 Q279.6563,205.6875 280.2188,205.9844 L280.2188,208.7031 Q279.5938,208.125 279,207.8594 Q278.4063,207.5781 277.7813,207.5781 Q276.4375,207.5781 275.75,208.6563 Q275.0625,209.7188 275.0625,211.8125 Q275.0625,213.9063 275.75,214.9844 Q276.4375,216.0469 277.7813,216.0469 Q278.4063,216.0469 279,215.7813 Q279.5938,215.5 280.2188,214.9219 L280.2188,217.6406 Z " fill="#000000"/><text fill="#000000" font-family="Verdana" font-size="14" lengthAdjust="spacing" textLength="32" x="294.75" y="216.8467">User</text><line style="stroke:#000000;stroke-width:1.0;" x1="193" x2="401" y1="226" y2="226"/><text fill="#000000" font-family="Verdana" font-size="14" lengthAdjust="spacing" textLength="73" x="198" y="242.9951">+ID : UUID</text><text fill="#000000" font-family="Verdana" font-size="14" lengthAdjust="spacing" textLength="198" x="198" y="259.292">+CreationTime : TIMESTAMP</text><line style="stroke:#000000;stroke-width:1.0;" x1="193" x2="401" y1="266.5938" y2="266.5938"/><text fill="#000000" font-family="Verdana" font-size="14" lengthAdjust="spacing" textLength="140" x="198" y="283.5889">+Handle : CHAR(31)</text><text fill="#000000" font-family="Verdana" font-size="14" lengthAdjust="spacing" textLength="160" x="198" y="299.8857">+Name : VARCHAR(63)</text><text fill="#000000" font-family="Verdana" font-size="14" lengthAdjust="spacing" textLength="168" x="198" y="316.1826">+Password : CHAR(128)</text></g><!--MD5=[9bb0bdd047fba1a3c8d48282c35b4537]
class Post--><g id="elem_Post"><rect codeLine="12" fill="#FFFFFF" height="125.4844" id="Post" rx="2.5" ry="2.5" style="stroke:#000000;stroke-width:1.0;" width="232" x="12" y="521"/><ellipse cx="108.75" cy="535" fill="#FFFFFF" rx="9" ry="9" style="stroke:#000000;stroke-width:1.0;"/><path d="M111.7188,540.6406 Q111.1406,540.9375 110.5,541.0781 Q109.8594,541.2344 109.1563,541.2344 Q106.6563,541.2344 105.3281,539.5938 Q104.0156,537.9375 104.0156,534.8125 Q104.0156,531.6875 105.3281,530.0313 Q106.6563,528.375 109.1563,528.375 Q109.8594,528.375 110.5,528.5313 Q111.1563,528.6875 111.7188,528.9844 L111.7188,531.7031 Q111.0938,531.125 110.5,530.8594 Q109.9063,530.5781 109.2813,530.5781 Q107.9375,530.5781 107.25,531.6563 Q106.5625,532.7188 106.5625,534.8125 Q106.5625,536.9063 107.25,537.9844 Q107.9375,539.0469 109.2813,539.0469 Q109.9063,539.0469 110.5,538.7813 Q111.0938,538.5 111.7188,537.9219 L111.7188,540.6406 Z " fill="#000000"/><text fill="#000000" font-family="Verdana" font-size="14" lengthAdjust="spacing" textLength="31" x="126.25" y="539.8467">Post</text><line style="stroke:#000000;stroke-width:1.0;" x1="13" x2="243" y1="549" y2="549"/><text fill="#000000" font-family="Verdana" font-size="14" lengthAdjust="spacing" textLength="73" x="18" y="565.9951">+ID : UUID</text><text fill="#000000" font-family="Verdana" font-size="14" lengthAdjust="spacing" textLength="100" x="18" y="582.292">+Media : UUID</text><text fill="#000000" font-family="Verdana" font-size="14" lengthAdjust="spacing" textLength="198" x="18" y="598.5889">+CreationTime : TIMESTAMP</text><line style="stroke:#000000;stroke-width:1.0;" x1="13" x2="243" y1="605.8906" y2="605.8906"/><text fill="#000000" font-family="Verdana" font-size="14" lengthAdjust="spacing" textLength="220" x="18" y="622.8857">+MediaExtension : VARCHAR(7)</text><text fill="#000000" font-family="Verdana" font-size="14" lengthAdjust="spacing" textLength="194" x="18" y="639.1826">+Content : VARCHAR(1023)</text></g><!--MD5=[ef0783ae408c995dc8855cbad06794c9]
class Sticker--><g id="elem_Sticker"><rect codeLine="24" fill="#FFFFFF" height="109.1875" id="Sticker" rx="2.5" ry="2.5" style="stroke:#000000;stroke-width:1.0;" width="220" x="103" y="723"/><ellipse cx="185.75" cy="737" fill="#FFFFFF" rx="9" ry="9" style="stroke:#000000;stroke-width:1.0;"/><path d="M188.7188,742.6406 Q188.1406,742.9375 187.5,743.0781 Q186.8594,743.2344 186.1563,743.2344 Q183.6563,743.2344 182.3281,741.5938 Q181.0156,739.9375 181.0156,736.8125 Q181.0156,733.6875 182.3281,732.0313 Q183.6563,730.375 186.1563,730.375 Q186.8594,730.375 187.5,730.5313 Q188.1563,730.6875 188.7188,730.9844 L188.7188,733.7031 Q188.0938,733.125 187.5,732.8594 Q186.9063,732.5781 186.2813,732.5781 Q184.9375,732.5781 184.25,733.6563 Q183.5625,734.7188 183.5625,736.8125 Q183.5625,738.9063 184.25,739.9844 Q184.9375,741.0469 186.2813,741.0469 Q186.9063,741.0469 187.5,740.7813 Q188.0938,740.5 188.7188,739.9219 L188.7188,742.6406 Z " fill="#000000"/><text fill="#000000" font-family="Verdana" font-size="14" lengthAdjust="spacing" textLength="47" x="203.25" y="741.8467">Sticker</text><line style="stroke:#000000;stroke-width:1.0;" x1="104" x2="322" y1="751" y2="751"/><text fill="#000000" font-family="Verdana" font-size="14" lengthAdjust="spacing" textLength="73" x="109" y="767.9951">+ID : UUID</text><text fill="#000000" font-family="Verdana" font-size="14" lengthAdjust="spacing" textLength="198" x="109" y="784.292">+CreationTime : TIMESTAMP</text><line style="stroke:#000000;stroke-width:1.0;" x1="104" x2="322" y1="791.5938" y2="791.5938"/><text fill="#000000" font-family="Verdana" font-size="14" lengthAdjust="spacing" textLength="132" x="109" y="808.5889">+Name : CHAR(31)</text><text fill="#000000" font-family="Verdana" font-size="14" lengthAdjust="spacing" textLength="208" x="109" y="824.8857">+Description : VARCHAR(511)</text></g><!--MD5=[31cff31dc4665adce2a62b3f2e8d5ba6]
class Shoot--><g id="elem_Shoot"><rect codeLine="43" fill="#FFFFFF" height="60.2969" id="Shoot" rx="2.5" ry="2.5" style="stroke:#000000;stroke-width:1.0;" width="150" x="358" y="553.5"/><ellipse cx="408.75" cy="567.5" fill="#FFFFFF" rx="9" ry="9" style="stroke:#000000;stroke-width:1.0;"/><path d="M411.7188,573.1406 Q411.1406,573.4375 410.5,573.5781 Q409.8594,573.7344 409.1563,573.7344 Q406.6563,573.7344 405.3281,572.0938 Q404.0156,570.4375 404.0156,567.3125 Q404.0156,564.1875 405.3281,562.5313 Q406.6563,560.875 409.1563,560.875 Q409.8594,560.875 410.5,561.0313 Q411.1563,561.1875 411.7188,561.4844 L411.7188,564.2031 Q411.0938,563.625 410.5,563.3594 Q409.9063,563.0781 409.2813,563.0781 Q407.9375,563.0781 407.25,564.1563 Q406.5625,565.2188 406.5625,567.3125 Q406.5625,569.4063 407.25,570.4844 Q407.9375,571.5469 409.2813,571.5469 Q409.9063,571.5469 410.5,571.2813 Q411.0938,571 411.7188,570.4219 L411.7188,573.1406 Z " fill="#000000"/><text fill="#000000" font-family="Verdana" font-size="14" lengthAdjust="spacing" textLength="41" x="426.25" y="572.3467">Shoot</text><line style="stroke:#000000;stroke-width:1.0;" x1="359" x2="507" y1="581.5" y2="581.5"/><text fill="#000000" font-family="Verdana" font-size="14" lengthAdjust="spacing" textLength="138" x="364" y="598.4951">+Shot : TIMESTAMP</text><line style="stroke:#000000;stroke-width:1.0;" x1="359" x2="507" y1="605.7969" y2="605.7969"/></g><ellipse cx="433" cy="422" fill="#000000" rx="2" ry="2" style="stroke:none;stroke-width:1.0;"/><!--MD5=[2ca1536628238a7dc78c5d90808014f9]
class Session--><g id="elem_Session"><rect codeLine="59" fill="#FFFFFF" height="109.1875" id="Session" rx="2.5" ry="2.5" style="stroke:#000000;stroke-width:1.0;" width="210" x="192" y="12"/><ellipse cx="265.75" cy="26" fill="#FFFFFF" rx="9" ry="9" style="stroke:#000000;stroke-width:1.0;"/><path d="M268.7188,31.6406 Q268.1406,31.9375 267.5,32.0781 Q266.8594,32.2344 266.1563,32.2344 Q263.6563,32.2344 262.3281,30.5938 Q261.0156,28.9375 261.0156,25.8125 Q261.0156,22.6875 262.3281,21.0313 Q263.6563,19.375 266.1563,19.375 Q266.8594,19.375 267.5,19.5313 Q268.1563,19.6875 268.7188,19.9844 L268.7188,22.7031 Q268.0938,22.125 267.5,21.8594 Q266.9063,21.5781 266.2813,21.5781 Q264.9375,21.5781 264.25,22.6563 Q263.5625,23.7188 263.5625,25.8125 Q263.5625,27.9063 264.25,28.9844 Q264.9375,30.0469 266.2813,30.0469 Q266.9063,30.0469 267.5,29.7813 Q268.0938,29.5 268.7188,28.9219 L268.7188,31.6406 Z " fill="#000000"/><text fill="#000000" font-family="Verdana" font-size="14" lengthAdjust="spacing" textLength="55" x="283.25" y="30.8467">Session</text><line style="stroke:#000000;stroke-width:1.0;" x1="193" x2="401" y1="40" y2="40"/><text fill="#000000" font-family="Verdana" font-size="14" lengthAdjust="spacing" textLength="198" x="198" y="56.9951">+CreationTime : TIMESTAMP</text><text fill="#000000" font-family="Verdana" font-size="14" lengthAdjust="spacing" textLength="103" x="198" y="73.292">+Token : UUID</text><text fill="#000000" font-family="Verdana" font-size="14" lengthAdjust="spacing" textLength="163" x="198" y="89.5889">+ExpirationDate : DATE</text><line style="stroke:#000000;stroke-width:1.0;" x1="193" x2="401" y1="96.8906" y2="96.8906"/><text fill="#000000" font-family="Verdana" font-size="14" lengthAdjust="spacing" textLength="169" x="198" y="113.8857">+Name : VARCHAR(127)</text></g><!--MD5=[378e3e2ca7e24a99f4479cd893fbde36]
class Like--><g id="elem_Like"><rect fill="#FFFFFF" height="44" id="Like" rx="2.5" ry="2.5" style="stroke:#000000;stroke-width:1.0;" width="55" x="55.5" y="400"/><ellipse cx="68.5" cy="414" fill="#FFFFFF" rx="9" ry="9" style="stroke:#000000;stroke-width:1.0;"/><path d="M71.4688,419.6406 Q70.8906,419.9375 70.25,420.0781 Q69.6094,420.2344 68.9063,420.2344 Q66.4063,420.2344 65.0781,418.5938 Q63.7656,416.9375 63.7656,413.8125 Q63.7656,410.6875 65.0781,409.0313 Q66.4063,407.375 68.9063,407.375 Q69.6094,407.375 70.25,407.5313 Q70.9063,407.6875 71.4688,407.9844 L71.4688,410.7031 Q70.8438,410.125 70.25,409.8594 Q69.6563,409.5781 69.0313,409.5781 Q67.6875,409.5781 67,410.6563 Q66.3125,411.7188 66.3125,413.8125 Q66.3125,415.9063 67,416.9844 Q67.6875,418.0469 69.0313,418.0469 Q69.6563,418.0469 70.25,417.7813 Q70.8438,417.5 71.4688,416.9219 L71.4688,419.6406 Z " fill="#000000"/><text fill="#000000" font-family="Verdana" font-size="14" lengthAdjust="spacing" textLength="27" x="80.5" y="418.8467">Like</text><line style="stroke:#000000;stroke-width:1.0;" x1="56.5" x2="109.5" y1="428" y2="428"/><line style="stroke:#000000;stroke-width:1.0;" x1="56.5" x2="109.5" y1="436" y2="436"/></g><ellipse cx="18" cy="422" fill="#000000" rx="2" ry="2" style="stroke:none;stroke-width:1.0;"/><!--MD5=[972bde5337b4335dd91fa5354c932445]
class Point--><g id="elem_Point"><rect codeLine="51" fill="#FFFFFF" height="60.2969" id="Point" rx="2.5" ry="2.5" style="stroke:#000000;stroke-width:1.0;" width="152" x="437" y="36.5"/><ellipse cx="491.75" cy="50.5" fill="#FFFFFF" rx="9" ry="9" style="stroke:#000000;stroke-width:1.0;"/><path d="M494.7188,56.1406 Q494.1406,56.4375 493.5,56.5781 Q492.8594,56.7344 492.1563,56.7344 Q489.6563,56.7344 488.3281,55.0938 Q487.0156,53.4375 487.0156,50.3125 Q487.0156,47.1875 488.3281,45.5313 Q489.6563,43.875 492.1563,43.875 Q492.8594,43.875 493.5,44.0313 Q494.1563,44.1875 494.7188,44.4844 L494.7188,47.2031 Q494.0938,46.625 493.5,46.3594 Q492.9063,46.0781 492.2813,46.0781 Q490.9375,46.0781 490.25,47.1563 Q489.5625,48.2188 489.5625,50.3125 Q489.5625,52.4063 490.25,53.4844 Q490.9375,54.5469 492.2813,54.5469 Q492.9063,54.5469 493.5,54.2813 Q494.0938,54 494.7188,53.4219 L494.7188,56.1406 Z " fill="#000000"/><text fill="#000000" font-family="Verdana" font-size="14" lengthAdjust="spacing" textLength="35" x="509.25" y="55.3467">Point</text><line style="stroke:#000000;stroke-width:1.0;" x1="438" x2="588" y1="64.5" y2="64.5"/><text fill="#000000" font-family="Verdana" font-size="14" lengthAdjust="spacing" textLength="140" x="443" y="81.4951">+Time : TIMESTAMP</text><line style="stroke:#000000;stroke-width:1.0;" x1="438" x2="588" y1="88.7969" y2="88.7969"/></g><!--MD5=[f7b914cd222e1fbb546f5d6feccddf64]
link User to apoint137--><g id="link_User_apoint137"><path d="M321.3587,323.2391 C329.5388,339.5809 339.7615,356.4007 352,370 C377.0399,397.8243 420.2756,416.7686 430.6933,421.0699 " fill="none" id="User-apoint137" style="stroke:#000000;stroke-width:1.0;"/><polygon fill="#000000" points="360.7261,364.9005,355.9452,356.6789,352.0258,361.0592,360.7261,364.9005" style="stroke:#000000;stroke-width:1.0;"/><text fill="#000000" font-family="Verdana" font-size="13" lengthAdjust="spacing" textLength="48" x="366" y="366.0669">aims at</text><text fill="#000000" font-family="Verdana" font-size="13" lengthAdjust="spacing" textLength="24" x="298.7877" y="343.4071">0..n</text></g><!--MD5=[131ce5464a736bd0f91c8b95c25e1ed3]
link apoint137 to User--><g id="link_apoint137_User"><path d="M433.0889,419.8877 C433.3638,410.9916 433.4399,375.9746 419,353 C412.2107,342.1979 403.6783,332.1947 394.2952,323.0704 " fill="none" id="apoint137-User" style="stroke:#000000;stroke-width:1.0;"/><text fill="#000000" font-family="Verdana" font-size="13" lengthAdjust="spacing" textLength="24" x="380.6906" y="343.6557">0..n</text></g><!--MD5=[3f19e5722cb1c11e4b216fadcf422c3d]
link apoint137 to Shoot--><g id="link_apoint137_Shoot"><path d="M433,424.042 C433,437.1869 433,510.6804 433,553.1586 " fill="none" id="apoint137-Shoot" style="stroke:#000000;stroke-width:1.0;stroke-dasharray:7.0,7.0;"/></g><!--MD5=[77c575690b0287b9077f2f97ff7c450d]
link User to Post--><g id="link_User_Post"><path codeLine="36" d="M254.0854,323.1337 C238.7053,346.7396 221.7777,374.1386 208,400 C187.1655,439.1072 167.2401,484.7772 152.4862,520.7724 " fill="none" id="User-Post" style="stroke:#000000;stroke-width:1.0;"/><polygon fill="#000000" points="210.714,426.5132,217.4632,419.8125,212.2356,417.1252,210.714,426.5132" style="stroke:#000000;stroke-width:1.0;"/><text fill="#000000" font-family="Verdana" font-size="13" lengthAdjust="spacing" textLength="48" x="222" y="426.5669">creates</text><text fill="#000000" font-family="Verdana" font-size="13" lengthAdjust="spacing" textLength="24" x="223.3927" y="343.7267">1..1</text><text fill="#000000" font-family="Verdana" font-size="13" lengthAdjust="spacing" textLength="24" x="129.8519" y="510.1389">0..n</text></g><!--MD5=[ca4e51c2df119844c043e29d8f2dffda]
link User to Sticker--><g id="link_User_Sticker"><path codeLine="37" d="M293.3972,323.2027 C288.4831,399.7137 278.2574,532.8696 261,646 C257.7794,667.1122 257.6394,672.7018 251,693 C247.7996,702.7845 243.8244,712.9579 239.6618,722.7144 " fill="none" id="User-Sticker" style="stroke:#000000;stroke-width:1.0;"/><polygon fill="#000000" points="286.3335,487.5218,290.4519,478.9492,284.6265,478.1657,286.3335,487.5218" style="stroke:#000000;stroke-width:1.0;"/><text fill="#000000" font-family="Verdana" font-size="13" lengthAdjust="spacing" textLength="48" x="296" y="487.0669">creates</text><text fill="#000000" font-family="Verdana" font-size="13" lengthAdjust="spacing" textLength="24" x="267.5931" y="343.3665">1..1</text><text fill="#000000" font-family="Verdana" font-size="13" lengthAdjust="spacing" textLength="24" x="217.5403" y="711.7974">0..n</text></g><!--MD5=[b5776459882a3c2d26837e1f3ef5d47a]
link Post to Sticker--><g id="link_Post_Sticker"><path codeLine="38" d="M155.4797,646.2183 C166.296,670.9051 178.602,698.9916 189.0481,722.8333 " fill="none" id="Post-Sticker" style="stroke:#000000;stroke-width:1.0;"/><polygon fill="#000000" points="183.0066,689.1461,182.0685,679.6819,176.6848,682.0408,183.0066,689.1461" style="stroke:#000000;stroke-width:1.0;"/><text fill="#000000" font-family="Verdana" font-size="13" lengthAdjust="spacing" textLength="52" x="190" y="689.0669">includes</text><text fill="#000000" font-family="Verdana" font-size="13" lengthAdjust="spacing" textLength="24" x="133.2695" y="666.3839">0..n</text><text fill="#000000" font-family="Verdana" font-size="13" lengthAdjust="spacing" textLength="24" x="160.4418" y="711.9316">1..1</text></g><!--MD5=[f205aee3284cdd9814e4079314e77301]
link Session to User--><g id="link_Session_User"><path codeLine="40" d="M297,121.0561 C297,144.9272 297,173.0702 297,197.7995 " fill="none" id="Session-User" style="stroke:#000000;stroke-width:1.0;"/><polygon fill="#000000" points="302,164.5664,304.9389,155.5213,299.0611,155.5213,302,164.5664" style="stroke:#000000;stroke-width:1.0;"/><text fill="#000000" font-family="Verdana" font-size="13" lengthAdjust="spacing" textLength="88" x="311" y="164.0669">authenticates</text><text fill="#000000" font-family="Verdana" font-size="13" lengthAdjust="spacing" textLength="24" x="271.4625" y="141.0704">1..n</text><text fill="#000000" font-family="Verdana" font-size="13" lengthAdjust="spacing" textLength="24" x="271.6125" y="186.7291">1..1</text></g><!--MD5=[ae47dc7697c94b38847fccf63f6294e6]
link User to apoint149--><g id="link_User_apoint149"><path d="M191.8196,310.7604 C165.4778,323.9825 137.4735,338.5919 112,353 C78.087,372.1816 67.8143,374.9174 38,400 C30.1002,406.6461 22.3368,416.3354 19.3183,420.2564 " fill="none" id="User-apoint149" style="stroke:#000000;stroke-width:1.0;"/><polygon fill="#000000" points="112.7786,364.2459,121.9902,361.8799,118.8402,356.9173,112.7786,364.2459" style="stroke:#000000;stroke-width:1.0;"/><text fill="#000000" font-family="Verdana" font-size="13" lengthAdjust="spacing" textLength="28" x="126" y="366.0669">likes</text><text fill="#000000" font-family="Verdana" font-size="13" lengthAdjust="spacing" textLength="24" x="159.9465" y="310.6884">0..n</text></g><!--MD5=[4e4bd3a670a8a35f2e956c5037baf84a]
link apoint149 to Post--><g id="link_apoint149_Post"><path d="M19.2354,423.8137 C25.8443,433.5169 57.7532,480.3649 85.3137,520.8287 " fill="none" id="apoint149-Post" style="stroke:#000000;stroke-width:1.0;"/><text fill="#000000" font-family="Verdana" font-size="13" lengthAdjust="spacing" textLength="24" x="54.9906" y="509.7617">0..n</text></g><!--MD5=[d8fb10b6fa4d9c5bc931073345edee99]
link apoint149 to Like--><g id="link_apoint149_Like"><path d="M20.0313,422 C31.8379,422 43.6445,422 55.4512,422 " fill="none" id="apoint149-Like" style="stroke:#000000;stroke-width:1.0;stroke-dasharray:7.0,7.0;"/></g><!--MD5=[a6ca60353229ccd9178fa0dfbab705ba]
@startuml
!theme plain
skinparam ClassAttributeIconSize 0

class User{
    + ID : UUID
    + Handle : CHAR(31)
    + Name : VARCHAR(63)
    + Password : CHAR(128)
    + CreationTime : TIMESTAMP
}

class Post{
    + ID : UUID
    /'
    /+ CreatorID : UUID
    /+ StickerID : UUID
    '/
    + Media : UUID
    + MediaExtension : VARCHAR(7)
    + Content : VARCHAR(1023)
    + CreationTime : TIMESTAMP
}

class Sticker{
    + ID : UUID
    + Name : CHAR(31)
    /'
    /+ CreatorID : UUID
    '/
    + Description : VARCHAR(511)
    + CreationTime : TIMESTAMP
}

User "0..n" - - "0..n" User : aims at >
(User, User) . Shoot
User "1..1" - - "0..n" Post : creates >
User "1..1" - - "0..n" Sticker : creates >
Post "0..n" - - "1..1" Sticker : includes >
User "0..n" - - "0..n" Post : likes >
Session "1..n" - - "1..1" User : authenticates >
(User, Post) . Like

class Shoot{
    /'
    /+ Target : UUID
    /+ Archer : UUID
    '/
    + Shot : TIMESTAMP
}

class Point{
    /'
    /+ PostID : UUID
    /+ UserID : UUID
    '/
    + Time : TIMESTAMP
}

class Session{
    /'
    /+ UserID : UUID
    '/
    + CreationTime : TIMESTAMP
    + Name : VARCHAR(127)
    + Token : UUID
    + ExpirationDate : DATE
}
@enduml

@startuml







<style>
  root {
    BackgroundColor white
    FontColor black
    FontName Verdana
    HyperLinkColor blue
    LineColor black
    LineThickness 1
    Margin 5
  }
  caption {
    LineThickness 0
  }
  footer {
    LineThickness 0
  }
  header {
    LineThickness 0
  }
  node {
    MaximumWidth 300
  }
  title {
    FontSize 22
    LineThickness 0
  }
</style>

skinparam ArrowLollipopColor black
skinparam BackgroundColor white
skinparam DefaultFontName Verdana
skinparam DefaultMonospacedFontName Courier
skinparam LifelineStrategy nosolid
skinparam ParticipantPadding 10
skinparam SequenceLifeLineBorderColor black
skinparam Shadowing false
skinparam UseBetaStyle true

skinparam Activity {
  BackgroundColor white
  BarColor black
  BorderColor black
  FontColor black
  FontName Verdana
}
skinparam Boundary {
  FontColor black
}
skinparam Box {
  Padding 5
}
skinparam CircledCharacter {
  FontColor black
  FontName Courier
  Radius 9
}
skinparam Class {
  BackgroundColor white
  BorderColor black
  FontColor black
  FontName Verdana
}
skinparam ClassAttribute {
  FontColor black
  FontName Verdana
}
skinparam ClassStereotype {
  FontColor black
  FontName Verdana
}
skinparam Footer {
  FontColor black
  FontName Verdana
}
skinparam Header {
  FontColor black
  FontName Verdana
}
skinparam Hyperlink {
  Color blue
}
skinparam IconPackage {
  Color black
  BackgroundColor white
}
skinparam IconPrivate {
  Color black
  BackgroundColor white
}
skinparam IconProtected {
  Color black
  BackgroundColor white
}
skinparam IconPublic {
  Color black
  BackgroundColor white
}
skinparam Note {
  FontColor black
  FontName Verdana
}
skinparam Object {
  BorderColor black
}
skinparam Package {
  BorderColor black
  FontColor black
  FontName Verdana
}
skinparam State {
  BackgroundColor white
  BorderColor black
}
skinparam StereotypeA {
  BackgroundColor white
  BorderColor black
}
skinparam StereotypeC {
  BackgroundColor white
  BorderColor black
}
skinparam StereotypeE {
  BackgroundColor white
  BorderColor black
}
skinparam StereotypeI {
  BackgroundColor white
  BorderColor black
}
skinparam StereotypeN {
  BackgroundColor white
  BorderColor black
}
skinparam UseCaseStereoType {
  FontColor black
  FontName Verdana
}
skinparam ClassAttributeIconSize 0

class User{
    + ID : UUID
    + Handle : CHAR(31)
    + Name : VARCHAR(63)
    + Password : CHAR(128)
    + CreationTime : TIMESTAMP
}

class Post{
    + ID : UUID
    + Media : UUID
    + MediaExtension : VARCHAR(7)
    + Content : VARCHAR(1023)
    + CreationTime : TIMESTAMP
}

class Sticker{
    + ID : UUID
    + Name : CHAR(31)
    + Description : VARCHAR(511)
    + CreationTime : TIMESTAMP
}

User "0..n" - - "0..n" User : aims at >
(User, User) . Shoot
User "1..1" - - "0..n" Post : creates >
User "1..1" - - "0..n" Sticker : creates >
Post "0..n" - - "1..1" Sticker : includes >
User "0..n" - - "0..n" Post : likes >
Session "1..n" - - "1..1" User : authenticates >
(User, Post) . Like

class Shoot{
    + Shot : TIMESTAMP
}

class Point{
    + Time : TIMESTAMP
}

class Session{
    + CreationTime : TIMESTAMP
    + Name : VARCHAR(127)
    + Token : UUID
    + ExpirationDate : DATE
}
@enduml

PlantUML version 1.2022.2(Sat Mar 05 17:30:19 CET 2022)
(GPLV2 source distribution)
Java Runtime: OpenJDK Runtime Environment
JVM: OpenJDK 64-Bit Server VM
Default Encoding: UTF-8
Language: de
Country: DE
--></g></svg>