<?xml version="1.0" encoding="UTF-8" standalone="no"?>
<svg xmlns="http://www.w3.org/2000/svg" xmlns:xlink="http://www.w3.org/1999/xlink" contentScriptType="application/ecmascript" contentStyleType="text/css" height="620px" preserveAspectRatio="none" style="width:589px;height:620px;background:#FFFFFF;" version="1.1" viewBox="0 0 589 620" width="589px" zoomAndPan="magnify"><defs/><g><!--MD5=[3fd616f346a44cd59a91eb10b19e157c]
class User--><rect codeLine="4" fill="#FFFFFF" height="109.1875" id="User" style="stroke:#000000;stroke-width:1.5;" width="200" x="278" y="12"/><ellipse cx="358.25" cy="26" fill="#FFFFFF" rx="9" ry="9" style="stroke:#000000;stroke-width:1.0;"/><path d="M356.1563,25.8438 Q356.1563,27.7188 356.7344,28.7344 Q357.3125,29.7344 358.4688,29.7344 Q359.8125,29.7344 360.4688,27.7188 L362.7344,28.1406 Q361.625,31.6719 358.4531,31.6719 Q356.1094,31.6719 354.8906,30.1875 Q353.6719,28.7031 353.6719,25.8438 Q353.6719,20.125 358.375,20.125 Q359.9219,20.125 360.9531,20.9375 Q362,21.75 362.5,23.3594 L360.2344,23.9063 Q360,23.0313 359.5156,22.5469 Q359.0313,22.0469 358.4063,22.0469 Q356.1563,22.0469 356.1563,25.8438 Z " fill="#000000"/><text fill="#000000" font-family="Verdana" font-size="14" lengthAdjust="spacing" textLength="32" x="375.75" y="30.8467">User</text><line style="stroke:#000000;stroke-width:1.5;" x1="279" x2="477" y1="40" y2="40"/><text fill="#000000" font-family="Verdana" font-size="14" lengthAdjust="spacing" textLength="188" x="284" y="56.9951">+CreationTime : DATETIME</text><line style="stroke:#000000;stroke-width:1.5;" x1="279" x2="477" y1="64.2969" y2="64.2969"/><text fill="#000000" font-family="Verdana" font-size="14" lengthAdjust="spacing" textLength="140" x="284" y="81.292">+Handle : CHAR(31)</text><text fill="#000000" font-family="Verdana" font-size="14" lengthAdjust="spacing" textLength="160" x="284" y="97.5889">+Name : VARCHAR(63)</text><text fill="#000000" font-family="Verdana" font-size="14" lengthAdjust="spacing" textLength="168" x="284" y="113.8857">+Password : CHAR(128)</text><!--MD5=[9bb0bdd047fba1a3c8d48282c35b4537]
class Post--><rect codeLine="11" fill="#FFFFFF" height="109.1875" id="Post" style="stroke:#000000;stroke-width:1.5;" width="206" x="119" y="335"/><ellipse cx="202.75" cy="349" fill="#FFFFFF" rx="9" ry="9" style="stroke:#000000;stroke-width:1.0;"/><path d="M200.6563,348.8438 Q200.6563,350.7188 201.2344,351.7344 Q201.8125,352.7344 202.9688,352.7344 Q204.3125,352.7344 204.9688,350.7188 L207.2344,351.1406 Q206.125,354.6719 202.9531,354.6719 Q200.6094,354.6719 199.3906,353.1875 Q198.1719,351.7031 198.1719,348.8438 Q198.1719,343.125 202.875,343.125 Q204.4219,343.125 205.4531,343.9375 Q206.5,344.75 207,346.3594 L204.7344,346.9063 Q204.5,346.0313 204.0156,345.5469 Q203.5313,345.0469 202.9063,345.0469 Q200.6563,345.0469 200.6563,348.8438 Z " fill="#000000"/><text fill="#000000" font-family="Verdana" font-size="14" lengthAdjust="spacing" textLength="31" x="220.25" y="353.8467">Post</text><line style="stroke:#000000;stroke-width:1.5;" x1="120" x2="324" y1="363" y2="363"/><text fill="#000000" font-family="Verdana" font-size="14" lengthAdjust="spacing" textLength="100" x="125" y="379.9951">+ID : INTEGER</text><text fill="#000000" font-family="Verdana" font-size="14" lengthAdjust="spacing" textLength="188" x="125" y="396.292">+CreationTime : DATETIME</text><line style="stroke:#000000;stroke-width:1.5;" x1="120" x2="324" y1="403.5938" y2="403.5938"/><text fill="#000000" font-family="Verdana" font-size="14" lengthAdjust="spacing" textLength="170" x="125" y="420.5889">+Media : VARCHAR(255)</text><text fill="#000000" font-family="Verdana" font-size="14" lengthAdjust="spacing" textLength="194" x="125" y="436.8857">+Content : VARCHAR(1023)</text><!--MD5=[ef0783ae408c995dc8855cbad06794c9]
class Sticker--><rect codeLine="22" fill="#FFFFFF" height="92.8906" id="Sticker" style="stroke:#000000;stroke-width:1.5;" width="220" x="190" y="521"/><ellipse cx="272.75" cy="535" fill="#FFFFFF" rx="9" ry="9" style="stroke:#000000;stroke-width:1.0;"/><path d="M270.6563,534.8438 Q270.6563,536.7188 271.2344,537.7344 Q271.8125,538.7344 272.9688,538.7344 Q274.3125,538.7344 274.9688,536.7188 L277.2344,537.1406 Q276.125,540.6719 272.9531,540.6719 Q270.6094,540.6719 269.3906,539.1875 Q268.1719,537.7031 268.1719,534.8438 Q268.1719,529.125 272.875,529.125 Q274.4219,529.125 275.4531,529.9375 Q276.5,530.75 277,532.3594 L274.7344,532.9063 Q274.5,532.0313 274.0156,531.5469 Q273.5313,531.0469 272.9063,531.0469 Q270.6563,531.0469 270.6563,534.8438 Z " fill="#000000"/><text fill="#000000" font-family="Verdana" font-size="14" lengthAdjust="spacing" textLength="47" x="290.25" y="539.8467">Sticker</text><line style="stroke:#000000;stroke-width:1.5;" x1="191" x2="409" y1="549" y2="549"/><line style="stroke:#000000;stroke-width:1.5;" x1="191" x2="409" y1="557" y2="557"/><text fill="#000000" font-family="Verdana" font-size="14" lengthAdjust="spacing" textLength="132" x="196" y="573.9951">+Name : CHAR(31)</text><text fill="#000000" font-family="Verdana" font-size="14" lengthAdjust="spacing" textLength="187" x="196" y="590.292">+Location : VARCHAR(255)</text><text fill="#000000" font-family="Verdana" font-size="14" lengthAdjust="spacing" textLength="208" x="196" y="606.5889">+Description : VARCHAR(511)</text><!--MD5=[31cff31dc4665adce2a62b3f2e8d5ba6]
class Shoot--><rect codeLine="39" fill="#FFFFFF" height="60.2969" id="Shoot" style="stroke:#000000;stroke-width:1.5;" width="140" x="442" y="359.5"/><ellipse cx="487.75" cy="373.5" fill="#FFFFFF" rx="9" ry="9" style="stroke:#000000;stroke-width:1.0;"/><path d="M485.6563,373.3438 Q485.6563,375.2188 486.2344,376.2344 Q486.8125,377.2344 487.9688,377.2344 Q489.3125,377.2344 489.9688,375.2188 L492.2344,375.6406 Q491.125,379.1719 487.9531,379.1719 Q485.6094,379.1719 484.3906,377.6875 Q483.1719,376.2031 483.1719,373.3438 Q483.1719,367.625 487.875,367.625 Q489.4219,367.625 490.4531,368.4375 Q491.5,369.25 492,370.8594 L489.7344,371.4063 Q489.5,370.5313 489.0156,370.0469 Q488.5313,369.5469 487.9063,369.5469 Q485.6563,369.5469 485.6563,373.3438 Z " fill="#000000"/><text fill="#000000" font-family="Verdana" font-size="14" lengthAdjust="spacing" textLength="41" x="505.25" y="378.3467">Shoot</text><line style="stroke:#000000;stroke-width:1.5;" x1="443" x2="581" y1="387.5" y2="387.5"/><text fill="#000000" font-family="Verdana" font-size="14" lengthAdjust="spacing" textLength="128" x="448" y="404.4951">+Shot : DATETIME</text><line style="stroke:#000000;stroke-width:1.5;" x1="443" x2="581" y1="411.7969" y2="411.7969"/><ellipse cx="512" cy="228" fill="#000000" rx="2" ry="2" style="stroke:none;stroke-width:1.0;"/><!--MD5=[378e3e2ca7e24a99f4479cd893fbde36]
class Like--><rect codeLine="47" fill="#FFFFFF" height="60.2969" id="Like" style="stroke:#000000;stroke-width:1.5;" width="142" x="50" y="198"/><ellipse cx="103.75" cy="212" fill="#FFFFFF" rx="9" ry="9" style="stroke:#000000;stroke-width:1.0;"/><path d="M101.6563,211.8438 Q101.6563,213.7188 102.2344,214.7344 Q102.8125,215.7344 103.9688,215.7344 Q105.3125,215.7344 105.9688,213.7188 L108.2344,214.1406 Q107.125,217.6719 103.9531,217.6719 Q101.6094,217.6719 100.3906,216.1875 Q99.1719,214.7031 99.1719,211.8438 Q99.1719,206.125 103.875,206.125 Q105.4219,206.125 106.4531,206.9375 Q107.5,207.75 108,209.3594 L105.7344,209.9063 Q105.5,209.0313 105.0156,208.5469 Q104.5313,208.0469 103.9063,208.0469 Q101.6563,208.0469 101.6563,211.8438 Z " fill="#000000"/><text fill="#000000" font-family="Verdana" font-size="14" lengthAdjust="spacing" textLength="27" x="121.25" y="216.8467">Like</text><line style="stroke:#000000;stroke-width:1.5;" x1="51" x2="191" y1="226" y2="226"/><text fill="#000000" font-family="Verdana" font-size="14" lengthAdjust="spacing" textLength="130" x="56" y="242.9951">+Time : DATETIME</text><line style="stroke:#000000;stroke-width:1.5;" x1="51" x2="191" y1="250.2969" y2="250.2969"/><ellipse cx="13" cy="228" fill="#000000" rx="2" ry="2" style="stroke:none;stroke-width:1.0;"/><!--MD5=[30997c6c06cb97c44ee002a353841bbd]
link User to apoint203--><path d="M402.1552,121.1257 C410.6307,137.1435 421.0613,154.0796 433,168 C458.115,197.2837 499.7631,221.2584 509.7827,226.7946 " fill="none" id="User-apoint203" style="stroke:#000000;stroke-width:1.0;"/><polygon fill="#000000" points="441.5678,163.0693,437.1725,154.6354,433.0546,158.8296,441.5678,163.0693" style="stroke:#000000;stroke-width:1.0;"/><text fill="#000000" font-family="Verdana" font-size="13" lengthAdjust="spacing" textLength="48" x="447" y="164.0669">aims at</text><text fill="#000000" font-family="Verdana" font-size="13" lengthAdjust="spacing" textLength="24" x="406.7876" y="141.1489">0..n</text><!--MD5=[4019de989ac390e8f28c5a0999434b99]
link apoint203 to User--><path d="M512.2388,225.8951 C513.2109,216.3731 516.0934,176.6797 500,151 C493.0906,139.9749 484.1597,130.0113 474.2737,121.1195 " fill="none" id="apoint203-User" style="stroke:#000000;stroke-width:1.0;"/><text fill="#000000" font-family="Verdana" font-size="13" lengthAdjust="spacing" textLength="24" x="461.0713" y="141.142">0..n</text><!--MD5=[d9960db48d0c93b807c03609e8b0963c]
link apoint203 to Shoot--><path d="M512,230.042 C512,243.1869 512,316.6804 512,359.1586 " fill="none" id="apoint203-Shoot" style="stroke:#000000;stroke-width:1.0;stroke-dasharray:7.0,7.0;"/><!--MD5=[77c575690b0287b9077f2f97ff7c450d]
link User to Post--><path codeLine="33" d="M336.3364,121.1817 C320.1347,144.0936 302.3094,171.5222 289,198 C266.7743,242.2161 248.7636,295.5803 237.0359,334.7326 " fill="none" id="User-Post" style="stroke:#000000;stroke-width:1.0;"/><polygon fill="#000000" points="291.8918,232.6002,298.3705,225.6376,293.0407,223.1593,291.8918,232.6002" style="stroke:#000000;stroke-width:1.0;"/><text fill="#000000" font-family="Verdana" font-size="13" lengthAdjust="spacing" textLength="48" x="303" y="232.5669">creates</text><text fill="#000000" font-family="Verdana" font-size="13" lengthAdjust="spacing" textLength="24" x="305.4608" y="141.2121">1..1</text><text fill="#000000" font-family="Verdana" font-size="13" lengthAdjust="spacing" textLength="24" x="213.4249" y="323.818">0..n</text><!--MD5=[ca4e51c2df119844c043e29d8f2dffda]
link User to Sticker--><path codeLine="34" d="M379.8344,121.028 C381.1083,203.0606 377.7746,362.3182 340,491 C337.045,501.0663 332.7153,511.3474 327.9837,520.9731 " fill="none" id="User-Sticker" style="stroke:#000000;stroke-width:1.0;"/><polygon fill="#000000" points="378.3572,301.5249,382.4346,292.9327,376.6055,292.177,378.3572,301.5249" style="stroke:#000000;stroke-width:1.0;"/><text fill="#000000" font-family="Verdana" font-size="13" lengthAdjust="spacing" textLength="48" x="388" y="301.0669">creates</text><text fill="#000000" font-family="Verdana" font-size="13" lengthAdjust="spacing" textLength="24" x="354.4684" y="141.4262">1..1</text><text fill="#000000" font-family="Verdana" font-size="13" lengthAdjust="spacing" textLength="24" x="306.4312" y="509.7857">0..n</text><!--MD5=[b5776459882a3c2d26837e1f3ef5d47a]
link Post to Sticker--><path codeLine="35" d="M246.039,444.3583 C256.782,468.8742 269.3101,497.464 279.5892,520.9215 " fill="none" id="Post-Sticker" style="stroke:#000000;stroke-width:1.0;"/><polygon fill="#000000" points="272.0068,487.146,271.0683,477.6819,265.6846,480.041,272.0068,487.146" style="stroke:#000000;stroke-width:1.0;"/><text fill="#000000" font-family="Verdana" font-size="13" lengthAdjust="spacing" textLength="52" x="279" y="487.0669">includes</text><text fill="#000000" font-family="Verdana" font-size="13" lengthAdjust="spacing" textLength="24" x="223.5815" y="464.4113">0..n</text><text fill="#000000" font-family="Verdana" font-size="13" lengthAdjust="spacing" textLength="24" x="250.8289" y="510.0634">1..1</text><!--MD5=[a793c206139d7681f5c89761ca964dce]
link User to apoint213--><path d="M277.6537,86.5765 C203.4979,105.4218 103.43,139.6784 32,198 C22.0671,206.1101 15.7322,220.846 13.7058,226.0868 " fill="none" id="User-apoint213" style="stroke:#000000;stroke-width:1.0;"/><polygon fill="#000000" points="99.5795,161.9029,108.9496,160.2745,106.2029,155.0779,99.5795,161.9029" style="stroke:#000000;stroke-width:1.0;"/><text fill="#000000" font-family="Verdana" font-size="13" lengthAdjust="spacing" textLength="28" x="113" y="164.0669">likes</text><text fill="#000000" font-family="Verdana" font-size="13" lengthAdjust="spacing" textLength="24" x="246.1054" y="84.4865">0..n</text><!--MD5=[bd9fe3c8d8a6a08bef6a33508f1642f4]
link apoint213 to Post--><path d="M13.9553,230.0875 C16.3965,235.2639 23.2904,248.9272 32,258 C59.7811,286.9395 94.85,313.3353 127.2739,334.7589 " fill="none" id="apoint213-Post" style="stroke:#000000;stroke-width:1.0;"/><text fill="#000000" font-family="Verdana" font-size="13" lengthAdjust="spacing" textLength="24" x="89.5996" y="323.8477">0..n</text><!--MD5=[5de2e2f2c2c8ceb4b588ebf89a826121]
link apoint213 to Like--><path d="M15.1094,228 C26.6912,228 38.2729,228 49.8547,228 " fill="none" id="apoint213-Like" style="stroke:#000000;stroke-width:1.0;stroke-dasharray:7.0,7.0;"/><!--MD5=[819004d8922e828207428a789969cad8]
@startuml
!theme plain
skinparam ClassAttributeIconSize 0

class User{
    + Handle : CHAR(31)
    + Name : VARCHAR(63)
    + Password : CHAR(128)
    + CreationTime : DATETIME
}

class Post{
    + ID : INTEGER
    /'
    + Creator : CHAR(31)
    + Sticker : CHAR(31)
    '/
    + Media : VARCHAR(255)
    + Content : VARCHAR(1023)
    + CreationTime : DATETIME
}

class Sticker{
    + Name : CHAR(31)
    + Location : VARCHAR(255)
    /'
    + Creator : CHAR(31)
    '/
    + Description : VARCHAR(511)
}

User "0..n" - - "0..n" User : aims at >
(User, User) . Shoot
User "1..1" - - "0..n" Post : creates >
User "1..1" - - "0..n" Sticker : creates >
Post "0..n" - - "1..1" Sticker : includes >
User "0..n" - - "0..n" Post : likes >
(User, Post) . Like

class Shoot{
    /'
    + Target : CHAR(31)
    + Archer : CHAR(31)
    '/
    + Shot : DATETIME
}

class Like{
    /'
    + PostID : INTEGER
    + User : CHAR(31)
    '/
    + Time : DATETIME
}
@enduml

@startuml







<style>
  root {
    BackgroundColor white
    FontColor black
    FontName Verdana
    HyperLinkColor blue
    LineColor black
    LineThickness 1
    Margin 5
  }
  caption {
    LineThickness 0
  }
  footer {
    LineThickness 0
  }
  header {
    LineThickness 0
  }
  node {
    MaximumWidth 300
  }
  title {
    FontSize 22
    LineThickness 0
  }
</style>

skinparam ArrowLollipopColor black
skinparam BackgroundColor white
skinparam DefaultFontName Verdana
skinparam DefaultMonospacedFontName Courier
skinparam LifelineStrategy nosolid
skinparam ParticipantPadding 10
skinparam SequenceLifeLineBorderColor black
skinparam Shadowing false
skinparam UseBetaStyle true

skinparam Activity {
  BackgroundColor white
  BarColor black
  BorderColor black
  FontColor black
  FontName Verdana
}
skinparam Boundary {
  FontColor black
}
skinparam Box {
  Padding 5
}
skinparam CircledCharacter {
  FontColor black
  FontName Courier
  Radius 9
}
skinparam Class {
  BackgroundColor white
  BorderColor black
  FontColor black
  FontName Verdana
}
skinparam ClassAttribute {
  FontColor black
  FontName Verdana
}
skinparam ClassStereotype {
  FontColor black
  FontName Verdana
}
skinparam Footer {
  FontColor black
  FontName Verdana
}
skinparam Header {
  FontColor black
  FontName Verdana
}
skinparam Hyperlink {
  Color blue
}
skinparam IconPackage {
  Color black
  BackgroundColor white
}
skinparam IconPrivate {
  Color black
  BackgroundColor white
}
skinparam IconProtected {
  Color black
  BackgroundColor white
}
skinparam IconPublic {
  Color black
  BackgroundColor white
}
skinparam Note {
  FontColor black
  FontName Verdana
}
skinparam Object {
  BorderColor black
}
skinparam Package {
  BorderColor black
  FontColor black
  FontName Verdana
}
skinparam State {
  BackgroundColor white
  BorderColor black
}
skinparam StereotypeA {
  BackgroundColor white
  BorderColor black
}
skinparam StereotypeC {
  BackgroundColor white
  BorderColor black
}
skinparam StereotypeE {
  BackgroundColor white
  BorderColor black
}
skinparam StereotypeI {
  BackgroundColor white
  BorderColor black
}
skinparam StereotypeN {
  BackgroundColor white
  BorderColor black
}
skinparam UseCaseStereoType {
  FontColor black
  FontName Verdana
}
skinparam ClassAttributeIconSize 0

class User{
    + Handle : CHAR(31)
    + Name : VARCHAR(63)
    + Password : CHAR(128)
    + CreationTime : DATETIME
}

class Post{
    + ID : INTEGER
    + Media : VARCHAR(255)
    + Content : VARCHAR(1023)
    + CreationTime : DATETIME
}

class Sticker{
    + Name : CHAR(31)
    + Location : VARCHAR(255)
    + Description : VARCHAR(511)
}

User "0..n" - - "0..n" User : aims at >
(User, User) . Shoot
User "1..1" - - "0..n" Post : creates >
User "1..1" - - "0..n" Sticker : creates >
Post "0..n" - - "1..1" Sticker : includes >
User "0..n" - - "0..n" Post : likes >
(User, Post) . Like

class Shoot{
    + Shot : DATETIME
}

class Like{
    + Time : DATETIME
}
@enduml

PlantUML version 1.2022.1(Tue Feb 01 19:19:58 CET 2022)
(GPLV2 source distribution)
Java Runtime: OpenJDK Runtime Environment
JVM: OpenJDK Server VM
Default Encoding: UTF-8
Language: de
Country: DE
--></g></svg>