<?xml version="1.0" standalone="no"?>
<!DOCTYPE svg PUBLIC "-//W3C//DTD SVG 20010904//EN"
 "http://www.w3.org/TR/2001/REC-SVG-20010904/DTD/svg10.dtd">
<svg version="1.0" xmlns="http://www.w3.org/2000/svg"
 width="512.000000pt" height="512.000000pt" viewBox="0 0 512.000000 512.000000"
 preserveAspectRatio="xMidYMid meet">

<g transform="translate(0.000000,512.000000) scale(0.100000,-0.100000)"
fill="#000000" stroke="none">
<path d="M1416 4899 c-126 -21 -269 -136 -318 -256 l-23 -58 0 -1601 0 -1600
37 -75 c46 -93 112 -158 206 -202 l67 -32 1580 -3 c1427 -2 1584 -1 1634 14
77 22 130 55 190 119 60 63 98 139 111 222 13 79 13 3038 0 3117 -29 180 -168
322 -349 356 -65 12 -3061 12 -3135 -1z m3064 -2129 l0 -1280 -1492 2 -1493 3
-3 1278 -2 1277 1495 0 1495 0 0 -1280z"/>
<path d="M508 4031 c-76 -24 -115 -50 -177 -116 -60 -63 -98 -138 -111 -222
-14 -82 -13 -3053 0 -3124 34 -181 176 -320 356 -349 79 -13 3038 -13 3117 0
32 5 83 20 113 34 63 29 153 110 188 170 29 50 56 138 56 183 l0 33 -1705 0
-1705 0 0 1705 0 1705 -37 -1 c-21 0 -63 -8 -95 -18z"/>
</g>
</svg>
